<?xml version="1.0" encoding="UTF-8" standalone="no"?>
<!DOCTYPE svg PUBLIC "-//W3C//DTD SVG 1.1//EN"
 "http://www.w3.org/Graphics/SVG/1.1/DTD/svg11.dtd">
<!-- Generated by graphviz version 2.43.0 (0)
 -->
<!-- Title: laba1 Pages: 1 -->
<svg width="1394pt" height="1336pt"
 viewBox="0.00 0.00 1394.44 1336.00" xmlns="http://www.w3.org/2000/svg" xmlns:xlink="http://www.w3.org/1999/xlink">
<g id="graph0" class="graph" transform="scale(1 1) rotate(0) translate(4 1332)">
<title>laba1</title>
<polygon fill="white" stroke="transparent" points="-4,4 -4,-1332 1390.44,-1332 1390.44,4 -4,4"/>
<g id="clust1" class="cluster">
<title>cluster_LabaMap</title>
<polygon fill="none" stroke="black" points="29.44,-8 29.44,-1320 1376.44,-1320 1376.44,-8 29.44,-8"/>
<text text-anchor="middle" x="702.94" y="-1304.8" font-family="Times,serif" font-size="14.00">LabaMap</text>
</g>
<!-- LabaMap::Start -->
<g id="node1" class="node">
<title>LabaMap::Start</title>
<path fill="none" stroke="black" d="M1132.44,-1197.5C1132.44,-1197.5 1216.44,-1197.5 1216.44,-1197.5 1222.44,-1197.5 1228.44,-1203.5 1228.44,-1209.5 1228.44,-1209.5 1228.44,-1221.5 1228.44,-1221.5 1228.44,-1227.5 1222.44,-1233.5 1216.44,-1233.5 1216.44,-1233.5 1132.44,-1233.5 1132.44,-1233.5 1126.44,-1233.5 1120.44,-1227.5 1120.44,-1221.5 1120.44,-1221.5 1120.44,-1209.5 1120.44,-1209.5 1120.44,-1203.5 1126.44,-1197.5 1132.44,-1197.5"/>
<text text-anchor="middle" x="1174.44" y="-1211.8" font-family="Times,serif" font-size="14.00">Start</text>
</g>
<!-- LabaMap::Line -->
<g id="node2" class="node">
<title>LabaMap::Line</title>
<path fill="none" stroke="black" d="M969.44,-1094.5C969.44,-1094.5 1053.44,-1094.5 1053.44,-1094.5 1059.44,-1094.5 1065.44,-1100.5 1065.44,-1106.5 1065.44,-1106.5 1065.44,-1118.5 1065.44,-1118.5 1065.44,-1124.5 1059.44,-1130.5 1053.44,-1130.5 1053.44,-1130.5 969.44,-1130.5 969.44,-1130.5 963.44,-1130.5 957.44,-1124.5 957.44,-1118.5 957.44,-1118.5 957.44,-1106.5 957.44,-1106.5 957.44,-1100.5 963.44,-1094.5 969.44,-1094.5"/>
<text text-anchor="middle" x="1011.44" y="-1108.8" font-family="Times,serif" font-size="14.00">Line</text>
</g>
<!-- LabaMap::Start&#45;&gt;LabaMap::Line -->
<g id="edge1" class="edge">
<title>LabaMap::Start&#45;&gt;LabaMap::Line</title>
<path fill="none" stroke="black" d="M1132.82,-1197.33C1121.11,-1191.96 1108.54,-1185.68 1097.44,-1179 1077.03,-1166.73 1055.73,-1150.53 1039.43,-1137.31"/>
<polygon fill="black" stroke="black" points="1041.34,-1134.35 1031.39,-1130.71 1036.89,-1139.76 1041.34,-1134.35"/>
<text text-anchor="start" x="1097.44" y="-1167.8" font-family="Times,serif" font-size="14.00">num()/</text>
<text text-anchor="start" x="1097.44" y="-1152.8" font-family="Times,serif" font-size="14.00">addC();</text>
</g>
<!-- LabaMap::Error -->
<g id="node11" class="node">
<title>LabaMap::Error</title>
<path fill="none" stroke="black" d="M672.44,-16.5C672.44,-16.5 756.44,-16.5 756.44,-16.5 762.44,-16.5 768.44,-22.5 768.44,-28.5 768.44,-28.5 768.44,-185.5 768.44,-185.5 768.44,-191.5 762.44,-197.5 756.44,-197.5 756.44,-197.5 672.44,-197.5 672.44,-197.5 666.44,-197.5 660.44,-191.5 660.44,-185.5 660.44,-185.5 660.44,-28.5 660.44,-28.5 660.44,-22.5 666.44,-16.5 672.44,-16.5"/>
<text text-anchor="middle" x="714.44" y="-182.3" font-family="Times,serif" font-size="14.00">Error</text>
<polyline fill="none" stroke="black" points="660.44,-174.5 768.44,-174.5 "/>
<text text-anchor="start" x="668.44" y="-159.3" font-family="Times,serif" font-size="14.00">char()/</text>
<text text-anchor="start" x="668.44" y="-144.3" font-family="Times,serif" font-size="14.00">   stop();</text>
<text text-anchor="start" x="668.44" y="-129.3" font-family="Times,serif" font-size="14.00">num()/</text>
<text text-anchor="start" x="668.44" y="-114.3" font-family="Times,serif" font-size="14.00">   stop();</text>
<text text-anchor="start" x="668.44" y="-99.3" font-family="Times,serif" font-size="14.00">end()/</text>
<text text-anchor="start" x="668.44" y="-84.3" font-family="Times,serif" font-size="14.00">   stop();</text>
<text text-anchor="start" x="668.44" y="-69.3" font-family="Times,serif" font-size="14.00">asg()/</text>
<text text-anchor="start" x="668.44" y="-54.3" font-family="Times,serif" font-size="14.00">   stop();</text>
<text text-anchor="start" x="668.44" y="-39.3" font-family="Times,serif" font-size="14.00">space()/</text>
<text text-anchor="start" x="668.44" y="-24.3" font-family="Times,serif" font-size="14.00">   stop();</text>
</g>
<!-- LabaMap::Start&#45;&gt;LabaMap::Error -->
<g id="edge2" class="edge">
<title>LabaMap::Start&#45;&gt;LabaMap::Error</title>
<path fill="none" stroke="black" d="M1170.71,-1197.37C1151.85,-1109.7 1069.17,-713.74 1105.44,-674 1135.07,-641.53 1271.76,-687.48 1302.44,-656 1326.22,-631.6 1307.44,-613.57 1307.44,-579.5 1307.44,-579.5 1307.44,-579.5 1307.44,-281.5 1307.44,-247.39 1295.44,-235.48 1267.44,-216 1188.86,-161.35 907.25,-127.14 778.95,-114.06"/>
<polygon fill="black" stroke="black" points="779.17,-110.56 768.87,-113.04 778.47,-117.53 779.17,-110.56"/>
<text text-anchor="start" x="1105.44" y="-692.8" font-family="Times,serif" font-size="14.00">char()/</text>
<text text-anchor="start" x="1105.44" y="-677.8" font-family="Times,serif" font-size="14.00">stop();</text>
</g>
<!-- LabaMap::Start&#45;&gt;LabaMap::Error -->
<g id="edge3" class="edge">
<title>LabaMap::Start&#45;&gt;LabaMap::Error</title>
<path fill="none" stroke="black" d="M1174.44,-1197.34C1174.44,-1177.25 1174.44,-1142.96 1174.44,-1113.5 1174.44,-1113.5 1174.44,-1113.5 1174.44,-739.5 1174.44,-710.39 1156.06,-695.73 1175.44,-674 1216.6,-627.83 1268.59,-698.6 1313.44,-656 1338.5,-632.19 1327.44,-614.06 1327.44,-579.5 1327.44,-579.5 1327.44,-579.5 1327.44,-281.5 1327.44,-247.39 1315.5,-235.38 1287.44,-216 1205.43,-159.36 910.55,-125.95 778.81,-113.55"/>
<polygon fill="black" stroke="black" points="778.75,-110.03 768.47,-112.59 778.1,-117 778.75,-110.03"/>
<text text-anchor="start" x="1175.44" y="-692.8" font-family="Times,serif" font-size="14.00">end()/</text>
<text text-anchor="start" x="1175.44" y="-677.8" font-family="Times,serif" font-size="14.00">stop();</text>
</g>
<!-- LabaMap::Start&#45;&gt;LabaMap::Error -->
<g id="edge4" class="edge">
<title>LabaMap::Start&#45;&gt;LabaMap::Error</title>
<path fill="none" stroke="black" d="M1195.89,-1197.22C1216.15,-1178.82 1243.44,-1147.69 1243.44,-1113.5 1243.44,-1113.5 1243.44,-1113.5 1243.44,-739.5 1243.44,-710.39 1226.02,-696.55 1244.44,-674 1268.04,-645.1 1299.38,-681.69 1326.44,-656 1352.01,-631.72 1347.44,-614.76 1347.44,-579.5 1347.44,-579.5 1347.44,-579.5 1347.44,-281.5 1347.44,-247.62 1336.27,-235.32 1308.44,-216 1223.16,-156.8 914.2,-124.55 778.78,-112.99"/>
<polygon fill="black" stroke="black" points="778.82,-109.48 768.56,-112.13 778.23,-116.46 778.82,-109.48"/>
<text text-anchor="start" x="1244.44" y="-692.8" font-family="Times,serif" font-size="14.00">asg()/</text>
<text text-anchor="start" x="1244.44" y="-677.8" font-family="Times,serif" font-size="14.00">stop();</text>
</g>
<!-- LabaMap::Start&#45;&gt;LabaMap::Error -->
<g id="edge5" class="edge">
<title>LabaMap::Start&#45;&gt;LabaMap::Error</title>
<path fill="none" stroke="black" d="M1228.58,-1198.75C1267.24,-1183.79 1312.44,-1157 1312.44,-1113.5 1312.44,-1113.5 1312.44,-1113.5 1312.44,-739.5 1312.44,-664.3 1367.44,-654.7 1367.44,-579.5 1367.44,-579.5 1367.44,-579.5 1367.44,-281.5 1367.44,-247.62 1356.32,-235.24 1328.44,-216 1239.79,-154.84 917.88,-123.5 778.98,-112.58"/>
<polygon fill="black" stroke="black" points="779.14,-109.08 768.9,-111.8 778.6,-116.06 779.14,-109.08"/>
<text text-anchor="start" x="1330.44" y="-692.8" font-family="Times,serif" font-size="14.00">space()/</text>
<text text-anchor="start" x="1330.44" y="-677.8" font-family="Times,serif" font-size="14.00">stop();</text>
</g>
<!-- LabaMap::Line&#45;&gt;LabaMap::Line -->
<g id="edge6" class="edge">
<title>LabaMap::Line&#45;&gt;LabaMap::Line</title>
<path fill="none" stroke="black" d="M1065.44,-1121.46C1075.97,-1120.42 1083.44,-1117.43 1083.44,-1112.5 1083.44,-1109.34 1080.37,-1106.98 1075.4,-1105.42"/>
<polygon fill="black" stroke="black" points="1075.92,-1101.95 1065.44,-1103.54 1074.62,-1108.83 1075.92,-1101.95"/>
<text text-anchor="start" x="1083.44" y="-1116.3" font-family="Times,serif" font-size="14.00">num()/</text>
<text text-anchor="start" x="1083.44" y="-1101.3" font-family="Times,serif" font-size="14.00">addC();</text>
</g>
<!-- LabaMap::PreType -->
<g id="node3" class="node">
<title>LabaMap::PreType</title>
<path fill="none" stroke="black" d="M713.44,-951.5C713.44,-951.5 847.44,-951.5 847.44,-951.5 853.44,-951.5 859.44,-957.5 859.44,-963.5 859.44,-963.5 859.44,-1015.5 859.44,-1015.5 859.44,-1021.5 853.44,-1027.5 847.44,-1027.5 847.44,-1027.5 713.44,-1027.5 713.44,-1027.5 707.44,-1027.5 701.44,-1021.5 701.44,-1015.5 701.44,-1015.5 701.44,-963.5 701.44,-963.5 701.44,-957.5 707.44,-951.5 713.44,-951.5"/>
<text text-anchor="middle" x="780.44" y="-1012.3" font-family="Times,serif" font-size="14.00">PreType</text>
<polyline fill="none" stroke="black" points="701.44,-1004.5 859.44,-1004.5 "/>
<text text-anchor="start" x="709.44" y="-989.3" font-family="Times,serif" font-size="14.00">char()</text>
<text text-anchor="start" x="709.44" y="-974.3" font-family="Times,serif" font-size="14.00">[ctxt.nameGuard()]/</text>
<text text-anchor="start" x="709.44" y="-959.3" font-family="Times,serif" font-size="14.00">   addC();</text>
</g>
<!-- LabaMap::Line&#45;&gt;LabaMap::PreType -->
<g id="edge7" class="edge">
<title>LabaMap::Line&#45;&gt;LabaMap::PreType</title>
<path fill="none" stroke="black" d="M978.83,-1094.42C948.19,-1078.37 901.1,-1053.71 860.49,-1032.43"/>
<polygon fill="black" stroke="black" points="861.88,-1029.21 851.39,-1027.67 858.63,-1035.41 861.88,-1029.21"/>
<text text-anchor="start" x="942.44" y="-1064.8" font-family="Times,serif" font-size="14.00">space()/</text>
<text text-anchor="start" x="942.44" y="-1049.8" font-family="Times,serif" font-size="14.00">saveLine();</text>
</g>
<!-- LabaMap::Line&#45;&gt;LabaMap::Error -->
<g id="edge8" class="edge">
<title>LabaMap::Line&#45;&gt;LabaMap::Error</title>
<path fill="none" stroke="black" d="M1021.6,-1094.12C1034.03,-1071.19 1053.44,-1029.19 1053.44,-990.5 1053.44,-990.5 1053.44,-990.5 1053.44,-791 1053.44,-712.71 1029.05,-666.3 1091.44,-619 1143.54,-579.5 1191.32,-647.34 1237.44,-601 1264.11,-574.19 1247.44,-554.32 1247.44,-516.5 1247.44,-516.5 1247.44,-516.5 1247.44,-281.5 1247.44,-247.16 1234.51,-235.78 1206.44,-216 1137.91,-167.72 896.1,-131.18 778.97,-115.88"/>
<polygon fill="black" stroke="black" points="779.08,-112.36 768.71,-114.55 778.18,-119.3 779.08,-112.36"/>
<text text-anchor="start" x="1091.44" y="-641.3" font-family="Times,serif" font-size="14.00">char()/</text>
<text text-anchor="start" x="1091.44" y="-626.3" font-family="Times,serif" font-size="14.00">stop();</text>
</g>
<!-- LabaMap::Line&#45;&gt;LabaMap::Error -->
<g id="edge9" class="edge">
<title>LabaMap::Line&#45;&gt;LabaMap::Error</title>
<path fill="none" stroke="black" d="M1027.98,-1094.35C1032.76,-1088.79 1037.69,-1082.41 1041.44,-1076 1061.94,-1040.99 1073.44,-1031.07 1073.44,-990.5 1073.44,-990.5 1073.44,-990.5 1073.44,-739.5 1073.44,-710.3 1060.13,-696.74 1078.44,-674 1095.89,-652.31 1114.63,-670.44 1138.44,-656 1158.05,-644.1 1154.5,-630.35 1174.44,-619 1204.23,-602.05 1226.62,-626.58 1249.44,-601 1271.42,-576.36 1267.44,-486.52 1267.44,-453.5 1267.44,-453.5 1267.44,-453.5 1267.44,-281.5 1267.44,-247.39 1255.3,-235.68 1227.44,-216 1155.66,-165.29 900.23,-129.63 779.09,-115.17"/>
<polygon fill="black" stroke="black" points="779.19,-111.66 768.85,-113.96 778.37,-118.61 779.19,-111.66"/>
<text text-anchor="start" x="1174.44" y="-641.3" font-family="Times,serif" font-size="14.00">end()/</text>
<text text-anchor="start" x="1174.44" y="-626.3" font-family="Times,serif" font-size="14.00">stop();</text>
</g>
<!-- LabaMap::Line&#45;&gt;LabaMap::Error -->
<g id="edge10" class="edge">
<title>LabaMap::Line&#45;&gt;LabaMap::Error</title>
<path fill="none" stroke="black" d="M1035.99,-1094.43C1042.55,-1089.07 1049.25,-1082.76 1054.44,-1076 1079.86,-1042.86 1093.44,-1032.27 1093.44,-990.5 1093.44,-990.5 1093.44,-990.5 1093.44,-791 1093.44,-764.94 1068.27,-693.61 1085.44,-674 1105.37,-651.23 1194.35,-671.34 1220.44,-656 1246.72,-640.55 1249.35,-628.99 1261.44,-601 1287.82,-539.89 1287.44,-520.07 1287.44,-453.5 1287.44,-453.5 1287.44,-453.5 1287.44,-281.5 1287.44,-247.39 1275.37,-235.58 1247.44,-216 1172.23,-163.3 903.55,-128.33 778.86,-114.57"/>
<polygon fill="black" stroke="black" points="779.01,-111.07 768.69,-113.46 778.26,-118.03 779.01,-111.07"/>
<text text-anchor="start" x="1253.44" y="-641.3" font-family="Times,serif" font-size="14.00">asg()/</text>
<text text-anchor="start" x="1253.44" y="-626.3" font-family="Times,serif" font-size="14.00">stop();</text>
</g>
<!-- LabaMap::PreName -->
<g id="node4" class="node">
<title>LabaMap::PreName</title>
<path fill="none" stroke="black" d="M426.44,-829.5C426.44,-829.5 510.44,-829.5 510.44,-829.5 516.44,-829.5 522.44,-835.5 522.44,-841.5 522.44,-841.5 522.44,-853.5 522.44,-853.5 522.44,-859.5 516.44,-865.5 510.44,-865.5 510.44,-865.5 426.44,-865.5 426.44,-865.5 420.44,-865.5 414.44,-859.5 414.44,-853.5 414.44,-853.5 414.44,-841.5 414.44,-841.5 414.44,-835.5 420.44,-829.5 426.44,-829.5"/>
<text text-anchor="middle" x="468.44" y="-843.8" font-family="Times,serif" font-size="14.00">PreName</text>
</g>
<!-- LabaMap::PreType&#45;&gt;LabaMap::PreName -->
<g id="edge11" class="edge">
<title>LabaMap::PreType&#45;&gt;LabaMap::PreName</title>
<path fill="none" stroke="black" d="M701.38,-984.04C650.68,-978.07 585.27,-964.35 535.44,-933 512.56,-918.61 494.18,-893.57 482.49,-874.48"/>
<polygon fill="black" stroke="black" points="485.39,-872.5 477.31,-865.65 479.36,-876.05 485.39,-872.5"/>
<text text-anchor="start" x="535.44" y="-921.8" font-family="Times,serif" font-size="14.00">num()</text>
<text text-anchor="start" x="535.44" y="-906.8" font-family="Times,serif" font-size="14.00">[ctxt.nameGuard()]/</text>
<text text-anchor="start" x="535.44" y="-891.8" font-family="Times,serif" font-size="14.00">addC();</text>
</g>
<!-- LabaMap::PreType&#45;&gt;LabaMap::PreName -->
<g id="edge12" class="edge">
<title>LabaMap::PreType&#45;&gt;LabaMap::PreName</title>
<path fill="none" stroke="black" d="M741.33,-951.3C734.99,-945.21 728.51,-938.94 722.44,-933 702.22,-913.22 702.45,-901.21 677.44,-888 632.7,-864.36 575.98,-854.71 532.92,-850.85"/>
<polygon fill="black" stroke="black" points="533.1,-847.35 522.84,-850.03 532.53,-854.33 533.1,-847.35"/>
<text text-anchor="start" x="722.44" y="-921.8" font-family="Times,serif" font-size="14.00">space()</text>
<text text-anchor="start" x="722.44" y="-906.8" font-family="Times,serif" font-size="14.00">[ctxt.typeGuard()]/</text>
<text text-anchor="start" x="722.44" y="-891.8" font-family="Times,serif" font-size="14.00">saveType();</text>
</g>
<!-- LabaMap::PreAsg -->
<g id="node5" class="node">
<title>LabaMap::PreAsg</title>
<path fill="none" stroke="black" d="M349.44,-722.5C349.44,-722.5 433.44,-722.5 433.44,-722.5 439.44,-722.5 445.44,-728.5 445.44,-734.5 445.44,-734.5 445.44,-746.5 445.44,-746.5 445.44,-752.5 439.44,-758.5 433.44,-758.5 433.44,-758.5 349.44,-758.5 349.44,-758.5 343.44,-758.5 337.44,-752.5 337.44,-746.5 337.44,-746.5 337.44,-734.5 337.44,-734.5 337.44,-728.5 343.44,-722.5 349.44,-722.5"/>
<text text-anchor="middle" x="391.44" y="-736.8" font-family="Times,serif" font-size="14.00">PreAsg</text>
</g>
<!-- LabaMap::PreType&#45;&gt;LabaMap::PreAsg -->
<g id="edge13" class="edge">
<title>LabaMap::PreType&#45;&gt;LabaMap::PreAsg</title>
<path fill="none" stroke="black" d="M701.21,-980.55C580.38,-966.54 359.39,-932.79 315.44,-870 290.88,-834.92 329.68,-791.59 360.29,-765.27"/>
<polygon fill="black" stroke="black" points="362.8,-767.74 368.25,-758.65 358.32,-762.36 362.8,-767.74"/>
<text text-anchor="start" x="315.44" y="-851.3" font-family="Times,serif" font-size="14.00">space()/</text>
<text text-anchor="start" x="315.44" y="-836.3" font-family="Times,serif" font-size="14.00">saveName();</text>
</g>
<!-- LabaMap::ASG -->
<g id="node6" class="node">
<title>LabaMap::ASG</title>
<path fill="none" stroke="black" d="M479.44,-619.5C479.44,-619.5 563.44,-619.5 563.44,-619.5 569.44,-619.5 575.44,-625.5 575.44,-631.5 575.44,-631.5 575.44,-643.5 575.44,-643.5 575.44,-649.5 569.44,-655.5 563.44,-655.5 563.44,-655.5 479.44,-655.5 479.44,-655.5 473.44,-655.5 467.44,-649.5 467.44,-643.5 467.44,-643.5 467.44,-631.5 467.44,-631.5 467.44,-625.5 473.44,-619.5 479.44,-619.5"/>
<text text-anchor="middle" x="521.44" y="-633.8" font-family="Times,serif" font-size="14.00">ASG</text>
</g>
<!-- LabaMap::PreType&#45;&gt;LabaMap::ASG -->
<g id="edge15" class="edge">
<title>LabaMap::PreType&#45;&gt;LabaMap::ASG</title>
<path fill="none" stroke="black" d="M843.09,-951.26C848.4,-945.79 853.03,-939.7 856.44,-933 888.02,-870.82 884.5,-830.23 839.44,-777 774.22,-699.96 658.08,-664.43 585.66,-649.08"/>
<polygon fill="black" stroke="black" points="586.24,-645.63 575.74,-647.05 584.83,-652.48 586.24,-645.63"/>
<text text-anchor="start" x="860.44" y="-795.8" font-family="Times,serif" font-size="14.00">asg()/</text>
<text text-anchor="start" x="860.44" y="-780.8" font-family="Times,serif" font-size="14.00">saveName();</text>
</g>
<!-- LabaMap::OK -->
<g id="node10" class="node">
<title>LabaMap::OK</title>
<path fill="none" stroke="black" d="M1027.44,-264.5C1027.44,-264.5 1111.44,-264.5 1111.44,-264.5 1117.44,-264.5 1123.44,-270.5 1123.44,-276.5 1123.44,-276.5 1123.44,-288.5 1123.44,-288.5 1123.44,-294.5 1117.44,-300.5 1111.44,-300.5 1111.44,-300.5 1027.44,-300.5 1027.44,-300.5 1021.44,-300.5 1015.44,-294.5 1015.44,-288.5 1015.44,-288.5 1015.44,-276.5 1015.44,-276.5 1015.44,-270.5 1021.44,-264.5 1027.44,-264.5"/>
<text text-anchor="middle" x="1069.44" y="-278.8" font-family="Times,serif" font-size="14.00">OK</text>
</g>
<!-- LabaMap::PreType&#45;&gt;LabaMap::OK -->
<g id="edge17" class="edge">
<title>LabaMap::PreType&#45;&gt;LabaMap::OK</title>
<path fill="none" stroke="black" d="M847.46,-951.21C855.26,-945.59 862.79,-939.48 869.44,-933 917.44,-886.18 933.18,-871.23 952.44,-807 976.68,-726.14 870.06,-682.71 925.44,-619 963.13,-575.64 1006.08,-633.52 1053.44,-601 1132.65,-546.61 1134.33,-505.02 1158.44,-412 1169.17,-370.57 1163.3,-349.66 1133.44,-319 1128.73,-314.17 1123.23,-309.82 1117.45,-305.95"/>
<polygon fill="black" stroke="black" points="1119.21,-302.92 1108.87,-300.63 1115.53,-308.87 1119.21,-302.92"/>
<text text-anchor="start" x="925.44" y="-641.3" font-family="Times,serif" font-size="14.00">end()/</text>
<text text-anchor="start" x="925.44" y="-626.3" font-family="Times,serif" font-size="14.00">saveName();</text>
</g>
<!-- LabaMap::PreType&#45;&gt;LabaMap::Error -->
<g id="edge14" class="edge">
<title>LabaMap::PreType&#45;&gt;LabaMap::Error</title>
<path fill="none" stroke="black" d="M701.18,-985C565.38,-978.31 294.08,-961.77 203.44,-933 131.24,-910.09 55.44,-924.24 55.44,-848.5 55.44,-848.5 55.44,-848.5 55.44,-636.5 55.44,-449.61 -67.59,-358.41 53.44,-216 129.76,-126.19 499.69,-110.89 650.37,-108.42"/>
<polygon fill="black" stroke="black" points="650.46,-111.92 660.4,-108.27 650.35,-104.92 650.46,-111.92"/>
<text text-anchor="start" x="53.44" y="-589.8" font-family="Times,serif" font-size="14.00">asg()</text>
<text text-anchor="start" x="53.44" y="-574.8" font-family="Times,serif" font-size="14.00">[ctxt.nullGuard()]/</text>
<text text-anchor="start" x="53.44" y="-559.8" font-family="Times,serif" font-size="14.00">stop();</text>
</g>
<!-- LabaMap::PreType&#45;&gt;LabaMap::Error -->
<g id="edge16" class="edge">
<title>LabaMap::PreType&#45;&gt;LabaMap::Error</title>
<path fill="none" stroke="black" d="M701.2,-985.56C544.16,-977.57 208.44,-948.76 208.44,-848.5 208.44,-848.5 208.44,-848.5 208.44,-636.5 208.44,-617.96 199.75,-568.91 186.44,-556 161.82,-532.14 139.22,-558.09 111.44,-538 84.75,-518.71 81.7,-506.6 72.44,-475 40.05,-364.49 -0.17,-299.2 79.44,-216 157.2,-134.73 504.88,-114.5 650.23,-109.56"/>
<polygon fill="black" stroke="black" points="650.46,-113.05 660.34,-109.23 650.23,-106.05 650.46,-113.05"/>
<text text-anchor="start" x="203.44" y="-589.8" font-family="Times,serif" font-size="14.00">end()</text>
<text text-anchor="start" x="203.44" y="-574.8" font-family="Times,serif" font-size="14.00">[ctxt.nullGuard()]/</text>
<text text-anchor="start" x="203.44" y="-559.8" font-family="Times,serif" font-size="14.00">stop();</text>
</g>
<!-- LabaMap::PreType&#45;&gt;LabaMap::Error -->
<g id="edge18" class="edge">
<title>LabaMap::PreType&#45;&gt;LabaMap::Error</title>
<path fill="none" stroke="black" d="M859.46,-956.94C872.17,-950.05 884.67,-942.07 895.44,-933 921.75,-910.83 924.21,-900.34 940.44,-870 954.5,-843.7 1014.32,-640.05 1035.44,-619 1051.57,-602.91 1065.08,-614.5 1083.44,-601 1112.01,-579.98 1115.92,-569.39 1132.44,-538 1159.39,-486.77 1156.46,-469.19 1165.44,-412 1179.01,-325.58 1237.91,-284.45 1183.44,-216 1133.56,-153.33 895.36,-123.96 778.87,-113.16"/>
<polygon fill="black" stroke="black" points="778.94,-109.65 768.67,-112.23 778.31,-116.62 778.94,-109.65"/>
<text text-anchor="start" x="1122.44" y="-582.3" font-family="Times,serif" font-size="14.00">char()/</text>
<text text-anchor="start" x="1122.44" y="-567.3" font-family="Times,serif" font-size="14.00">stop();</text>
</g>
<!-- LabaMap::PreType&#45;&gt;LabaMap::Error -->
<g id="edge19" class="edge">
<title>LabaMap::PreType&#45;&gt;LabaMap::Error</title>
<path fill="none" stroke="black" d="M859.46,-966.8C879.91,-958.55 900.82,-947.52 917.44,-933 941.72,-911.78 939.34,-899 953.44,-870 966.6,-842.93 1031.82,-637.66 1055.44,-619 1096.72,-586.38 1135.86,-638.81 1172.44,-601 1198.62,-573.93 1213.04,-301.38 1208.44,-264 1205.75,-242.17 1212.18,-231.36 1196.44,-216 1137.53,-158.52 895.96,-126.52 778.78,-114.1"/>
<polygon fill="black" stroke="black" points="778.83,-110.59 768.52,-113.03 778.1,-117.55 778.83,-110.59"/>
<text text-anchor="start" x="1186.44" y="-582.3" font-family="Times,serif" font-size="14.00">num()/</text>
<text text-anchor="start" x="1186.44" y="-567.3" font-family="Times,serif" font-size="14.00">stop();</text>
</g>
<!-- LabaMap::PreName&#45;&gt;LabaMap::PreName -->
<g id="edge22" class="edge">
<title>LabaMap::PreName&#45;&gt;LabaMap::PreName</title>
<path fill="none" stroke="black" d="M522.44,-852.34C532.97,-851.78 540.44,-850.16 540.44,-847.5 540.44,-845.79 537.37,-844.52 532.4,-843.68"/>
<polygon fill="black" stroke="black" points="532.75,-840.19 522.44,-842.66 532.04,-847.16 532.75,-840.19"/>
<text text-anchor="start" x="540.44" y="-858.8" font-family="Times,serif" font-size="14.00">char()</text>
<text text-anchor="start" x="540.44" y="-843.8" font-family="Times,serif" font-size="14.00">[ctxt.nameGuard()]/</text>
<text text-anchor="start" x="540.44" y="-828.8" font-family="Times,serif" font-size="14.00">addC();</text>
</g>
<!-- LabaMap::PreName&#45;&gt;LabaMap::PreName -->
<g id="edge23" class="edge">
<title>LabaMap::PreName&#45;&gt;LabaMap::PreName</title>
<path fill="none" stroke="black" d="M522.51,-855.67C587.12,-859.94 682.44,-857.22 682.44,-847.5 682.44,-838.28 596.56,-835.36 532.58,-838.73"/>
<polygon fill="black" stroke="black" points="532.29,-835.24 522.51,-839.33 532.7,-842.23 532.29,-835.24"/>
<text text-anchor="start" x="682.44" y="-858.8" font-family="Times,serif" font-size="14.00">num()</text>
<text text-anchor="start" x="682.44" y="-843.8" font-family="Times,serif" font-size="14.00">[ctxt.nameGuard()]/</text>
<text text-anchor="start" x="682.44" y="-828.8" font-family="Times,serif" font-size="14.00">addC();</text>
</g>
<!-- LabaMap::PreName&#45;&gt;LabaMap::PreAsg -->
<g id="edge24" class="edge">
<title>LabaMap::PreName&#45;&gt;LabaMap::PreAsg</title>
<path fill="none" stroke="black" d="M414.22,-829.82C395.88,-823 378.69,-814.87 373.44,-807 365.67,-795.35 368.98,-780.42 374.76,-767.75"/>
<polygon fill="black" stroke="black" points="378.01,-769.09 379.52,-758.6 371.8,-765.86 378.01,-769.09"/>
<text text-anchor="start" x="373.44" y="-795.8" font-family="Times,serif" font-size="14.00">space()/</text>
<text text-anchor="start" x="373.44" y="-780.8" font-family="Times,serif" font-size="14.00">saveName();</text>
</g>
<!-- LabaMap::PreName&#45;&gt;LabaMap::ASG -->
<g id="edge21" class="edge">
<title>LabaMap::PreName&#45;&gt;LabaMap::ASG</title>
<path fill="none" stroke="black" d="M472.77,-829.48C481.96,-793.45 503.42,-709.21 514.52,-665.65"/>
<polygon fill="black" stroke="black" points="517.96,-666.31 517.04,-655.76 511.18,-664.58 517.96,-666.31"/>
<text text-anchor="start" x="498.44" y="-744.3" font-family="Times,serif" font-size="14.00">asg()/</text>
<text text-anchor="start" x="498.44" y="-729.3" font-family="Times,serif" font-size="14.00">saveName();</text>
</g>
<!-- LabaMap::PreName&#45;&gt;LabaMap::OK -->
<g id="edge20" class="edge">
<title>LabaMap::PreName&#45;&gt;LabaMap::OK</title>
<path fill="none" stroke="black" d="M499.04,-829.44C627.12,-757.74 1115.29,-481.21 1151.44,-412 1171.4,-373.78 1132.73,-332.16 1101.98,-306.94"/>
<polygon fill="black" stroke="black" points="1103.98,-304.07 1093.97,-300.59 1099.63,-309.55 1103.98,-304.07"/>
<text text-anchor="start" x="959.44" y="-582.3" font-family="Times,serif" font-size="14.00">end()/</text>
<text text-anchor="start" x="959.44" y="-567.3" font-family="Times,serif" font-size="14.00">saveName();</text>
</g>
<!-- LabaMap::PreName&#45;&gt;LabaMap::Error -->
<g id="edge25" class="edge">
<title>LabaMap::PreName&#45;&gt;LabaMap::Error</title>
<path fill="none" stroke="black" d="M469.05,-829.47C470.22,-791.85 471.96,-702.72 463.44,-674 459.07,-659.28 402.26,-566.9 391.44,-556 380.75,-545.23 369.81,-551.26 362.44,-538 362.44,-538 362.44,-430 362.44,-430 337.81,-402.54 223.95,-437.64 197.44,-412 150.12,-366.23 175.11,-327.77 191.44,-264 197.31,-241.08 195.87,-230.66 214.44,-216 281.57,-162.99 530.79,-128.61 650.04,-114.83"/>
<polygon fill="black" stroke="black" points="650.59,-118.29 660.13,-113.68 649.8,-111.34 650.59,-118.29"/>
<text text-anchor="start" x="362.44" y="-519.3" font-family="Times,serif" font-size="14.00">char()/</text>
<text text-anchor="start" x="362.44" y="-504.3" font-family="Times,serif" font-size="14.00">stop();</text>
</g>
<!-- LabaMap::PreName&#45;&gt;LabaMap::Error -->
<g id="edge26" class="edge">
<title>LabaMap::PreName&#45;&gt;LabaMap::Error</title>
<path fill="none" stroke="black" d="M421.85,-829.46C395.4,-819.68 367.02,-808.95 364.44,-807 343.13,-790.97 336.87,-784.3 328.44,-759 314.15,-716.14 369.74,-589.51 339.44,-556 312.62,-526.35 196.92,-554.36 160.44,-538 133.46,-525.9 134.7,-511.26 111.44,-493 100.09,-484.1 91.34,-487.66 84.44,-475 70.65,-449.72 72.74,-236.02 93.44,-216 172.18,-139.83 507.68,-116.74 650.09,-110.3"/>
<polygon fill="black" stroke="black" points="650.58,-113.78 660.41,-109.84 650.27,-106.79 650.58,-113.78"/>
<text text-anchor="start" x="160.44" y="-519.3" font-family="Times,serif" font-size="14.00">num()/</text>
<text text-anchor="start" x="160.44" y="-504.3" font-family="Times,serif" font-size="14.00">stop();</text>
</g>
<!-- LabaMap::PreAsg&#45;&gt;LabaMap::ASG -->
<g id="edge27" class="edge">
<title>LabaMap::PreAsg&#45;&gt;LabaMap::ASG</title>
<path fill="none" stroke="black" d="M409.61,-722.3C424.42,-708.62 446.14,-689.29 466.44,-674 472.24,-669.63 478.58,-665.23 484.82,-661.08"/>
<polygon fill="black" stroke="black" points="486.74,-664.01 493.21,-655.62 482.92,-658.14 486.74,-664.01"/>
<text text-anchor="start" x="466.44" y="-685.3" font-family="Times,serif" font-size="14.00">asg()/</text>
</g>
<!-- LabaMap::PreAsg&#45;&gt;LabaMap::Error -->
<g id="edge28" class="edge">
<title>LabaMap::PreAsg&#45;&gt;LabaMap::Error</title>
<path fill="none" stroke="black" d="M367.34,-722.28C361.81,-717.07 356.62,-710.88 353.44,-704 346.52,-689.06 357.06,-568.58 346.44,-556 322.37,-527.49 297.87,-554.57 264.44,-538 236.75,-524.28 239.52,-505.89 211.44,-493 164.82,-471.6 130.76,-514 97.44,-475 86.83,-462.59 68.58,-265.74 113.44,-216 184.26,-137.47 509.71,-115.75 649.9,-109.98"/>
<polygon fill="black" stroke="black" points="650.22,-113.47 660.07,-109.58 649.94,-106.48 650.22,-113.47"/>
<text text-anchor="start" x="97.44" y="-456.3" font-family="Times,serif" font-size="14.00">char()/</text>
<text text-anchor="start" x="97.44" y="-441.3" font-family="Times,serif" font-size="14.00">stop();</text>
</g>
<!-- LabaMap::PreAsg&#45;&gt;LabaMap::Error -->
<g id="edge29" class="edge">
<title>LabaMap::PreAsg&#45;&gt;LabaMap::Error</title>
<path fill="none" stroke="black" d="M381.26,-722.29C378.31,-716.64 375.37,-710.2 373.44,-704 363.57,-672.31 375.26,-581.01 353.44,-556 333.73,-533.41 314.42,-552.95 288.44,-538 263.65,-523.73 267.47,-506.84 242.44,-493 212.44,-476.42 194.37,-496.2 167.44,-475 149.79,-461.11 155.41,-449.6 144.44,-430 139.86,-421.82 135.98,-421.03 133.44,-412 109.84,-328.14 77.75,-282.99 133.44,-216 198.55,-137.66 512.23,-115.87 649.68,-110.04"/>
<polygon fill="black" stroke="black" points="650.21,-113.52 660.06,-109.62 649.92,-106.53 650.21,-113.52"/>
<text text-anchor="start" x="167.44" y="-456.3" font-family="Times,serif" font-size="14.00">num()/</text>
<text text-anchor="start" x="167.44" y="-441.3" font-family="Times,serif" font-size="14.00">stop();</text>
</g>
<!-- LabaMap::PreAsg&#45;&gt;LabaMap::Error -->
<g id="edge30" class="edge">
<title>LabaMap::PreAsg&#45;&gt;LabaMap::Error</title>
<path fill="none" stroke="black" d="M391.14,-722.38C390.11,-681.76 385.43,-581.05 364.44,-556 348.19,-536.61 331.56,-551.93 310.44,-538 288.1,-523.27 291.38,-509.65 270.44,-493 257.36,-482.6 249.09,-486.97 237.44,-475 221.77,-458.91 231.72,-444.34 214.44,-430 192.68,-411.95 170.36,-434.64 153.44,-412 127.36,-377.11 125.7,-249.58 153.44,-216 215.84,-140.44 516.15,-117.18 649.92,-110.5"/>
<polygon fill="black" stroke="black" points="650.21,-113.99 660.03,-110.01 649.87,-107 650.21,-113.99"/>
<text text-anchor="start" x="237.44" y="-456.3" font-family="Times,serif" font-size="14.00">end()/</text>
<text text-anchor="start" x="237.44" y="-441.3" font-family="Times,serif" font-size="14.00">stop();</text>
</g>
<!-- LabaMap::PreAsg&#45;&gt;LabaMap::Error -->
<g id="edge31" class="edge">
<title>LabaMap::PreAsg&#45;&gt;LabaMap::Error</title>
<path fill="none" stroke="black" d="M395.65,-722.39C403.24,-687.13 415.09,-605.51 376.44,-556 365.43,-541.9 353.28,-550.45 340.44,-538 317.59,-515.86 321.23,-503.17 306.44,-475 295.99,-455.12 301.58,-443.24 283.44,-430 243.42,-400.8 205.51,-449.75 173.44,-412 145.24,-378.81 145.82,-249.68 173.44,-216 233.09,-143.26 519.72,-118.56 649.88,-111.01"/>
<polygon fill="black" stroke="black" points="650.32,-114.49 660.1,-110.43 649.92,-107.5 650.32,-114.49"/>
<text text-anchor="start" x="306.44" y="-456.3" font-family="Times,serif" font-size="14.00">space()/</text>
<text text-anchor="start" x="306.44" y="-441.3" font-family="Times,serif" font-size="14.00">stop();</text>
</g>
<!-- LabaMap::PreVar -->
<g id="node7" class="node">
<title>LabaMap::PreVar</title>
<path fill="none" stroke="black" d="M479.44,-497.5C479.44,-497.5 563.44,-497.5 563.44,-497.5 569.44,-497.5 575.44,-503.5 575.44,-509.5 575.44,-509.5 575.44,-521.5 575.44,-521.5 575.44,-527.5 569.44,-533.5 563.44,-533.5 563.44,-533.5 479.44,-533.5 479.44,-533.5 473.44,-533.5 467.44,-527.5 467.44,-521.5 467.44,-521.5 467.44,-509.5 467.44,-509.5 467.44,-503.5 473.44,-497.5 479.44,-497.5"/>
<text text-anchor="middle" x="521.44" y="-511.8" font-family="Times,serif" font-size="14.00">PreVar</text>
</g>
<!-- LabaMap::ASG&#45;&gt;LabaMap::PreVar -->
<g id="edge32" class="edge">
<title>LabaMap::ASG&#45;&gt;LabaMap::PreVar</title>
<path fill="none" stroke="black" d="M521.44,-619.31C521.44,-599.61 521.44,-567.08 521.44,-543.89"/>
<polygon fill="black" stroke="black" points="524.94,-543.66 521.44,-533.66 517.94,-543.66 524.94,-543.66"/>
<text text-anchor="start" x="521.44" y="-574.8" font-family="Times,serif" font-size="14.00">space()/</text>
</g>
<!-- LabaMap::VarNum -->
<g id="node8" class="node">
<title>LabaMap::VarNum</title>
<path fill="none" stroke="black" d="M433.44,-371.5C433.44,-371.5 517.44,-371.5 517.44,-371.5 523.44,-371.5 529.44,-377.5 529.44,-383.5 529.44,-383.5 529.44,-395.5 529.44,-395.5 529.44,-401.5 523.44,-407.5 517.44,-407.5 517.44,-407.5 433.44,-407.5 433.44,-407.5 427.44,-407.5 421.44,-401.5 421.44,-395.5 421.44,-395.5 421.44,-383.5 421.44,-383.5 421.44,-377.5 427.44,-371.5 433.44,-371.5"/>
<text text-anchor="middle" x="475.44" y="-385.8" font-family="Times,serif" font-size="14.00">VarNum</text>
</g>
<!-- LabaMap::ASG&#45;&gt;LabaMap::VarNum -->
<g id="edge33" class="edge">
<title>LabaMap::ASG&#45;&gt;LabaMap::VarNum</title>
<path fill="none" stroke="black" d="M556.44,-619.39C623.89,-584.22 760.16,-501.12 700.44,-430 695.21,-423.77 604.36,-409.32 539.73,-399.73"/>
<polygon fill="black" stroke="black" points="540,-396.23 529.6,-398.23 538.98,-403.16 540,-396.23"/>
<text text-anchor="start" x="708.44" y="-519.3" font-family="Times,serif" font-size="14.00">num()/</text>
<text text-anchor="start" x="708.44" y="-504.3" font-family="Times,serif" font-size="14.00">addC();</text>
</g>
<!-- LabaMap::VarName -->
<g id="node9" class="node">
<title>LabaMap::VarName</title>
<path fill="none" stroke="black" d="M649.44,-371.5C649.44,-371.5 733.44,-371.5 733.44,-371.5 739.44,-371.5 745.44,-377.5 745.44,-383.5 745.44,-383.5 745.44,-395.5 745.44,-395.5 745.44,-401.5 739.44,-407.5 733.44,-407.5 733.44,-407.5 649.44,-407.5 649.44,-407.5 643.44,-407.5 637.44,-401.5 637.44,-395.5 637.44,-395.5 637.44,-383.5 637.44,-383.5 637.44,-377.5 643.44,-371.5 649.44,-371.5"/>
<text text-anchor="middle" x="691.44" y="-385.8" font-family="Times,serif" font-size="14.00">VarName</text>
</g>
<!-- LabaMap::ASG&#45;&gt;LabaMap::VarName -->
<g id="edge34" class="edge">
<title>LabaMap::ASG&#45;&gt;LabaMap::VarName</title>
<path fill="none" stroke="black" d="M575.57,-632.09C633.87,-624.08 723.73,-601.53 764.44,-538 790.87,-496.75 749.14,-444.59 718.71,-414.63"/>
<polygon fill="black" stroke="black" points="720.91,-411.9 711.26,-407.52 716.07,-416.96 720.91,-411.9"/>
<text text-anchor="start" x="772.44" y="-526.8" font-family="Times,serif" font-size="14.00">char()</text>
<text text-anchor="start" x="772.44" y="-511.8" font-family="Times,serif" font-size="14.00">[ctxt.nameGuard()]/</text>
<text text-anchor="start" x="772.44" y="-496.8" font-family="Times,serif" font-size="14.00">addC();</text>
</g>
<!-- LabaMap::ASG&#45;&gt;LabaMap::Error -->
<g id="edge35" class="edge">
<title>LabaMap::ASG&#45;&gt;LabaMap::Error</title>
<path fill="none" stroke="black" d="M575.85,-633.53C691.63,-623.91 961.03,-583.28 1074.44,-412 1097.68,-376.9 1118.98,-351.68 1092.44,-319 1067.81,-288.69 1043.87,-312.12 1006.44,-301 963,-288.09 954.14,-279.16 911.44,-264 886.8,-255.25 876.48,-261.52 855.44,-246 842.34,-236.34 845.22,-228.19 834.44,-216 816.81,-196.08 795.76,-176.09 776.25,-158.81"/>
<polygon fill="black" stroke="black" points="778.4,-156.04 768.57,-152.08 773.79,-161.31 778.4,-156.04"/>
<text text-anchor="start" x="1100.44" y="-393.3" font-family="Times,serif" font-size="14.00">char()/</text>
<text text-anchor="start" x="1100.44" y="-378.3" font-family="Times,serif" font-size="14.00">stop();</text>
</g>
<!-- LabaMap::ASG&#45;&gt;LabaMap::Error -->
<g id="edge36" class="edge">
<title>LabaMap::ASG&#45;&gt;LabaMap::Error</title>
<path fill="none" stroke="black" d="M467.26,-619.41C458.34,-614.62 449.91,-608.58 443.44,-601 411.07,-563.13 444.66,-531.82 413.44,-493 402.72,-479.68 389.8,-488.6 379.44,-475 367.02,-458.71 384.57,-443.81 369.44,-430 323.11,-387.7 270.87,-459.1 229.44,-412 199.95,-378.48 159.77,-310.48 241.44,-216 294.24,-154.92 533.23,-124.75 649.92,-113.46"/>
<polygon fill="black" stroke="black" points="650.52,-116.91 660.15,-112.48 649.86,-109.95 650.52,-116.91"/>
<text text-anchor="start" x="229.44" y="-393.3" font-family="Times,serif" font-size="14.00">end()/</text>
<text text-anchor="start" x="229.44" y="-378.3" font-family="Times,serif" font-size="14.00">stop();</text>
</g>
<!-- LabaMap::ASG&#45;&gt;LabaMap::Error -->
<g id="edge37" class="edge">
<title>LabaMap::ASG&#45;&gt;LabaMap::Error</title>
<path fill="none" stroke="black" d="M510.8,-619.5C488.24,-583.62 436.75,-502.66 425.44,-493 410.92,-480.6 398.42,-489.86 386.44,-475 373.58,-459.05 390.89,-444.53 376.44,-430 351.04,-404.47 325.66,-434.36 297.44,-412 279.99,-398.17 286.88,-386.09 275.44,-367 270.36,-358.54 265.47,-358.39 262.44,-349 250.73,-312.81 259.82,-299.88 272.44,-264 280.49,-241.11 279.33,-230.96 298.44,-216 402.57,-134.48 561.91,-114.07 650.1,-109.23"/>
<polygon fill="black" stroke="black" points="650.42,-112.72 660.23,-108.72 650.07,-105.73 650.42,-112.72"/>
<text text-anchor="start" x="297.44" y="-393.3" font-family="Times,serif" font-size="14.00">asg()/</text>
<text text-anchor="start" x="297.44" y="-378.3" font-family="Times,serif" font-size="14.00">stop();</text>
</g>
<!-- LabaMap::PreVar&#45;&gt;LabaMap::VarNum -->
<g id="edge38" class="edge">
<title>LabaMap::PreVar&#45;&gt;LabaMap::VarNum</title>
<path fill="none" stroke="black" d="M494.62,-497.34C487.37,-491.23 480.43,-483.69 476.44,-475 468.21,-457.12 468.33,-434.77 470.31,-417.55"/>
<polygon fill="black" stroke="black" points="473.79,-417.97 471.73,-407.58 466.86,-416.99 473.79,-417.97"/>
<text text-anchor="start" x="476.44" y="-456.3" font-family="Times,serif" font-size="14.00">num()/</text>
<text text-anchor="start" x="476.44" y="-441.3" font-family="Times,serif" font-size="14.00">addC();</text>
</g>
<!-- LabaMap::PreVar&#45;&gt;LabaMap::VarName -->
<g id="edge39" class="edge">
<title>LabaMap::PreVar&#45;&gt;LabaMap::VarName</title>
<path fill="none" stroke="black" d="M545.08,-497.26C574.89,-475.51 626.27,-438.03 659.54,-413.76"/>
<polygon fill="black" stroke="black" points="661.98,-416.32 668,-407.6 657.86,-410.66 661.98,-416.32"/>
<text text-anchor="start" x="636.44" y="-463.8" font-family="Times,serif" font-size="14.00">char()</text>
<text text-anchor="start" x="636.44" y="-448.8" font-family="Times,serif" font-size="14.00">[ctxt.nameGuard()]/</text>
<text text-anchor="start" x="636.44" y="-433.8" font-family="Times,serif" font-size="14.00">addC();</text>
</g>
<!-- LabaMap::PreVar&#45;&gt;LabaMap::Error -->
<g id="edge40" class="edge">
<title>LabaMap::PreVar&#45;&gt;LabaMap::Error</title>
<path fill="none" stroke="black" d="M492.58,-497.37C466.05,-479.76 428.49,-449.63 412.44,-412 399.48,-381.63 393.25,-296.43 399.44,-264 403.74,-241.46 402,-232 418.44,-216 482.2,-153.94 584.42,-127.15 650.5,-115.85"/>
<polygon fill="black" stroke="black" points="651.08,-119.31 660.38,-114.23 649.95,-112.4 651.08,-119.31"/>
<text text-anchor="start" x="399.44" y="-337.8" font-family="Times,serif" font-size="14.00">char()/</text>
<text text-anchor="start" x="399.44" y="-322.8" font-family="Times,serif" font-size="14.00">stop();</text>
</g>
<!-- LabaMap::PreVar&#45;&gt;LabaMap::Error -->
<g id="edge41" class="edge">
<title>LabaMap::PreVar&#45;&gt;LabaMap::Error</title>
<path fill="none" stroke="black" d="M528.06,-497.28C535.96,-478.65 550.76,-449.06 571.44,-430 584.88,-417.61 596.52,-425.87 608.44,-412 622.55,-395.58 630.5,-339.51 637.44,-319 649.83,-282.36 664.17,-242.45 677.1,-207.29"/>
<polygon fill="black" stroke="black" points="680.53,-208.1 680.71,-197.51 673.96,-205.68 680.53,-208.1"/>
<text text-anchor="start" x="637.44" y="-337.8" font-family="Times,serif" font-size="14.00">end()/</text>
<text text-anchor="start" x="637.44" y="-322.8" font-family="Times,serif" font-size="14.00">stop();</text>
</g>
<!-- LabaMap::PreVar&#45;&gt;LabaMap::Error -->
<g id="edge42" class="edge">
<title>LabaMap::PreVar&#45;&gt;LabaMap::Error</title>
<path fill="none" stroke="black" d="M467.64,-497.41C462.84,-495.91 458.05,-494.42 453.44,-493 426.83,-484.8 412.39,-495.39 393.44,-475 379.49,-460 390.83,-449.11 383.44,-430 371.81,-399.92 373.26,-386.31 347.44,-367 319.64,-346.21 292.97,-376.23 271.44,-349 263.17,-338.54 267.82,-331.83 271.44,-319 285.98,-267.35 291.7,-248.45 334.44,-216 428.86,-144.31 569.02,-120.19 650.1,-112.09"/>
<polygon fill="black" stroke="black" points="650.55,-115.56 660.18,-111.14 649.89,-108.6 650.55,-115.56"/>
<text text-anchor="start" x="271.44" y="-337.8" font-family="Times,serif" font-size="14.00">asg()/</text>
<text text-anchor="start" x="271.44" y="-322.8" font-family="Times,serif" font-size="14.00">stop();</text>
</g>
<!-- LabaMap::PreVar&#45;&gt;LabaMap::Error -->
<g id="edge43" class="edge">
<title>LabaMap::PreVar&#45;&gt;LabaMap::Error</title>
<path fill="none" stroke="black" d="M467.26,-497.77C446.66,-490.58 426.26,-482.2 418.44,-475 379.24,-438.92 402.04,-406.63 366.44,-367 356.3,-355.72 344.81,-362.26 337.44,-349 330.96,-337.35 333.91,-331.86 337.44,-319 351.49,-267.69 357.16,-249.57 398.44,-216 472.24,-155.98 581.25,-128.53 650.02,-116.56"/>
<polygon fill="black" stroke="black" points="651,-119.94 660.28,-114.84 649.84,-113.04 651,-119.94"/>
<text text-anchor="start" x="337.44" y="-337.8" font-family="Times,serif" font-size="14.00">space()/</text>
<text text-anchor="start" x="337.44" y="-322.8" font-family="Times,serif" font-size="14.00">stop();</text>
</g>
<!-- LabaMap::VarNum&#45;&gt;LabaMap::VarNum -->
<g id="edge44" class="edge">
<title>LabaMap::VarNum&#45;&gt;LabaMap::VarNum</title>
<path fill="none" stroke="black" d="M529.44,-399.17C539.97,-398.05 547.44,-394.83 547.44,-389.5 547.44,-386.09 544.37,-383.54 539.4,-381.85"/>
<polygon fill="black" stroke="black" points="539.94,-378.39 529.44,-379.83 538.55,-385.25 539.94,-378.39"/>
<text text-anchor="start" x="547.44" y="-393.3" font-family="Times,serif" font-size="14.00">num()/</text>
<text text-anchor="start" x="547.44" y="-378.3" font-family="Times,serif" font-size="14.00">addC();</text>
</g>
<!-- LabaMap::VarNum&#45;&gt;LabaMap::OK -->
<g id="edge45" class="edge">
<title>LabaMap::VarNum&#45;&gt;LabaMap::OK</title>
<path fill="none" stroke="black" d="M529.81,-379.56C622.57,-364.2 817.31,-331.5 981.44,-301 989.08,-299.58 997.09,-298.05 1005.03,-296.5"/>
<polygon fill="black" stroke="black" points="1005.88,-299.9 1015.02,-294.54 1004.54,-293.03 1005.88,-299.9"/>
<text text-anchor="start" x="870.44" y="-330.3" font-family="Times,serif" font-size="14.00">end()/</text>
</g>
<!-- LabaMap::VarNum&#45;&gt;LabaMap::Error -->
<g id="edge46" class="edge">
<title>LabaMap::VarNum&#45;&gt;LabaMap::Error</title>
<path fill="none" stroke="black" d="M490.03,-371.38C521.78,-334.11 598.68,-243.85 653.6,-179.4"/>
<polygon fill="black" stroke="black" points="656.37,-181.55 660.19,-171.67 651.04,-177.01 656.37,-181.55"/>
<text text-anchor="start" x="578.44" y="-286.3" font-family="Times,serif" font-size="14.00">char()/</text>
<text text-anchor="start" x="578.44" y="-271.3" font-family="Times,serif" font-size="14.00">stop();</text>
</g>
<!-- LabaMap::VarNum&#45;&gt;LabaMap::Error -->
<g id="edge47" class="edge">
<title>LabaMap::VarNum&#45;&gt;LabaMap::Error</title>
<path fill="none" stroke="black" d="M475.27,-371.32C474.74,-353.36 472.86,-326.71 466.44,-319 449.71,-298.91 425.84,-322.13 410.44,-301 400.75,-287.71 403.14,-278.74 410.44,-264 455.35,-173.32 575.4,-134.22 650.5,-118.22"/>
<polygon fill="black" stroke="black" points="651.24,-121.65 660.33,-116.21 649.83,-114.79 651.24,-121.65"/>
<text text-anchor="start" x="410.44" y="-286.3" font-family="Times,serif" font-size="14.00">asg()/</text>
<text text-anchor="start" x="410.44" y="-271.3" font-family="Times,serif" font-size="14.00">stop();</text>
</g>
<!-- LabaMap::VarNum&#45;&gt;LabaMap::Error -->
<g id="edge48" class="edge">
<title>LabaMap::VarNum&#45;&gt;LabaMap::Error</title>
<path fill="none" stroke="black" d="M475.94,-371.47C477.1,-341.71 480.72,-281.71 491.44,-264 528.35,-202.98 599.26,-159.69 651.24,-134.43"/>
<polygon fill="black" stroke="black" points="652.86,-137.53 660.39,-130.07 649.85,-131.21 652.86,-137.53"/>
<text text-anchor="start" x="491.44" y="-286.3" font-family="Times,serif" font-size="14.00">space()/</text>
<text text-anchor="start" x="491.44" y="-271.3" font-family="Times,serif" font-size="14.00">stop();</text>
</g>
<!-- LabaMap::VarName&#45;&gt;LabaMap::VarName -->
<g id="edge49" class="edge">
<title>LabaMap::VarName&#45;&gt;LabaMap::VarName</title>
<path fill="none" stroke="black" d="M745.44,-394.34C755.97,-393.78 763.44,-392.16 763.44,-389.5 763.44,-387.79 760.37,-386.52 755.4,-385.68"/>
<polygon fill="black" stroke="black" points="755.75,-382.19 745.44,-384.66 755.04,-389.16 755.75,-382.19"/>
<text text-anchor="start" x="763.44" y="-400.8" font-family="Times,serif" font-size="14.00">num()</text>
<text text-anchor="start" x="763.44" y="-385.8" font-family="Times,serif" font-size="14.00">[ctxt.nameGuard()]/</text>
<text text-anchor="start" x="763.44" y="-370.8" font-family="Times,serif" font-size="14.00">addC();</text>
</g>
<!-- LabaMap::VarName&#45;&gt;LabaMap::VarName -->
<g id="edge50" class="edge">
<title>LabaMap::VarName&#45;&gt;LabaMap::VarName</title>
<path fill="none" stroke="black" d="M745.51,-397.67C810.12,-401.94 905.44,-399.22 905.44,-389.5 905.44,-380.28 819.56,-377.36 755.58,-380.73"/>
<polygon fill="black" stroke="black" points="755.29,-377.24 745.51,-381.33 755.7,-384.23 755.29,-377.24"/>
<text text-anchor="start" x="905.44" y="-400.8" font-family="Times,serif" font-size="14.00">char()</text>
<text text-anchor="start" x="905.44" y="-385.8" font-family="Times,serif" font-size="14.00">[ctxt.nameGuard()]/</text>
<text text-anchor="start" x="905.44" y="-370.8" font-family="Times,serif" font-size="14.00">addC();</text>
</g>
<!-- LabaMap::VarName&#45;&gt;LabaMap::OK -->
<g id="edge51" class="edge">
<title>LabaMap::VarName&#45;&gt;LabaMap::OK</title>
<path fill="none" stroke="black" d="M745.47,-386.65C825.06,-383.14 969.25,-373.51 1014.44,-349 1031.3,-339.85 1045.15,-323.26 1054.73,-309.06"/>
<polygon fill="black" stroke="black" points="1057.69,-310.93 1060.14,-300.62 1051.8,-307.15 1057.69,-310.93"/>
<text text-anchor="start" x="1046.44" y="-330.3" font-family="Times,serif" font-size="14.00">end()/</text>
</g>
<!-- LabaMap::VarName&#45;&gt;LabaMap::Error -->
<g id="edge52" class="edge">
<title>LabaMap::VarName&#45;&gt;LabaMap::Error</title>
<path fill="none" stroke="black" d="M690.42,-371.41C689.43,-353.77 688,-325.48 687.44,-301 687.06,-284.56 686.03,-280.38 687.44,-264 689.01,-245.66 691.61,-226.24 694.59,-207.56"/>
<polygon fill="black" stroke="black" points="698.06,-208.01 696.23,-197.57 691.16,-206.88 698.06,-208.01"/>
<text text-anchor="start" x="687.44" y="-286.3" font-family="Times,serif" font-size="14.00">char()/</text>
<text text-anchor="start" x="687.44" y="-271.3" font-family="Times,serif" font-size="14.00">stop();</text>
</g>
<!-- LabaMap::VarName&#45;&gt;LabaMap::Error -->
<g id="edge53" class="edge">
<title>LabaMap::VarName&#45;&gt;LabaMap::Error</title>
<path fill="none" stroke="black" d="M702.86,-371.3C713.42,-354.27 728.38,-327.05 734.44,-301 741.39,-271.08 740.85,-237.98 737.28,-207.77"/>
<polygon fill="black" stroke="black" points="740.72,-207.11 735.96,-197.65 733.78,-208.02 740.72,-207.11"/>
<text text-anchor="start" x="738.44" y="-286.3" font-family="Times,serif" font-size="14.00">num()/</text>
<text text-anchor="start" x="738.44" y="-271.3" font-family="Times,serif" font-size="14.00">stop();</text>
</g>
<!-- LabaMap::VarName&#45;&gt;LabaMap::Error -->
<g id="edge54" class="edge">
<title>LabaMap::VarName&#45;&gt;LabaMap::Error</title>
<path fill="none" stroke="black" d="M721.68,-371.37C745.04,-356.24 775.64,-331.81 789.44,-301 806.16,-263.65 793.18,-221.34 773.6,-185.88"/>
<polygon fill="black" stroke="black" points="776.52,-183.94 768.49,-177.02 770.45,-187.43 776.52,-183.94"/>
<text text-anchor="start" x="796.44" y="-286.3" font-family="Times,serif" font-size="14.00">asg()/</text>
<text text-anchor="start" x="796.44" y="-271.3" font-family="Times,serif" font-size="14.00">stop();</text>
</g>
<!-- LabaMap::VarName&#45;&gt;LabaMap::Error -->
<g id="edge55" class="edge">
<title>LabaMap::VarName&#45;&gt;LabaMap::Error</title>
<path fill="none" stroke="black" d="M745.52,-374.05C781.37,-361.29 825.52,-338.69 846.44,-301 854.42,-286.62 852.09,-279.44 846.44,-264 832.1,-224.86 803.11,-188.78 775.95,-161.2"/>
<polygon fill="black" stroke="black" points="778.28,-158.59 768.72,-154.02 773.35,-163.55 778.28,-158.59"/>
<text text-anchor="start" x="851.44" y="-286.3" font-family="Times,serif" font-size="14.00">space()/</text>
<text text-anchor="start" x="851.44" y="-271.3" font-family="Times,serif" font-size="14.00">stop();</text>
</g>
<!-- LabaMap::OK&#45;&gt;LabaMap::Error -->
<g id="edge56" class="edge">
<title>LabaMap::OK&#45;&gt;LabaMap::Error</title>
<path fill="none" stroke="black" d="M1044.58,-264.19C1037.44,-258.73 1029.85,-252.43 1023.44,-246 1011.58,-234.1 1013.92,-226.02 1000.44,-216 933.14,-166.01 840,-136.59 778.54,-121.39"/>
<polygon fill="black" stroke="black" points="779.12,-117.93 768.58,-118.98 777.48,-124.74 779.12,-117.93"/>
<text text-anchor="start" x="1023.44" y="-234.8" font-family="Times,serif" font-size="14.00">char()/</text>
<text text-anchor="start" x="1023.44" y="-219.8" font-family="Times,serif" font-size="14.00">stop();</text>
</g>
<!-- LabaMap::OK&#45;&gt;LabaMap::Error -->
<g id="edge57" class="edge">
<title>LabaMap::OK&#45;&gt;LabaMap::Error</title>
<path fill="none" stroke="black" d="M1074.97,-264.44C1078.48,-250.1 1080.67,-229.79 1070.44,-216 1035.58,-169 871.7,-134.42 778.92,-118.23"/>
<polygon fill="black" stroke="black" points="779.24,-114.74 768.79,-116.49 778.05,-121.64 779.24,-114.74"/>
<text text-anchor="start" x="1077.44" y="-234.8" font-family="Times,serif" font-size="14.00">num()/</text>
<text text-anchor="start" x="1077.44" y="-219.8" font-family="Times,serif" font-size="14.00">stop();</text>
</g>
<!-- LabaMap::OK&#45;&gt;LabaMap::Error -->
<g id="edge58" class="edge">
<title>LabaMap::OK&#45;&gt;LabaMap::Error</title>
<path fill="none" stroke="black" d="M1110.5,-264.46C1117.68,-259.58 1124.2,-253.49 1128.44,-246 1135,-234.39 1136.59,-226.55 1128.44,-216 1085.92,-160.96 884.07,-128.65 778.75,-115.27"/>
<polygon fill="black" stroke="black" points="778.92,-111.77 768.56,-114 778.05,-118.71 778.92,-111.77"/>
<text text-anchor="start" x="1133.44" y="-234.8" font-family="Times,serif" font-size="14.00">end()/</text>
<text text-anchor="start" x="1133.44" y="-219.8" font-family="Times,serif" font-size="14.00">stop();</text>
</g>
<!-- LabaMap::OK&#45;&gt;LabaMap::Error -->
<g id="edge59" class="edge">
<title>LabaMap::OK&#45;&gt;LabaMap::Error</title>
<path fill="none" stroke="black" d="M1015.37,-267.01C1010.67,-265.93 1005.98,-264.91 1001.44,-264 945.96,-252.93 924.26,-274.56 875.44,-246 860.94,-237.52 864.26,-227.94 852.44,-216 829.46,-192.79 801.48,-170.05 776.74,-151.47"/>
<polygon fill="black" stroke="black" points="778.6,-148.49 768.48,-145.34 774.42,-154.11 778.6,-148.49"/>
<text text-anchor="start" x="875.44" y="-234.8" font-family="Times,serif" font-size="14.00">asg()/</text>
<text text-anchor="start" x="875.44" y="-219.8" font-family="Times,serif" font-size="14.00">stop();</text>
</g>
<!-- LabaMap::OK&#45;&gt;LabaMap::Error -->
<g id="edge60" class="edge">
<title>LabaMap::OK&#45;&gt;LabaMap::Error</title>
<path fill="none" stroke="black" d="M1015.26,-267.54C981.43,-258.66 943.68,-248.4 940.44,-246 927.75,-236.61 933.05,-226.68 921.44,-216 879.74,-177.66 821.88,-148.99 777.94,-130.87"/>
<polygon fill="black" stroke="black" points="779.08,-127.55 768.5,-127.05 776.45,-134.04 779.08,-127.55"/>
<text text-anchor="start" x="940.44" y="-234.8" font-family="Times,serif" font-size="14.00">space()/</text>
<text text-anchor="start" x="940.44" y="-219.8" font-family="Times,serif" font-size="14.00">stop();</text>
</g>
<!-- %3 -->
<g id="node12" class="node">
<title>%3</title>
<ellipse fill="black" stroke="black" cx="1174.44" cy="-1280" rx="9" ry="9"/>
</g>
<!-- %3&#45;&gt;LabaMap::Start -->
<g id="edge61" class="edge">
<title>%3&#45;&gt;LabaMap::Start</title>
<path fill="none" stroke="black" d="M1174.44,-1270.83C1174.44,-1263.93 1174.44,-1253.63 1174.44,-1243.86"/>
<polygon fill="black" stroke="black" points="1177.94,-1243.64 1174.44,-1233.64 1170.94,-1243.64 1177.94,-1243.64"/>
</g>
</g>
</svg>
