<?xml version="1.0" encoding="UTF-8" standalone="no"?>
<!DOCTYPE svg PUBLIC "-//W3C//DTD SVG 1.1//EN"
 "http://www.w3.org/Graphics/SVG/1.1/DTD/svg11.dtd">
<!-- Generated by graphviz version 2.43.0 (0)
 -->
<!-- Title: laba1 Pages: 1 -->
<svg width="1153pt" height="947pt"
 viewBox="0.00 0.00 1153.40 947.00" xmlns="http://www.w3.org/2000/svg" xmlns:xlink="http://www.w3.org/1999/xlink">
<g id="graph0" class="graph" transform="scale(1 1) rotate(0) translate(4 943)">
<title>laba1</title>
<polygon fill="white" stroke="transparent" points="-4,4 -4,-943 1149.4,-943 1149.4,4 -4,4"/>
<g id="clust1" class="cluster">
<title>cluster_LabaMap</title>
<polygon fill="none" stroke="black" points="18.4,-8 18.4,-931 1137.4,-931 1137.4,-8 18.4,-8"/>
<text text-anchor="middle" x="577.9" y="-915.8" font-family="Times,serif" font-size="14.00">LabaMap</text>
</g>
<!-- LabaMap::Start -->
<g id="node1" class="node">
<title>LabaMap::Start</title>
<path fill="none" stroke="black" d="M934.4,-808.5C934.4,-808.5 1018.4,-808.5 1018.4,-808.5 1024.4,-808.5 1030.4,-814.5 1030.4,-820.5 1030.4,-820.5 1030.4,-832.5 1030.4,-832.5 1030.4,-838.5 1024.4,-844.5 1018.4,-844.5 1018.4,-844.5 934.4,-844.5 934.4,-844.5 928.4,-844.5 922.4,-838.5 922.4,-832.5 922.4,-832.5 922.4,-820.5 922.4,-820.5 922.4,-814.5 928.4,-808.5 934.4,-808.5"/>
<text text-anchor="middle" x="976.4" y="-822.8" font-family="Times,serif" font-size="14.00">Start</text>
</g>
<!-- LabaMap::Line -->
<g id="node2" class="node">
<title>LabaMap::Line</title>
<path fill="none" stroke="black" d="M771.4,-720.5C771.4,-720.5 855.4,-720.5 855.4,-720.5 861.4,-720.5 867.4,-726.5 867.4,-732.5 867.4,-732.5 867.4,-744.5 867.4,-744.5 867.4,-750.5 861.4,-756.5 855.4,-756.5 855.4,-756.5 771.4,-756.5 771.4,-756.5 765.4,-756.5 759.4,-750.5 759.4,-744.5 759.4,-744.5 759.4,-732.5 759.4,-732.5 759.4,-726.5 765.4,-720.5 771.4,-720.5"/>
<text text-anchor="middle" x="813.4" y="-734.8" font-family="Times,serif" font-size="14.00">Line</text>
</g>
<!-- LabaMap::Start&#45;&gt;LabaMap::Line -->
<g id="edge1" class="edge">
<title>LabaMap::Start&#45;&gt;LabaMap::Line</title>
<path fill="none" stroke="black" d="M937.26,-808.36C925.01,-802.76 911.53,-796.34 899.4,-790 882.72,-781.29 864.71,-770.87 849.5,-761.77"/>
<polygon fill="black" stroke="black" points="851.27,-758.75 840.9,-756.58 847.65,-764.74 851.27,-758.75"/>
<text text-anchor="start" x="899.4" y="-778.8" font-family="Times,serif" font-size="14.00">num/</text>
</g>
<!-- LabaMap::Error -->
<g id="node11" class="node">
<title>LabaMap::Error</title>
<path fill="none" stroke="black" d="M539.4,-16.5C539.4,-16.5 623.4,-16.5 623.4,-16.5 629.4,-16.5 635.4,-22.5 635.4,-28.5 635.4,-28.5 635.4,-40.5 635.4,-40.5 635.4,-46.5 629.4,-52.5 623.4,-52.5 623.4,-52.5 539.4,-52.5 539.4,-52.5 533.4,-52.5 527.4,-46.5 527.4,-40.5 527.4,-40.5 527.4,-28.5 527.4,-28.5 527.4,-22.5 533.4,-16.5 539.4,-16.5"/>
<text text-anchor="middle" x="581.4" y="-30.8" font-family="Times,serif" font-size="14.00">Error</text>
</g>
<!-- LabaMap::Start&#45;&gt;LabaMap::Error -->
<g id="edge2" class="edge">
<title>LabaMap::Start&#45;&gt;LabaMap::Error</title>
<path fill="none" stroke="black" d="M972.3,-808.14C955.16,-734.75 891.38,-452.43 917.4,-423 960.71,-374.02 1018.14,-452.18 1063.4,-405 1082.39,-385.21 1068.4,-370.92 1068.4,-343.5 1068.4,-343.5 1068.4,-343.5 1068.4,-121.5 1068.4,-113.17 1039.07,-79.02 1022.4,-71 957.59,-39.82 751.62,-35.26 645.69,-35.06"/>
<polygon fill="black" stroke="black" points="645.45,-31.56 635.45,-35.05 645.45,-38.56 645.45,-31.56"/>
<text text-anchor="start" x="917.4" y="-426.8" font-family="Times,serif" font-size="14.00">char/</text>
</g>
<!-- LabaMap::Start&#45;&gt;LabaMap::Error -->
<g id="edge3" class="edge">
<title>LabaMap::Start&#45;&gt;LabaMap::Error</title>
<path fill="none" stroke="black" d="M976.4,-808.37C976.4,-791.01 976.4,-763.39 976.4,-739.5 976.4,-739.5 976.4,-739.5 976.4,-473.5 976.4,-451.05 962.91,-440.15 977.4,-423 1005.14,-390.18 1041.01,-434.35 1072.4,-405 1093.03,-385.71 1088.4,-371.74 1088.4,-343.5 1088.4,-343.5 1088.4,-343.5 1088.4,-121.5 1088.4,-108.41 1053.29,-78.2 1036.4,-71 967.83,-41.76 754.21,-36.32 645.84,-35.5"/>
<polygon fill="black" stroke="black" points="645.72,-32 635.69,-35.43 645.67,-39 645.72,-32"/>
<text text-anchor="start" x="977.4" y="-426.8" font-family="Times,serif" font-size="14.00">end/</text>
</g>
<!-- LabaMap::Start&#45;&gt;LabaMap::Error -->
<g id="edge4" class="edge">
<title>LabaMap::Start&#45;&gt;LabaMap::Error</title>
<path fill="none" stroke="black" d="M995.29,-808.35C1010.86,-792.26 1030.4,-766.65 1030.4,-739.5 1030.4,-739.5 1030.4,-739.5 1030.4,-473.5 1030.4,-451.05 1018.1,-441.08 1031.4,-423 1046.4,-402.62 1067.19,-422.56 1085.4,-405 1106.41,-384.74 1108.4,-372.68 1108.4,-343.5 1108.4,-343.5 1108.4,-343.5 1108.4,-121.5 1108.4,-105.57 1070.18,-78.03 1052.4,-71 980.21,-42.46 757.16,-36.72 645.89,-35.66"/>
<polygon fill="black" stroke="black" points="645.84,-32.16 635.81,-35.58 645.78,-39.16 645.84,-32.16"/>
<text text-anchor="start" x="1031.4" y="-426.8" font-family="Times,serif" font-size="14.00">asg/</text>
</g>
<!-- LabaMap::Start&#45;&gt;LabaMap::Error -->
<g id="edge5" class="edge">
<title>LabaMap::Start&#45;&gt;LabaMap::Error</title>
<path fill="none" stroke="black" d="M1023.64,-808.49C1052.31,-794.81 1083.4,-772.39 1083.4,-739.5 1083.4,-739.5 1083.4,-739.5 1083.4,-473.5 1083.4,-412.36 1128.4,-404.64 1128.4,-343.5 1128.4,-343.5 1128.4,-343.5 1128.4,-121.5 1128.4,-103.57 1088.22,-78.04 1069.4,-71 993.52,-42.61 759.8,-36.82 645.57,-35.71"/>
<polygon fill="black" stroke="black" points="645.6,-32.21 635.56,-35.62 645.53,-39.21 645.6,-32.21"/>
<text text-anchor="start" x="1096.4" y="-426.8" font-family="Times,serif" font-size="14.00">space/</text>
</g>
<!-- LabaMap::Line&#45;&gt;LabaMap::Line -->
<g id="edge6" class="edge">
<title>LabaMap::Line&#45;&gt;LabaMap::Line</title>
<path fill="none" stroke="black" d="M867.41,-746.38C877.93,-745.47 885.4,-742.84 885.4,-738.5 885.4,-735.72 882.33,-733.64 877.36,-732.27"/>
<polygon fill="black" stroke="black" points="877.85,-728.8 867.41,-730.62 876.7,-735.71 877.85,-728.8"/>
<text text-anchor="start" x="885.4" y="-734.8" font-family="Times,serif" font-size="14.00">num/</text>
</g>
<!-- LabaMap::PreType -->
<g id="node3" class="node">
<title>LabaMap::PreType</title>
<path fill="none" stroke="black" d="M668.4,-632.5C668.4,-632.5 752.4,-632.5 752.4,-632.5 758.4,-632.5 764.4,-638.5 764.4,-644.5 764.4,-644.5 764.4,-656.5 764.4,-656.5 764.4,-662.5 758.4,-668.5 752.4,-668.5 752.4,-668.5 668.4,-668.5 668.4,-668.5 662.4,-668.5 656.4,-662.5 656.4,-656.5 656.4,-656.5 656.4,-644.5 656.4,-644.5 656.4,-638.5 662.4,-632.5 668.4,-632.5"/>
<text text-anchor="middle" x="710.4" y="-646.8" font-family="Times,serif" font-size="14.00">PreType</text>
</g>
<!-- LabaMap::Line&#45;&gt;LabaMap::PreType -->
<g id="edge7" class="edge">
<title>LabaMap::Line&#45;&gt;LabaMap::PreType</title>
<path fill="none" stroke="black" d="M792.56,-720.1C777.1,-707.19 755.85,-689.45 738.83,-675.24"/>
<polygon fill="black" stroke="black" points="740.78,-672.31 730.86,-668.58 736.3,-677.68 740.78,-672.31"/>
<text text-anchor="start" x="767.4" y="-690.8" font-family="Times,serif" font-size="14.00">space/</text>
</g>
<!-- LabaMap::Line&#45;&gt;LabaMap::Error -->
<g id="edge8" class="edge">
<title>LabaMap::Line&#45;&gt;LabaMap::Error</title>
<path fill="none" stroke="black" d="M831.59,-720.22C846.58,-704.03 865.4,-678.37 865.4,-651.5 865.4,-651.5 865.4,-651.5 865.4,-517.5 865.4,-449.9 848.39,-418.43 893.4,-368 909.13,-350.38 922.71,-361.39 943.4,-350 975.45,-332.36 1008.4,-336.08 1008.4,-299.5 1008.4,-299.5 1008.4,-299.5 1008.4,-121.5 1008.4,-94.69 998.39,-84.81 975.4,-71 921.51,-38.63 743.19,-34.4 645.98,-34.62"/>
<polygon fill="black" stroke="black" points="645.67,-31.12 635.68,-34.66 645.7,-38.12 645.67,-31.12"/>
<text text-anchor="start" x="893.4" y="-382.8" font-family="Times,serif" font-size="14.00">char/</text>
</g>
<!-- LabaMap::Line&#45;&gt;LabaMap::Error -->
<g id="edge9" class="edge">
<title>LabaMap::Line&#45;&gt;LabaMap::Error</title>
<path fill="none" stroke="black" d="M840.21,-720.5C860.68,-705.21 885.4,-680.71 885.4,-651.5 885.4,-651.5 885.4,-651.5 885.4,-473.5 885.4,-450.95 877.24,-441.31 890.4,-423 901.78,-407.17 914.59,-416.4 930.4,-405 935.79,-401.11 1008.18,-322.81 1011.4,-317 1025.17,-292.21 1028.4,-283.86 1028.4,-255.5 1028.4,-255.5 1028.4,-255.5 1028.4,-121.5 1028.4,-93.14 1014.29,-84.6 989.4,-71 931.85,-39.56 745.38,-35 645.68,-34.9"/>
<polygon fill="black" stroke="black" points="645.43,-31.4 635.43,-34.91 645.43,-38.4 645.43,-31.4"/>
<text text-anchor="start" x="965.4" y="-382.8" font-family="Times,serif" font-size="14.00">end/</text>
</g>
<!-- LabaMap::Line&#45;&gt;LabaMap::Error -->
<g id="edge10" class="edge">
<title>LabaMap::Line&#45;&gt;LabaMap::Error</title>
<path fill="none" stroke="black" d="M851.09,-720.45C876.49,-706.1 905.4,-682.87 905.4,-651.5 905.4,-651.5 905.4,-651.5 905.4,-517.5 905.4,-496.42 883.88,-439.17 897.4,-423 926.37,-388.35 963.16,-434.44 997.4,-405 1050.64,-359.23 1048.4,-325.7 1048.4,-255.5 1048.4,-255.5 1048.4,-255.5 1048.4,-121.5 1048.4,-92.02 1031.62,-84.47 1005.4,-71 944.34,-39.64 748.44,-35.1 645.68,-34.97"/>
<polygon fill="black" stroke="black" points="645.44,-31.47 635.44,-34.97 645.44,-38.47 645.44,-31.47"/>
<text text-anchor="start" x="1029.4" y="-382.8" font-family="Times,serif" font-size="14.00">asg/</text>
</g>
<!-- LabaMap::PreName -->
<g id="node4" class="node">
<title>LabaMap::PreName</title>
<path fill="none" stroke="black" d="M443.4,-544.5C443.4,-544.5 527.4,-544.5 527.4,-544.5 533.4,-544.5 539.4,-550.5 539.4,-556.5 539.4,-556.5 539.4,-568.5 539.4,-568.5 539.4,-574.5 533.4,-580.5 527.4,-580.5 527.4,-580.5 443.4,-580.5 443.4,-580.5 437.4,-580.5 431.4,-574.5 431.4,-568.5 431.4,-568.5 431.4,-556.5 431.4,-556.5 431.4,-550.5 437.4,-544.5 443.4,-544.5"/>
<text text-anchor="middle" x="485.4" y="-558.8" font-family="Times,serif" font-size="14.00">PreName</text>
</g>
<!-- LabaMap::PreType&#45;&gt;LabaMap::PreName -->
<g id="edge11" class="edge">
<title>LabaMap::PreType&#45;&gt;LabaMap::PreName</title>
<path fill="none" stroke="black" d="M656.33,-637.18C633.2,-631.23 606.11,-623.34 582.4,-614 562.24,-606.06 540.78,-595.16 523.19,-585.53"/>
<polygon fill="black" stroke="black" points="524.81,-582.42 514.37,-580.62 521.41,-588.54 524.81,-582.42"/>
<text text-anchor="start" x="582.4" y="-602.8" font-family="Times,serif" font-size="14.00">num/</text>
</g>
<!-- LabaMap::PreType&#45;&gt;LabaMap::PreName -->
<g id="edge12" class="edge">
<title>LabaMap::PreType&#45;&gt;LabaMap::PreName</title>
<path fill="none" stroke="black" d="M683.79,-632.43C666.1,-621.66 642.03,-608.11 619.4,-599 597.13,-590.03 571.88,-582.67 549.34,-577.01"/>
<polygon fill="black" stroke="black" points="550.08,-573.59 539.53,-574.61 548.42,-580.39 550.08,-573.59"/>
<text text-anchor="start" x="650.4" y="-602.8" font-family="Times,serif" font-size="14.00">space/</text>
</g>
<!-- LabaMap::PreAsg -->
<g id="node5" class="node">
<title>LabaMap::PreAsg</title>
<path fill="none" stroke="black" d="M165.4,-456.5C165.4,-456.5 249.4,-456.5 249.4,-456.5 255.4,-456.5 261.4,-462.5 261.4,-468.5 261.4,-468.5 261.4,-480.5 261.4,-480.5 261.4,-486.5 255.4,-492.5 249.4,-492.5 249.4,-492.5 165.4,-492.5 165.4,-492.5 159.4,-492.5 153.4,-486.5 153.4,-480.5 153.4,-480.5 153.4,-468.5 153.4,-468.5 153.4,-462.5 159.4,-456.5 165.4,-456.5"/>
<text text-anchor="middle" x="207.4" y="-470.8" font-family="Times,serif" font-size="14.00">PreAsg</text>
</g>
<!-- LabaMap::PreType&#45;&gt;LabaMap::PreAsg -->
<g id="edge13" class="edge">
<title>LabaMap::PreType&#45;&gt;LabaMap::PreAsg</title>
<path fill="none" stroke="black" d="M656.25,-641.14C589.64,-630.23 473.47,-609.17 376.4,-581 310.21,-561.79 282.07,-572.72 231.4,-526 224.53,-519.66 219.43,-510.95 215.74,-502.54"/>
<polygon fill="black" stroke="black" points="218.91,-501.03 212.04,-492.97 212.39,-503.56 218.91,-501.03"/>
<text text-anchor="start" x="376.4" y="-558.8" font-family="Times,serif" font-size="14.00">space/</text>
</g>
<!-- LabaMap::ASG -->
<g id="node6" class="node">
<title>LabaMap::ASG</title>
<path fill="none" stroke="black" d="M443.4,-368.5C443.4,-368.5 527.4,-368.5 527.4,-368.5 533.4,-368.5 539.4,-374.5 539.4,-380.5 539.4,-380.5 539.4,-392.5 539.4,-392.5 539.4,-398.5 533.4,-404.5 527.4,-404.5 527.4,-404.5 443.4,-404.5 443.4,-404.5 437.4,-404.5 431.4,-398.5 431.4,-392.5 431.4,-392.5 431.4,-380.5 431.4,-380.5 431.4,-374.5 437.4,-368.5 443.4,-368.5"/>
<text text-anchor="middle" x="485.4" y="-382.8" font-family="Times,serif" font-size="14.00">ASG</text>
</g>
<!-- LabaMap::PreType&#45;&gt;LabaMap::ASG -->
<g id="edge15" class="edge">
<title>LabaMap::PreType&#45;&gt;LabaMap::ASG</title>
<path fill="none" stroke="black" d="M716.42,-632.27C724.96,-604.53 737.21,-549.21 714.4,-511 678.93,-451.57 603.89,-419.04 549.35,-402.5"/>
<polygon fill="black" stroke="black" points="550,-399.04 539.42,-399.59 548.04,-405.76 550,-399.04"/>
<text text-anchor="start" x="720.4" y="-514.8" font-family="Times,serif" font-size="14.00">asg/</text>
</g>
<!-- LabaMap::OK -->
<g id="node10" class="node">
<title>LabaMap::OK</title>
<path fill="none" stroke="black" d="M853.4,-104.5C853.4,-104.5 937.4,-104.5 937.4,-104.5 943.4,-104.5 949.4,-110.5 949.4,-116.5 949.4,-116.5 949.4,-128.5 949.4,-128.5 949.4,-134.5 943.4,-140.5 937.4,-140.5 937.4,-140.5 853.4,-140.5 853.4,-140.5 847.4,-140.5 841.4,-134.5 841.4,-128.5 841.4,-128.5 841.4,-116.5 841.4,-116.5 841.4,-110.5 847.4,-104.5 853.4,-104.5"/>
<text text-anchor="middle" x="895.4" y="-118.8" font-family="Times,serif" font-size="14.00">OK</text>
</g>
<!-- LabaMap::PreType&#45;&gt;LabaMap::OK -->
<g id="edge17" class="edge">
<title>LabaMap::PreType&#45;&gt;LabaMap::OK</title>
<path fill="none" stroke="black" d="M732.78,-632.3C750.54,-616.55 772.4,-591.48 772.4,-563.5 772.4,-563.5 772.4,-563.5 772.4,-429.5 772.4,-401.47 770.3,-390.95 786.4,-368 794.9,-355.89 804.39,-360.9 814.4,-350 855.56,-305.2 856.04,-285.58 878.4,-229 887.71,-205.44 889.54,-199.04 893.4,-174 894.55,-166.57 895.15,-158.46 895.44,-150.96"/>
<polygon fill="black" stroke="black" points="898.94,-150.97 895.68,-140.89 891.95,-150.8 898.94,-150.97"/>
<text text-anchor="start" x="786.4" y="-382.8" font-family="Times,serif" font-size="14.00">end/</text>
</g>
<!-- LabaMap::PreType&#45;&gt;LabaMap::Error -->
<g id="edge14" class="edge">
<title>LabaMap::PreType&#45;&gt;LabaMap::Error</title>
<path fill="none" stroke="black" d="M656.18,-648.66C514.88,-646.14 142.8,-637.36 92.4,-614 64.31,-600.98 44.4,-594.47 44.4,-563.5 44.4,-563.5 44.4,-563.5 44.4,-385.5 44.4,-245.72 -53.14,-173.04 42.4,-71 74.22,-37.02 380.99,-34.39 517.01,-34.93"/>
<polygon fill="black" stroke="black" points="517.27,-38.43 527.29,-34.98 517.3,-31.43 517.27,-38.43"/>
<text text-anchor="start" x="41.4" y="-338.8" font-family="Times,serif" font-size="14.00">asg/</text>
</g>
<!-- LabaMap::PreType&#45;&gt;LabaMap::Error -->
<g id="edge16" class="edge">
<title>LabaMap::PreType&#45;&gt;LabaMap::Error</title>
<path fill="none" stroke="black" d="M656.27,-647.56C506.47,-641.46 97.4,-619.68 97.4,-563.5 97.4,-563.5 97.4,-563.5 97.4,-385.5 97.4,-353.24 80.78,-348.4 73.4,-317 57.31,-248.5 59.15,-229.23 63.4,-159 65.79,-119.54 46.2,-96.52 76.4,-71 109.33,-43.18 388.37,-37.15 516.97,-35.85"/>
<polygon fill="black" stroke="black" points="517.11,-39.35 527.08,-35.76 517.05,-32.35 517.11,-39.35"/>
<text text-anchor="start" x="87.4" y="-338.8" font-family="Times,serif" font-size="14.00">end/</text>
</g>
<!-- LabaMap::PreType&#45;&gt;LabaMap::Error -->
<g id="edge18" class="edge">
<title>LabaMap::PreType&#45;&gt;LabaMap::Error</title>
<path fill="none" stroke="black" d="M761.49,-632.35C791.02,-618.87 822.4,-596.72 822.4,-563.5 822.4,-563.5 822.4,-563.5 822.4,-429.5 822.4,-333.56 941.61,-208.18 958.4,-141 965.94,-110.81 978.69,-93.69 957.4,-71 936.56,-48.78 747.78,-40.11 645.91,-37.03"/>
<polygon fill="black" stroke="black" points="645.83,-33.53 635.73,-36.73 645.62,-40.52 645.83,-33.53"/>
<text text-anchor="start" x="849.4" y="-338.8" font-family="Times,serif" font-size="14.00">char/</text>
</g>
<!-- LabaMap::PreType&#45;&gt;LabaMap::Error -->
<g id="edge19" class="edge">
<title>LabaMap::PreType&#45;&gt;LabaMap::Error</title>
<path fill="none" stroke="black" d="M764.47,-637.01C800.93,-625.02 842.4,-602.75 842.4,-563.5 842.4,-563.5 842.4,-563.5 842.4,-429.5 842.4,-401.37 840.26,-390.31 857.4,-368 867.58,-354.75 879.46,-362.62 890.4,-350 955.35,-275.09 950.79,-238.57 968.4,-141 973.93,-110.37 988.06,-93.35 966.4,-71 944.59,-48.49 749.66,-39.93 645.84,-36.95"/>
<polygon fill="black" stroke="black" points="645.87,-33.45 635.78,-36.67 645.68,-40.44 645.87,-33.45"/>
<text text-anchor="start" x="902.4" y="-338.8" font-family="Times,serif" font-size="14.00">num/</text>
</g>
<!-- LabaMap::PreName&#45;&gt;LabaMap::PreName -->
<g id="edge22" class="edge">
<title>LabaMap::PreName&#45;&gt;LabaMap::PreName</title>
<path fill="none" stroke="black" d="M539.41,-566.44C549.93,-565.98 557.4,-564.67 557.4,-562.5 557.4,-561.14 554.48,-560.12 549.73,-559.43"/>
<polygon fill="black" stroke="black" points="549.67,-555.92 539.41,-558.56 549.08,-562.89 549.67,-555.92"/>
<text text-anchor="start" x="557.4" y="-558.8" font-family="Times,serif" font-size="14.00">char/</text>
</g>
<!-- LabaMap::PreName&#45;&gt;LabaMap::PreName -->
<g id="edge23" class="edge">
<title>LabaMap::PreName&#45;&gt;LabaMap::PreName</title>
<path fill="none" stroke="black" d="M539.64,-570.54C567.82,-571.56 594.4,-568.88 594.4,-562.5 594.4,-556.89 573.87,-554.14 549.76,-554.25"/>
<polygon fill="black" stroke="black" points="549.56,-550.76 539.64,-554.46 549.71,-557.75 549.56,-550.76"/>
<text text-anchor="start" x="594.4" y="-558.8" font-family="Times,serif" font-size="14.00">num/</text>
</g>
<!-- LabaMap::PreName&#45;&gt;LabaMap::PreAsg -->
<g id="edge24" class="edge">
<title>LabaMap::PreName&#45;&gt;LabaMap::PreAsg</title>
<path fill="none" stroke="black" d="M431.39,-557.11C373.55,-551.71 286.06,-541.34 256.4,-526 244.7,-519.95 234.17,-510.04 225.89,-500.59"/>
<polygon fill="black" stroke="black" points="228.56,-498.34 219.49,-492.86 223.17,-502.8 228.56,-498.34"/>
<text text-anchor="start" x="256.4" y="-514.8" font-family="Times,serif" font-size="14.00">space/</text>
</g>
<!-- LabaMap::PreName&#45;&gt;LabaMap::ASG -->
<g id="edge21" class="edge">
<title>LabaMap::PreName&#45;&gt;LabaMap::ASG</title>
<path fill="none" stroke="black" d="M485.4,-544.5C485.4,-514.35 485.4,-451.29 485.4,-414.93"/>
<polygon fill="black" stroke="black" points="488.9,-414.57 485.4,-404.57 481.9,-414.57 488.9,-414.57"/>
<text text-anchor="start" x="485.4" y="-470.8" font-family="Times,serif" font-size="14.00">asg/</text>
</g>
<!-- LabaMap::PreName&#45;&gt;LabaMap::OK -->
<g id="edge20" class="edge">
<title>LabaMap::PreName&#45;&gt;LabaMap::OK</title>
<path fill="none" stroke="black" d="M514.49,-544.46C585.68,-501.22 769.84,-379.9 865.4,-229 880.55,-205.08 888.22,-173.36 891.99,-150.97"/>
<polygon fill="black" stroke="black" points="895.49,-151.22 893.54,-140.8 888.57,-150.16 895.49,-151.22"/>
<text text-anchor="start" x="779.4" y="-338.8" font-family="Times,serif" font-size="14.00">end/</text>
</g>
<!-- LabaMap::PreName&#45;&gt;LabaMap::Error -->
<g id="edge25" class="edge">
<title>LabaMap::PreName&#45;&gt;LabaMap::Error</title>
<path fill="none" stroke="black" d="M470.74,-544.24C438.19,-505.4 358.47,-407.43 304.4,-317 286.75,-287.48 298.45,-268.25 271.4,-247 240.01,-222.33 211.57,-257.29 183.4,-229 144.05,-189.48 161.29,-158.65 172.4,-104 175.58,-88.39 173.52,-80.38 186.4,-71 212.45,-52.02 411.75,-41.81 516.9,-37.7"/>
<polygon fill="black" stroke="black" points="517.22,-41.19 527.08,-37.31 516.95,-34.19 517.22,-41.19"/>
<text text-anchor="start" x="304.4" y="-294.8" font-family="Times,serif" font-size="14.00">char/</text>
</g>
<!-- LabaMap::PreName&#45;&gt;LabaMap::Error -->
<g id="edge26" class="edge">
<title>LabaMap::PreName&#45;&gt;LabaMap::Error</title>
<path fill="none" stroke="black" d="M431.17,-544.98C429.57,-544.63 427.97,-544.3 426.4,-544 363.87,-531.96 183.02,-543.64 144.4,-493 101.63,-436.91 168.24,-393.88 129.4,-335 120.2,-321.05 107.49,-329.49 96.4,-317 78.92,-297.31 79.38,-287.85 74.4,-262 61.12,-193.01 66.18,-173 79.4,-104 82.31,-88.82 78.19,-80.49 90.4,-71 123.34,-45.4 391.68,-38.2 517.16,-36.22"/>
<polygon fill="black" stroke="black" points="517.45,-39.72 527.4,-36.07 517.34,-32.72 517.45,-39.72"/>
<text text-anchor="start" x="96.4" y="-294.8" font-family="Times,serif" font-size="14.00">num/</text>
</g>
<!-- LabaMap::PreAsg&#45;&gt;LabaMap::ASG -->
<g id="edge27" class="edge">
<title>LabaMap::PreAsg&#45;&gt;LabaMap::ASG</title>
<path fill="none" stroke="black" d="M261.66,-456.71C307.49,-442.54 373.19,-422.21 421.54,-407.25"/>
<polygon fill="black" stroke="black" points="422.76,-410.54 431.28,-404.24 420.69,-403.86 422.76,-410.54"/>
<text text-anchor="start" x="362.4" y="-426.8" font-family="Times,serif" font-size="14.00">asg/</text>
</g>
<!-- LabaMap::PreAsg&#45;&gt;LabaMap::Error -->
<g id="edge28" class="edge">
<title>LabaMap::PreAsg&#45;&gt;LabaMap::Error</title>
<path fill="none" stroke="black" d="M184.4,-456.29C178.72,-451.01 173.19,-444.78 169.4,-438 134.45,-375.46 185.44,-333.16 137.4,-280 119.3,-259.97 95.41,-283.73 79.4,-262 77.2,-259.02 78.35,-93.74 102.4,-71 131.87,-43.14 393.14,-37.12 516.91,-35.84"/>
<polygon fill="black" stroke="black" points="517.05,-39.34 527.02,-35.74 516.98,-32.34 517.05,-39.34"/>
<text text-anchor="start" x="79.4" y="-250.8" font-family="Times,serif" font-size="14.00">char/</text>
</g>
<!-- LabaMap::PreAsg&#45;&gt;LabaMap::Error -->
<g id="edge29" class="edge">
<title>LabaMap::PreAsg&#45;&gt;LabaMap::Error</title>
<path fill="none" stroke="black" d="M200.16,-456.31C197.85,-450.54 195.39,-444.04 193.4,-438 170.7,-368.98 181.29,-346.23 151.4,-280 147.45,-271.24 144.28,-270.29 139.4,-262 131.03,-247.78 126.29,-245.03 122.4,-229 105.86,-160.75 74.7,-122.53 122.4,-71 148.65,-42.65 397.11,-36.87 517.13,-35.74"/>
<polygon fill="black" stroke="black" points="517.32,-39.24 527.29,-35.66 517.26,-32.24 517.32,-39.24"/>
<text text-anchor="start" x="139.4" y="-250.8" font-family="Times,serif" font-size="14.00">num/</text>
</g>
<!-- LabaMap::PreAsg&#45;&gt;LabaMap::Error -->
<g id="edge30" class="edge">
<title>LabaMap::PreAsg&#45;&gt;LabaMap::Error</title>
<path fill="none" stroke="black" d="M209.98,-456.29C215.08,-415.75 222.33,-312.72 176.4,-247 166.61,-232.99 151.22,-243.65 142.4,-229 106.18,-168.84 94.79,-122.62 142.4,-71 167.25,-44.06 401.08,-37.56 516.96,-36"/>
<polygon fill="black" stroke="black" points="517.16,-39.49 527.12,-35.87 517.07,-32.49 517.16,-39.49"/>
<text text-anchor="start" x="185.4" y="-250.8" font-family="Times,serif" font-size="14.00">end/</text>
</g>
<!-- LabaMap::PreAsg&#45;&gt;LabaMap::Error -->
<g id="edge31" class="edge">
<title>LabaMap::PreAsg&#45;&gt;LabaMap::Error</title>
<path fill="none" stroke="black" d="M213.19,-456.36C214.88,-450.59 216.51,-444.08 217.4,-438 228.77,-360.6 219.73,-340.23 220.4,-262 220.46,-255.33 224.36,-252.37 220.4,-247 204.39,-225.27 178.41,-250.73 162.4,-229 120.75,-172.46 114.89,-122.71 162.4,-71 185.87,-45.46 405.46,-38.27 517.01,-36.27"/>
<polygon fill="black" stroke="black" points="517.19,-39.77 527.13,-36.1 517.07,-32.77 517.19,-39.77"/>
<text text-anchor="start" x="221.4" y="-250.8" font-family="Times,serif" font-size="14.00">space/</text>
</g>
<!-- LabaMap::PreVar -->
<g id="node7" class="node">
<title>LabaMap::PreVar</title>
<path fill="none" stroke="black" d="M411.4,-280.5C411.4,-280.5 495.4,-280.5 495.4,-280.5 501.4,-280.5 507.4,-286.5 507.4,-292.5 507.4,-292.5 507.4,-304.5 507.4,-304.5 507.4,-310.5 501.4,-316.5 495.4,-316.5 495.4,-316.5 411.4,-316.5 411.4,-316.5 405.4,-316.5 399.4,-310.5 399.4,-304.5 399.4,-304.5 399.4,-292.5 399.4,-292.5 399.4,-286.5 405.4,-280.5 411.4,-280.5"/>
<text text-anchor="middle" x="453.4" y="-294.8" font-family="Times,serif" font-size="14.00">PreVar</text>
</g>
<!-- LabaMap::ASG&#45;&gt;LabaMap::PreVar -->
<g id="edge32" class="edge">
<title>LabaMap::ASG&#45;&gt;LabaMap::PreVar</title>
<path fill="none" stroke="black" d="M478.93,-368.1C474.43,-356.01 468.35,-339.68 463.26,-325.99"/>
<polygon fill="black" stroke="black" points="466.53,-324.74 459.76,-316.58 459.97,-327.18 466.53,-324.74"/>
<text text-anchor="start" x="470.4" y="-338.8" font-family="Times,serif" font-size="14.00">space/</text>
</g>
<!-- LabaMap::VarNum -->
<g id="node8" class="node">
<title>LabaMap::VarNum</title>
<path fill="none" stroke="black" d="M391.4,-192.5C391.4,-192.5 475.4,-192.5 475.4,-192.5 481.4,-192.5 487.4,-198.5 487.4,-204.5 487.4,-204.5 487.4,-216.5 487.4,-216.5 487.4,-222.5 481.4,-228.5 475.4,-228.5 475.4,-228.5 391.4,-228.5 391.4,-228.5 385.4,-228.5 379.4,-222.5 379.4,-216.5 379.4,-216.5 379.4,-204.5 379.4,-204.5 379.4,-198.5 385.4,-192.5 391.4,-192.5"/>
<text text-anchor="middle" x="433.4" y="-206.8" font-family="Times,serif" font-size="14.00">VarNum</text>
</g>
<!-- LabaMap::ASG&#45;&gt;LabaMap::VarNum -->
<g id="edge33" class="edge">
<title>LabaMap::ASG&#45;&gt;LabaMap::VarNum</title>
<path fill="none" stroke="black" d="M506.18,-368.22C536.53,-340.9 586.29,-286.73 556.4,-247 542.61,-228.67 519.96,-219.35 497.82,-214.75"/>
<polygon fill="black" stroke="black" points="498.18,-211.26 487.72,-212.96 496.95,-218.15 498.18,-211.26"/>
<text text-anchor="start" x="564.4" y="-294.8" font-family="Times,serif" font-size="14.00">num/</text>
</g>
<!-- LabaMap::VarName -->
<g id="node9" class="node">
<title>LabaMap::VarName</title>
<path fill="none" stroke="black" d="M592.4,-192.5C592.4,-192.5 676.4,-192.5 676.4,-192.5 682.4,-192.5 688.4,-198.5 688.4,-204.5 688.4,-204.5 688.4,-216.5 688.4,-216.5 688.4,-222.5 682.4,-228.5 676.4,-228.5 676.4,-228.5 592.4,-228.5 592.4,-228.5 586.4,-228.5 580.4,-222.5 580.4,-216.5 580.4,-216.5 580.4,-204.5 580.4,-204.5 580.4,-198.5 586.4,-192.5 592.4,-192.5"/>
<text text-anchor="middle" x="634.4" y="-206.8" font-family="Times,serif" font-size="14.00">VarName</text>
</g>
<!-- LabaMap::ASG&#45;&gt;LabaMap::VarName -->
<g id="edge34" class="edge">
<title>LabaMap::ASG&#45;&gt;LabaMap::VarName</title>
<path fill="none" stroke="black" d="M533.66,-368.39C558.43,-357.3 587.16,-340.5 605.4,-317 623,-294.33 629.93,-261.68 632.65,-238.72"/>
<polygon fill="black" stroke="black" points="636.15,-238.91 633.65,-228.62 629.18,-238.22 636.15,-238.91"/>
<text text-anchor="start" x="623.4" y="-294.8" font-family="Times,serif" font-size="14.00">char/</text>
</g>
<!-- LabaMap::ASG&#45;&gt;LabaMap::Error -->
<g id="edge35" class="edge">
<title>LabaMap::ASG&#45;&gt;LabaMap::Error</title>
<path fill="none" stroke="black" d="M539.68,-376.13C630.18,-356.96 804.44,-303.6 829.4,-174 838.53,-126.61 790.23,-124.19 746.4,-104 719.95,-91.81 708.73,-100.36 683.4,-86 674.92,-81.19 675.6,-76.28 667.4,-71 659.15,-65.69 649.98,-60.89 640.78,-56.68"/>
<polygon fill="black" stroke="black" points="642.17,-53.46 631.6,-52.65 639.35,-59.88 642.17,-53.46"/>
<text text-anchor="start" x="824.4" y="-206.8" font-family="Times,serif" font-size="14.00">char/</text>
</g>
<!-- LabaMap::ASG&#45;&gt;LabaMap::Error -->
<g id="edge36" class="edge">
<title>LabaMap::ASG&#45;&gt;LabaMap::Error</title>
<path fill="none" stroke="black" d="M431.15,-377.61C411.67,-372.47 390.75,-363.99 375.4,-350 350.38,-327.2 367.47,-305.67 345.4,-280 335.51,-268.5 327.3,-272.55 316.4,-262 310.64,-256.43 313.05,-251.47 306.4,-247 273.28,-224.71 247.75,-256.06 218.4,-229 166.5,-181.16 154.88,-123.18 202.4,-71 223.13,-48.24 414.51,-39.8 517.11,-36.9"/>
<polygon fill="black" stroke="black" points="517.45,-40.39 527.35,-36.62 517.26,-33.39 517.45,-40.39"/>
<text text-anchor="start" x="218.4" y="-206.8" font-family="Times,serif" font-size="14.00">end/</text>
</g>
<!-- LabaMap::ASG&#45;&gt;LabaMap::Error -->
<g id="edge37" class="edge">
<title>LabaMap::ASG&#45;&gt;LabaMap::Error</title>
<path fill="none" stroke="black" d="M458.42,-368.35C438.73,-355.29 411.85,-336.33 390.4,-317 374.03,-302.25 374.75,-293.59 357.4,-280 343.94,-269.45 336.09,-273.46 323.4,-262 317.46,-256.63 319.56,-252.12 313.4,-247 297.79,-234.01 286.67,-242.39 271.4,-229 257.01,-216.39 262.9,-205.56 249.4,-192 238.43,-180.98 228.43,-186.66 219.4,-174 201.24,-148.55 206.57,-134.72 212.4,-104 215.34,-88.51 212.83,-80.51 225.4,-71 248.11,-53.83 420.85,-43.05 517.1,-38.31"/>
<polygon fill="black" stroke="black" points="517.49,-41.79 527.31,-37.81 517.15,-34.8 517.49,-41.79"/>
<text text-anchor="start" x="271.4" y="-206.8" font-family="Times,serif" font-size="14.00">asg/</text>
</g>
<!-- LabaMap::PreVar&#45;&gt;LabaMap::VarNum -->
<g id="edge38" class="edge">
<title>LabaMap::PreVar&#45;&gt;LabaMap::VarNum</title>
<path fill="none" stroke="black" d="M449.35,-280.1C446.57,-268.13 442.82,-252 439.65,-238.39"/>
<polygon fill="black" stroke="black" points="443.05,-237.53 437.37,-228.58 436.23,-239.12 443.05,-237.53"/>
<text text-anchor="start" x="444.4" y="-250.8" font-family="Times,serif" font-size="14.00">num/</text>
</g>
<!-- LabaMap::PreVar&#45;&gt;LabaMap::VarName -->
<g id="edge39" class="edge">
<title>LabaMap::PreVar&#45;&gt;LabaMap::VarName</title>
<path fill="none" stroke="black" d="M489.59,-280.3C518.3,-266.67 558.56,-247.53 589.35,-232.9"/>
<polygon fill="black" stroke="black" points="591.05,-235.97 598.58,-228.52 588.05,-229.65 591.05,-235.97"/>
<text text-anchor="start" x="554.4" y="-250.8" font-family="Times,serif" font-size="14.00">char/</text>
</g>
<!-- LabaMap::PreVar&#45;&gt;LabaMap::Error -->
<g id="edge40" class="edge">
<title>LabaMap::PreVar&#45;&gt;LabaMap::Error</title>
<path fill="none" stroke="black" d="M428.03,-280.43C410.4,-267.7 387.14,-249.1 370.4,-229 347.61,-201.64 354.83,-185.83 331.4,-159 322.63,-148.96 313.36,-152.93 307.4,-141 300.05,-126.29 302.8,-119.79 307.4,-104 312.26,-87.31 313.78,-80.41 328.4,-71 358.76,-51.47 452.82,-42.42 517.28,-38.42"/>
<polygon fill="black" stroke="black" points="517.58,-41.91 527.36,-37.82 517.17,-34.92 517.58,-41.91"/>
<text text-anchor="start" x="341.4" y="-162.8" font-family="Times,serif" font-size="14.00">char/</text>
</g>
<!-- LabaMap::PreVar&#45;&gt;LabaMap::Error -->
<g id="edge41" class="edge">
<title>LabaMap::PreVar&#45;&gt;LabaMap::Error</title>
<path fill="none" stroke="black" d="M478.96,-280.49C507.31,-261.5 549.37,-232.89 551.4,-229 559,-214.42 557.48,-207.28 551.4,-192 547.34,-181.77 538.47,-184.23 534.4,-174 531.94,-167.8 533.66,-165.63 534.4,-159 538.87,-119.14 537.43,-107.34 554.4,-71 556,-67.57 557.98,-64.16 560.12,-60.88"/>
<polygon fill="black" stroke="black" points="563.08,-62.76 566.07,-52.59 557.39,-58.68 563.08,-62.76"/>
<text text-anchor="start" x="534.4" y="-162.8" font-family="Times,serif" font-size="14.00">end/</text>
</g>
<!-- LabaMap::PreVar&#45;&gt;LabaMap::Error -->
<g id="edge42" class="edge">
<title>LabaMap::PreVar&#45;&gt;LabaMap::Error</title>
<path fill="none" stroke="black" d="M399.22,-283.44C370.7,-275.64 340.57,-266.61 335.4,-262 310.16,-239.45 331.21,-213.9 305.4,-192 279.93,-170.38 253.01,-200.31 232.4,-174 223.42,-162.54 196.42,-116.58 242.4,-71 261.49,-52.08 424.24,-42.13 517.12,-37.95"/>
<polygon fill="black" stroke="black" points="517.42,-41.44 527.26,-37.51 517.11,-34.45 517.42,-41.44"/>
<text text-anchor="start" x="232.4" y="-162.8" font-family="Times,serif" font-size="14.00">asg/</text>
</g>
<!-- LabaMap::PreVar&#45;&gt;LabaMap::Error -->
<g id="edge43" class="edge">
<title>LabaMap::PreVar&#45;&gt;LabaMap::Error</title>
<path fill="none" stroke="black" d="M415.33,-280.43C404.67,-275.07 393.31,-268.76 383.4,-262 365.2,-249.58 361.48,-245.07 346.4,-229 332.1,-213.76 333.58,-205.22 317.4,-192 303.55,-180.68 290.81,-189.22 281.4,-174 256.46,-133.65 272.8,-101.18 309.4,-71 340.13,-45.66 446.83,-38.28 517.1,-36.21"/>
<polygon fill="black" stroke="black" points="517.29,-39.7 527.19,-35.94 517.1,-32.71 517.29,-39.7"/>
<text text-anchor="start" x="281.4" y="-162.8" font-family="Times,serif" font-size="14.00">space/</text>
</g>
<!-- LabaMap::VarNum&#45;&gt;LabaMap::VarNum -->
<g id="edge44" class="edge">
<title>LabaMap::VarNum&#45;&gt;LabaMap::VarNum</title>
<path fill="none" stroke="black" d="M487.41,-218.38C497.93,-217.47 505.4,-214.84 505.4,-210.5 505.4,-207.72 502.33,-205.64 497.36,-204.27"/>
<polygon fill="black" stroke="black" points="497.85,-200.8 487.41,-202.62 496.7,-207.71 497.85,-200.8"/>
<text text-anchor="start" x="505.4" y="-206.8" font-family="Times,serif" font-size="14.00">num/</text>
</g>
<!-- LabaMap::VarNum&#45;&gt;LabaMap::OK -->
<g id="edge45" class="edge">
<title>LabaMap::VarNum&#45;&gt;LabaMap::OK</title>
<path fill="none" stroke="black" d="M487.64,-199.83C560.45,-186.79 693.77,-162.7 807.4,-141 815.04,-139.54 823.05,-137.99 830.98,-136.43"/>
<polygon fill="black" stroke="black" points="831.84,-139.83 840.97,-134.46 830.48,-132.96 831.84,-139.83"/>
<text text-anchor="start" x="704.4" y="-162.8" font-family="Times,serif" font-size="14.00">end/</text>
</g>
<!-- LabaMap::VarNum&#45;&gt;LabaMap::Error -->
<g id="edge46" class="edge">
<title>LabaMap::VarNum&#45;&gt;LabaMap::Error</title>
<path fill="none" stroke="black" d="M435.88,-192.22C439.66,-170.27 448.41,-131.9 466.4,-104 479.85,-83.15 502.08,-67.78 523.42,-56.94"/>
<polygon fill="black" stroke="black" points="525,-60.07 532.49,-52.57 521.96,-53.76 525,-60.07"/>
<text text-anchor="start" x="466.4" y="-118.8" font-family="Times,serif" font-size="14.00">char/</text>
</g>
<!-- LabaMap::VarNum&#45;&gt;LabaMap::Error -->
<g id="edge47" class="edge">
<title>LabaMap::VarNum&#45;&gt;LabaMap::Error</title>
<path fill="none" stroke="black" d="M416.93,-192.24C411.77,-186.58 406.19,-180.16 401.4,-174 396.48,-167.67 397.96,-163.6 391.4,-159 364.06,-139.79 339.01,-167.31 318.4,-141 308.26,-128.05 310.82,-118.59 318.4,-104 330.17,-81.35 341.77,-80.65 365.4,-71 414.04,-51.15 473.13,-42.38 517.2,-38.52"/>
<polygon fill="black" stroke="black" points="517.53,-42.01 527.22,-37.71 516.97,-35.03 517.53,-42.01"/>
<text text-anchor="start" x="318.4" y="-118.8" font-family="Times,serif" font-size="14.00">asg/</text>
</g>
<!-- LabaMap::VarNum&#45;&gt;LabaMap::Error -->
<g id="edge48" class="edge">
<title>LabaMap::VarNum&#45;&gt;LabaMap::Error</title>
<path fill="none" stroke="black" d="M418.91,-192.18C402.39,-170.2 379.9,-131.79 398.4,-104 424.37,-65 475.59,-48.15 517.24,-40.89"/>
<polygon fill="black" stroke="black" points="518.01,-44.31 527.33,-39.29 516.91,-37.4 518.01,-44.31"/>
<text text-anchor="start" x="398.4" y="-118.8" font-family="Times,serif" font-size="14.00">space/</text>
</g>
<!-- LabaMap::VarName&#45;&gt;LabaMap::VarName -->
<g id="edge49" class="edge">
<title>LabaMap::VarName&#45;&gt;LabaMap::VarName</title>
<path fill="none" stroke="black" d="M688.41,-214.44C698.93,-213.98 706.4,-212.67 706.4,-210.5 706.4,-209.14 703.48,-208.12 698.73,-207.43"/>
<polygon fill="black" stroke="black" points="698.67,-203.92 688.41,-206.56 698.08,-210.89 698.67,-203.92"/>
<text text-anchor="start" x="706.4" y="-206.8" font-family="Times,serif" font-size="14.00">num/</text>
</g>
<!-- LabaMap::VarName&#45;&gt;LabaMap::VarName -->
<g id="edge50" class="edge">
<title>LabaMap::VarName&#45;&gt;LabaMap::VarName</title>
<path fill="none" stroke="black" d="M688.64,-218.54C716.82,-219.56 743.4,-216.88 743.4,-210.5 743.4,-204.89 722.87,-202.14 698.76,-202.25"/>
<polygon fill="black" stroke="black" points="698.56,-198.76 688.64,-202.46 698.71,-205.75 698.56,-198.76"/>
<text text-anchor="start" x="743.4" y="-206.8" font-family="Times,serif" font-size="14.00">char/</text>
</g>
<!-- LabaMap::VarName&#45;&gt;LabaMap::OK -->
<g id="edge51" class="edge">
<title>LabaMap::VarName&#45;&gt;LabaMap::OK</title>
<path fill="none" stroke="black" d="M688.52,-197.9C714.99,-191.72 747.15,-183.44 775.4,-174 800.44,-165.63 827.62,-154.39 849.76,-144.63"/>
<polygon fill="black" stroke="black" points="851.21,-147.82 858.93,-140.55 848.37,-141.42 851.21,-147.82"/>
<text text-anchor="start" x="815.4" y="-162.8" font-family="Times,serif" font-size="14.00">end/</text>
</g>
<!-- LabaMap::VarName&#45;&gt;LabaMap::Error -->
<g id="edge52" class="edge">
<title>LabaMap::VarName&#45;&gt;LabaMap::Error</title>
<path fill="none" stroke="black" d="M606.03,-192.39C589.04,-180.38 568.94,-162.62 559.4,-141 548.09,-115.35 557.55,-83.59 567.35,-61.65"/>
<polygon fill="black" stroke="black" points="570.52,-63.14 571.66,-52.61 564.2,-60.14 570.52,-63.14"/>
<text text-anchor="start" x="559.4" y="-118.8" font-family="Times,serif" font-size="14.00">char/</text>
</g>
<!-- LabaMap::VarName&#45;&gt;LabaMap::Error -->
<g id="edge53" class="edge">
<title>LabaMap::VarName&#45;&gt;LabaMap::Error</title>
<path fill="none" stroke="black" d="M629.22,-192.5C620,-162.22 600.67,-98.75 589.61,-62.46"/>
<polygon fill="black" stroke="black" points="592.86,-61.12 586.6,-52.57 586.17,-63.16 592.86,-61.12"/>
<text text-anchor="start" x="612.4" y="-118.8" font-family="Times,serif" font-size="14.00">num/</text>
</g>
<!-- LabaMap::VarName&#45;&gt;LabaMap::Error -->
<g id="edge54" class="edge">
<title>LabaMap::VarName&#45;&gt;LabaMap::Error</title>
<path fill="none" stroke="black" d="M643.27,-192.38C653.1,-170.93 666.02,-133.42 653.4,-104 645.73,-86.11 630.83,-70.68 616.56,-59.02"/>
<polygon fill="black" stroke="black" points="618.34,-55.97 608.3,-52.6 614.05,-61.49 618.34,-55.97"/>
<text text-anchor="start" x="658.4" y="-118.8" font-family="Times,serif" font-size="14.00">asg/</text>
</g>
<!-- LabaMap::VarName&#45;&gt;LabaMap::Error -->
<g id="edge55" class="edge">
<title>LabaMap::VarName&#45;&gt;LabaMap::Error</title>
<path fill="none" stroke="black" d="M655.44,-192.32C678.33,-171.44 709.52,-135.14 692.4,-104 684.93,-90.41 653.66,-71.74 626.21,-57.33"/>
<polygon fill="black" stroke="black" points="627.57,-54.1 617.08,-52.62 624.36,-60.32 627.57,-54.1"/>
<text text-anchor="start" x="696.4" y="-118.8" font-family="Times,serif" font-size="14.00">space/</text>
</g>
<!-- LabaMap::OK&#45;&gt;LabaMap::Error -->
<g id="edge56" class="edge">
<title>LabaMap::OK&#45;&gt;LabaMap::Error</title>
<path fill="none" stroke="black" d="M859.75,-104.36C848.61,-98.75 836.38,-92.34 825.4,-86 814.83,-79.9 813.79,-75.4 802.4,-71 751.96,-51.52 691.05,-42.72 645.96,-38.76"/>
<polygon fill="black" stroke="black" points="645.98,-35.25 635.73,-37.92 645.41,-42.22 645.98,-35.25"/>
<text text-anchor="start" x="825.4" y="-74.8" font-family="Times,serif" font-size="14.00">char/</text>
</g>
<!-- LabaMap::OK&#45;&gt;LabaMap::Error -->
<g id="edge57" class="edge">
<title>LabaMap::OK&#45;&gt;LabaMap::Error</title>
<path fill="none" stroke="black" d="M888.64,-104.09C883.29,-92.74 874.66,-78.66 862.4,-71 827.38,-49.1 717.32,-40.66 645.79,-37.44"/>
<polygon fill="black" stroke="black" points="645.66,-33.93 635.52,-37 645.37,-40.92 645.66,-33.93"/>
<text text-anchor="start" x="877.4" y="-74.8" font-family="Times,serif" font-size="14.00">num/</text>
</g>
<!-- LabaMap::OK&#45;&gt;LabaMap::Error -->
<g id="edge58" class="edge">
<title>LabaMap::OK&#45;&gt;LabaMap::Error</title>
<path fill="none" stroke="black" d="M912.35,-104.09C920.53,-93.58 926.91,-80.45 918.4,-71 900.52,-51.14 738.27,-41.59 645.58,-37.72"/>
<polygon fill="black" stroke="black" points="645.6,-34.21 635.46,-37.31 645.31,-41.21 645.6,-34.21"/>
<text text-anchor="start" x="922.4" y="-74.8" font-family="Times,serif" font-size="14.00">end/</text>
</g>
<!-- LabaMap::OK&#45;&gt;LabaMap::Error -->
<g id="edge59" class="edge">
<title>LabaMap::OK&#45;&gt;LabaMap::Error</title>
<path fill="none" stroke="black" d="M841.33,-107.02C836.63,-105.94 831.94,-104.91 827.4,-104 772.8,-93.04 755.5,-105.67 703.4,-86 691.98,-81.69 691.33,-76.43 680.4,-71 669.24,-65.45 656.99,-60.34 645.03,-55.83"/>
<polygon fill="black" stroke="black" points="646.12,-52.5 635.53,-52.34 643.71,-59.07 646.12,-52.5"/>
<text text-anchor="start" x="703.4" y="-74.8" font-family="Times,serif" font-size="14.00">asg/</text>
</g>
<!-- LabaMap::OK&#45;&gt;LabaMap::Error -->
<g id="edge60" class="edge">
<title>LabaMap::OK&#45;&gt;LabaMap::Error</title>
<path fill="none" stroke="black" d="M841.23,-107.47C836.56,-106.29 831.9,-105.12 827.4,-104 794.13,-95.73 783.24,-100.97 752.4,-86 742.72,-81.3 743.09,-75.67 733.4,-71 706.11,-57.86 673.68,-49.42 645.79,-44.09"/>
<polygon fill="black" stroke="black" points="646.21,-40.61 635.74,-42.26 644.95,-47.5 646.21,-40.61"/>
<text text-anchor="start" x="752.4" y="-74.8" font-family="Times,serif" font-size="14.00">space/</text>
</g>
<!-- LabaMap::Error&#45;&gt;LabaMap::Error -->
<g id="edge61" class="edge">
<title>LabaMap::Error&#45;&gt;LabaMap::Error</title>
<path fill="none" stroke="black" d="M635.41,-36.08C645.93,-35.89 653.4,-35.37 653.4,-34.5 653.4,-33.96 650.48,-33.55 645.73,-33.27"/>
<polygon fill="black" stroke="black" points="645.52,-29.77 635.41,-32.92 645.28,-36.76 645.52,-29.77"/>
<text text-anchor="start" x="653.4" y="-30.8" font-family="Times,serif" font-size="14.00">char/</text>
</g>
<!-- LabaMap::Error&#45;&gt;LabaMap::Error -->
<g id="edge62" class="edge">
<title>LabaMap::Error&#45;&gt;LabaMap::Error</title>
<path fill="none" stroke="black" d="M635.64,-37.72C663.82,-38.12 690.4,-37.05 690.4,-34.5 690.4,-32.26 669.87,-31.16 645.76,-31.2"/>
<polygon fill="black" stroke="black" points="645.61,-27.7 635.64,-31.28 645.67,-34.7 645.61,-27.7"/>
<text text-anchor="start" x="690.4" y="-30.8" font-family="Times,serif" font-size="14.00">num/</text>
</g>
<!-- LabaMap::Error&#45;&gt;LabaMap::Error -->
<g id="edge63" class="edge">
<title>LabaMap::Error&#45;&gt;LabaMap::Error</title>
<path fill="none" stroke="black" d="M635.76,-38.92C678.89,-40.36 727.4,-38.88 727.4,-34.5 727.4,-30.46 686.18,-28.89 645.94,-29.8"/>
<polygon fill="black" stroke="black" points="645.66,-26.31 635.76,-30.08 645.85,-33.3 645.66,-26.31"/>
<text text-anchor="start" x="727.4" y="-30.8" font-family="Times,serif" font-size="14.00">end/</text>
</g>
<!-- LabaMap::Error&#45;&gt;LabaMap::Error -->
<g id="edge64" class="edge">
<title>LabaMap::Error&#45;&gt;LabaMap::Error</title>
<path fill="none" stroke="black" d="M635.63,-39.93C690.17,-42.56 758.4,-40.76 758.4,-34.5 758.4,-28.62 698.18,-26.67 645.67,-28.64"/>
<polygon fill="black" stroke="black" points="645.47,-25.15 635.63,-29.07 645.77,-32.14 645.47,-25.15"/>
<text text-anchor="start" x="758.4" y="-30.8" font-family="Times,serif" font-size="14.00">asg/</text>
</g>
<!-- LabaMap::Error&#45;&gt;LabaMap::Error -->
<g id="edge65" class="edge">
<title>LabaMap::Error&#45;&gt;LabaMap::Error</title>
<path fill="none" stroke="black" d="M635.52,-40.78C700.36,-44.78 788.4,-42.69 788.4,-34.5 788.4,-26.73 709.07,-24.45 645.56,-27.66"/>
<polygon fill="black" stroke="black" points="645.31,-24.16 635.52,-28.22 645.7,-31.15 645.31,-24.16"/>
<text text-anchor="start" x="788.4" y="-30.8" font-family="Times,serif" font-size="14.00">space/</text>
</g>
<!-- %3 -->
<g id="node12" class="node">
<title>%3</title>
<ellipse fill="black" stroke="black" cx="976.4" cy="-891" rx="9" ry="9"/>
</g>
<!-- %3&#45;&gt;LabaMap::Start -->
<g id="edge66" class="edge">
<title>%3&#45;&gt;LabaMap::Start</title>
<path fill="none" stroke="black" d="M976.4,-881.83C976.4,-874.93 976.4,-864.63 976.4,-854.86"/>
<polygon fill="black" stroke="black" points="979.9,-854.64 976.4,-844.64 972.9,-854.64 979.9,-854.64"/>
</g>
</g>
</svg>
