<?xml version="1.0" encoding="UTF-8" standalone="no"?>
<!DOCTYPE svg PUBLIC "-//W3C//DTD SVG 1.1//EN"
 "http://www.w3.org/Graphics/SVG/1.1/DTD/svg11.dtd">
<!-- Generated by graphviz version 2.43.0 (0)
 -->
<!-- Title: laba1 Pages: 1 -->
<svg width="1557pt" height="1543pt"
 viewBox="0.00 0.00 1557.00 1543.00" xmlns="http://www.w3.org/2000/svg" xmlns:xlink="http://www.w3.org/1999/xlink">
<g id="graph0" class="graph" transform="scale(1 1) rotate(0) translate(4 1539)">
<title>laba1</title>
<polygon fill="white" stroke="transparent" points="-4,4 -4,-1539 1553,-1539 1553,4 -4,4"/>
<g id="clust1" class="cluster">
<title>cluster_LabaMap</title>
<polygon fill="none" stroke="black" points="8,-8 8,-1527 1541,-1527 1541,-8 8,-8"/>
<text text-anchor="middle" x="774.5" y="-1511.8" font-family="Times,serif" font-size="14.00">LabaMap</text>
</g>
<!-- LabaMap::Start -->
<g id="node1" class="node">
<title>LabaMap::Start</title>
<path fill="none" stroke="black" d="M1297,-1404.5C1297,-1404.5 1381,-1404.5 1381,-1404.5 1387,-1404.5 1393,-1410.5 1393,-1416.5 1393,-1416.5 1393,-1428.5 1393,-1428.5 1393,-1434.5 1387,-1440.5 1381,-1440.5 1381,-1440.5 1297,-1440.5 1297,-1440.5 1291,-1440.5 1285,-1434.5 1285,-1428.5 1285,-1428.5 1285,-1416.5 1285,-1416.5 1285,-1410.5 1291,-1404.5 1297,-1404.5"/>
<text text-anchor="middle" x="1339" y="-1418.8" font-family="Times,serif" font-size="14.00">Start</text>
</g>
<!-- LabaMap::Line -->
<g id="node2" class="node">
<title>LabaMap::Line</title>
<path fill="none" stroke="black" d="M1101,-1301.5C1101,-1301.5 1185,-1301.5 1185,-1301.5 1191,-1301.5 1197,-1307.5 1197,-1313.5 1197,-1313.5 1197,-1325.5 1197,-1325.5 1197,-1331.5 1191,-1337.5 1185,-1337.5 1185,-1337.5 1101,-1337.5 1101,-1337.5 1095,-1337.5 1089,-1331.5 1089,-1325.5 1089,-1325.5 1089,-1313.5 1089,-1313.5 1089,-1307.5 1095,-1301.5 1101,-1301.5"/>
<text text-anchor="middle" x="1143" y="-1315.8" font-family="Times,serif" font-size="14.00">Line</text>
</g>
<!-- LabaMap::Start&#45;&gt;LabaMap::Line -->
<g id="edge1" class="edge">
<title>LabaMap::Start&#45;&gt;LabaMap::Line</title>
<path fill="none" stroke="black" d="M1284.94,-1408.03C1266.63,-1402.45 1246.43,-1395.11 1229,-1386 1207.47,-1374.75 1185.73,-1358.13 1169.49,-1344.45"/>
<polygon fill="black" stroke="black" points="1171.39,-1341.47 1161.53,-1337.61 1166.83,-1346.78 1171.39,-1341.47"/>
<text text-anchor="start" x="1229" y="-1374.8" font-family="Times,serif" font-size="14.00">num()/</text>
<text text-anchor="start" x="1229" y="-1359.8" font-family="Times,serif" font-size="14.00">addC();</text>
</g>
<!-- LabaMap::Error -->
<g id="node14" class="node">
<title>LabaMap::Error</title>
<path fill="none" stroke="black" d="M848,-16.5C848,-16.5 932,-16.5 932,-16.5 938,-16.5 944,-22.5 944,-28.5 944,-28.5 944,-185.5 944,-185.5 944,-191.5 938,-197.5 932,-197.5 932,-197.5 848,-197.5 848,-197.5 842,-197.5 836,-191.5 836,-185.5 836,-185.5 836,-28.5 836,-28.5 836,-22.5 842,-16.5 848,-16.5"/>
<text text-anchor="middle" x="890" y="-182.3" font-family="Times,serif" font-size="14.00">Error</text>
<polyline fill="none" stroke="black" points="836,-174.5 944,-174.5 "/>
<text text-anchor="start" x="844" y="-159.3" font-family="Times,serif" font-size="14.00">char()/</text>
<text text-anchor="start" x="844" y="-144.3" font-family="Times,serif" font-size="14.00">   stop();</text>
<text text-anchor="start" x="844" y="-129.3" font-family="Times,serif" font-size="14.00">num()/</text>
<text text-anchor="start" x="844" y="-114.3" font-family="Times,serif" font-size="14.00">   stop();</text>
<text text-anchor="start" x="844" y="-99.3" font-family="Times,serif" font-size="14.00">end()/</text>
<text text-anchor="start" x="844" y="-84.3" font-family="Times,serif" font-size="14.00">   stop();</text>
<text text-anchor="start" x="844" y="-69.3" font-family="Times,serif" font-size="14.00">asg()/</text>
<text text-anchor="start" x="844" y="-54.3" font-family="Times,serif" font-size="14.00">   stop();</text>
<text text-anchor="start" x="844" y="-39.3" font-family="Times,serif" font-size="14.00">space()/</text>
<text text-anchor="start" x="844" y="-24.3" font-family="Times,serif" font-size="14.00">   stop();</text>
</g>
<!-- LabaMap::Start&#45;&gt;LabaMap::Error -->
<g id="edge2" class="edge">
<title>LabaMap::Start&#45;&gt;LabaMap::Error</title>
<path fill="none" stroke="black" d="M1336.37,-1404.26C1325.37,-1331.3 1283.1,-1040.65 1270,-800 1269.28,-786.69 1261.54,-780.3 1270,-770 1296.17,-738.14 1334.83,-783.86 1361,-752 1388.52,-718.51 1329.86,-396.39 1298,-367 1274.7,-345.51 1249.48,-373.18 1229,-349 1209.82,-326.36 1235.45,-239.24 1217,-216 1153.81,-136.39 1030.34,-114.89 954.52,-109.42"/>
<polygon fill="black" stroke="black" points="954.35,-105.9 944.15,-108.75 953.9,-112.89 954.35,-105.9"/>
<text text-anchor="start" x="1270" y="-788.8" font-family="Times,serif" font-size="14.00">char()/</text>
<text text-anchor="start" x="1270" y="-773.8" font-family="Times,serif" font-size="14.00">stop();</text>
</g>
<!-- LabaMap::Start&#45;&gt;LabaMap::Error -->
<g id="edge3" class="edge">
<title>LabaMap::Start&#45;&gt;LabaMap::Error</title>
<path fill="none" stroke="black" d="M1339,-1404.34C1339,-1384.25 1339,-1349.96 1339,-1320.5 1339,-1320.5 1339,-1320.5 1339,-839.5 1339,-808.61 1324.79,-796.89 1340,-770 1347.47,-756.8 1361.27,-765.05 1369,-752 1442.38,-628.15 1372.43,-568.73 1334,-430 1326.12,-401.56 1334.81,-386.89 1313,-367 1287.03,-343.32 1258.96,-375.61 1236,-349 1216.63,-326.55 1243.43,-239.23 1225,-216 1159.93,-133.99 1031.94,-113.38 954.37,-108.71"/>
<polygon fill="black" stroke="black" points="954.41,-105.21 944.24,-108.18 954.04,-112.2 954.41,-105.21"/>
<text text-anchor="start" x="1340" y="-788.8" font-family="Times,serif" font-size="14.00">end()/</text>
<text text-anchor="start" x="1340" y="-773.8" font-family="Times,serif" font-size="14.00">stop();</text>
</g>
<!-- LabaMap::Start&#45;&gt;LabaMap::Error -->
<g id="edge4" class="edge">
<title>LabaMap::Start&#45;&gt;LabaMap::Error</title>
<path fill="none" stroke="black" d="M1360.45,-1404.22C1380.71,-1385.82 1408,-1354.69 1408,-1320.5 1408,-1320.5 1408,-1320.5 1408,-839.5 1408,-787.15 1410.45,-655.81 1403,-604 1399.85,-582.12 1396.44,-577.14 1390,-556 1383.54,-534.79 1342.54,-381.77 1326,-367 1297.85,-341.86 1267.78,-377.47 1243,-349 1223.54,-326.64 1251.41,-239.22 1233,-216 1166.18,-131.73 1033.97,-111.97 954.64,-108.06"/>
<polygon fill="black" stroke="black" points="954.42,-104.55 944.28,-107.62 954.13,-111.54 954.42,-104.55"/>
<text text-anchor="start" x="1408" y="-788.8" font-family="Times,serif" font-size="14.00">asg()/</text>
<text text-anchor="start" x="1408" y="-773.8" font-family="Times,serif" font-size="14.00">stop();</text>
</g>
<!-- LabaMap::Start&#45;&gt;LabaMap::Error -->
<g id="edge5" class="edge">
<title>LabaMap::Start&#45;&gt;LabaMap::Error</title>
<path fill="none" stroke="black" d="M1393.15,-1405.75C1431.81,-1390.79 1477,-1364 1477,-1320.5 1477,-1320.5 1477,-1320.5 1477,-839.5 1477,-792.77 1399.11,-473.08 1381,-430 1368.15,-399.43 1367.99,-386.28 1341,-367 1313.11,-347.07 1289.63,-373.83 1266,-349 1224.54,-305.43 1281.07,-260.86 1241,-216 1167.83,-134.09 1034.2,-113.51 954.61,-108.81"/>
<polygon fill="black" stroke="black" points="954.39,-105.3 944.22,-108.27 954.03,-112.29 954.39,-105.3"/>
<text text-anchor="start" x="1471" y="-788.8" font-family="Times,serif" font-size="14.00">space()/</text>
<text text-anchor="start" x="1471" y="-773.8" font-family="Times,serif" font-size="14.00">stop();</text>
</g>
<!-- LabaMap::Line&#45;&gt;LabaMap::Line -->
<g id="edge6" class="edge">
<title>LabaMap::Line&#45;&gt;LabaMap::Line</title>
<path fill="none" stroke="black" d="M1197.01,-1328.46C1207.53,-1327.42 1215,-1324.43 1215,-1319.5 1215,-1316.34 1211.93,-1313.98 1206.96,-1312.42"/>
<polygon fill="black" stroke="black" points="1207.48,-1308.95 1197.01,-1310.54 1206.19,-1315.83 1207.48,-1308.95"/>
<text text-anchor="start" x="1215" y="-1323.3" font-family="Times,serif" font-size="14.00">num()/</text>
<text text-anchor="start" x="1215" y="-1308.3" font-family="Times,serif" font-size="14.00">addC();</text>
</g>
<!-- LabaMap::PreTypeSpace -->
<g id="node3" class="node">
<title>LabaMap::PreTypeSpace</title>
<path fill="none" stroke="black" d="M101.5,-1198.5C101.5,-1198.5 196.5,-1198.5 196.5,-1198.5 202.5,-1198.5 208.5,-1204.5 208.5,-1210.5 208.5,-1210.5 208.5,-1222.5 208.5,-1222.5 208.5,-1228.5 202.5,-1234.5 196.5,-1234.5 196.5,-1234.5 101.5,-1234.5 101.5,-1234.5 95.5,-1234.5 89.5,-1228.5 89.5,-1222.5 89.5,-1222.5 89.5,-1210.5 89.5,-1210.5 89.5,-1204.5 95.5,-1198.5 101.5,-1198.5"/>
<text text-anchor="middle" x="149" y="-1212.8" font-family="Times,serif" font-size="14.00">PreTypeSpace</text>
</g>
<!-- LabaMap::Line&#45;&gt;LabaMap::PreTypeSpace -->
<g id="edge7" class="edge">
<title>LabaMap::Line&#45;&gt;LabaMap::PreTypeSpace</title>
<path fill="none" stroke="black" d="M1088.85,-1313C920.58,-1295.9 406.79,-1243.69 218.83,-1224.6"/>
<polygon fill="black" stroke="black" points="219.09,-1221.1 208.79,-1223.58 218.38,-1228.07 219.09,-1221.1"/>
<text text-anchor="start" x="793" y="-1271.8" font-family="Times,serif" font-size="14.00">space()/</text>
<text text-anchor="start" x="793" y="-1256.8" font-family="Times,serif" font-size="14.00">saveLine();</text>
</g>
<!-- LabaMap::Line&#45;&gt;LabaMap::Error -->
<g id="edge8" class="edge">
<title>LabaMap::Line&#45;&gt;LabaMap::Error</title>
<path fill="none" stroke="black" d="M1143.55,-1301.35C1144.14,-1281.25 1145,-1246.96 1145,-1217.5 1145,-1217.5 1145,-1217.5 1145,-784 1145,-752.71 1139.34,-739.34 1159,-715 1161.88,-711.44 1307.49,-652.83 1310,-649 1320.95,-632.26 1312.24,-623.87 1310,-604 1306.98,-577.16 1273.77,-387.34 1256,-367 1241.01,-349.84 1222.01,-366.97 1208,-349 1189.71,-325.54 1211.48,-239.31 1193,-216 1135.3,-143.22 1024.68,-119.42 954.25,-111.68"/>
<polygon fill="black" stroke="black" points="954.47,-108.18 944.17,-110.65 953.76,-115.15 954.47,-108.18"/>
<text text-anchor="start" x="1159" y="-737.3" font-family="Times,serif" font-size="14.00">char()/</text>
<text text-anchor="start" x="1159" y="-722.3" font-family="Times,serif" font-size="14.00">stop();</text>
</g>
<!-- LabaMap::Line&#45;&gt;LabaMap::Error -->
<g id="edge9" class="edge">
<title>LabaMap::Line&#45;&gt;LabaMap::Error</title>
<path fill="none" stroke="black" d="M1169.4,-1301.45C1193.37,-1283.68 1225,-1253.41 1225,-1217.5 1225,-1217.5 1225,-1217.5 1225,-895 1225,-814.64 1205.49,-786.58 1242,-715 1262.17,-675.45 1298.71,-689.46 1317,-649 1330.09,-620.04 1290.81,-390.12 1269,-367 1251.64,-348.6 1230.85,-368.72 1215,-349 1196.38,-325.83 1219.47,-239.28 1201,-216 1141.49,-141 1026.7,-117.91 954.46,-110.91"/>
<polygon fill="black" stroke="black" points="954.39,-107.39 944.12,-109.99 953.77,-114.36 954.39,-107.39"/>
<text text-anchor="start" x="1242" y="-737.3" font-family="Times,serif" font-size="14.00">end()/</text>
<text text-anchor="start" x="1242" y="-722.3" font-family="Times,serif" font-size="14.00">stop();</text>
</g>
<!-- LabaMap::Line&#45;&gt;LabaMap::Error -->
<g id="edge10" class="edge">
<title>LabaMap::Line&#45;&gt;LabaMap::Error</title>
<path fill="none" stroke="black" d="M1182.54,-1301.47C1191.58,-1296.4 1200.67,-1290.22 1208,-1283 1231.81,-1259.53 1245,-1250.93 1245,-1217.5 1245,-1217.5 1245,-1217.5 1245,-839.5 1245,-808.53 1232.51,-795.56 1250,-770 1260.55,-754.58 1275.57,-765.95 1288,-752 1320.17,-715.91 1315.12,-696.7 1323,-649 1333.33,-586.52 1326.48,-412.07 1282,-367 1262.44,-347.18 1239.69,-370.5 1222,-349 1203.13,-326.07 1227.46,-239.26 1209,-216 1147.55,-138.58 1028.15,-116.31 954.14,-110.12"/>
<polygon fill="black" stroke="black" points="954.24,-106.62 944,-109.35 953.71,-113.6 954.24,-106.62"/>
<text text-anchor="start" x="1311" y="-737.3" font-family="Times,serif" font-size="14.00">asg()/</text>
<text text-anchor="start" x="1311" y="-722.3" font-family="Times,serif" font-size="14.00">stop();</text>
</g>
<!-- LabaMap::PreTypeSpace&#45;&gt;LabaMap::PreTypeSpace -->
<g id="edge11" class="edge">
<title>LabaMap::PreTypeSpace&#45;&gt;LabaMap::PreTypeSpace</title>
<path fill="none" stroke="black" d="M208.79,-1225.29C219.23,-1224.12 226.5,-1221.19 226.5,-1216.5 226.5,-1213.5 223.52,-1211.22 218.63,-1209.66"/>
<polygon fill="black" stroke="black" points="219.28,-1206.22 208.79,-1207.71 217.92,-1213.08 219.28,-1206.22"/>
<text text-anchor="start" x="226.5" y="-1212.8" font-family="Times,serif" font-size="14.00">space()/</text>
</g>
<!-- LabaMap::PreType -->
<g id="node4" class="node">
<title>LabaMap::PreType</title>
<path fill="none" stroke="black" d="M737,-1055.5C737,-1055.5 871,-1055.5 871,-1055.5 877,-1055.5 883,-1061.5 883,-1067.5 883,-1067.5 883,-1119.5 883,-1119.5 883,-1125.5 877,-1131.5 871,-1131.5 871,-1131.5 737,-1131.5 737,-1131.5 731,-1131.5 725,-1125.5 725,-1119.5 725,-1119.5 725,-1067.5 725,-1067.5 725,-1061.5 731,-1055.5 737,-1055.5"/>
<text text-anchor="middle" x="804" y="-1116.3" font-family="Times,serif" font-size="14.00">PreType</text>
<polyline fill="none" stroke="black" points="725,-1108.5 883,-1108.5 "/>
<text text-anchor="start" x="733" y="-1093.3" font-family="Times,serif" font-size="14.00">char()</text>
<text text-anchor="start" x="733" y="-1078.3" font-family="Times,serif" font-size="14.00">[ctxt.nameGuard()]/</text>
<text text-anchor="start" x="733" y="-1063.3" font-family="Times,serif" font-size="14.00">   addC();</text>
</g>
<!-- LabaMap::PreTypeSpace&#45;&gt;LabaMap::PreType -->
<g id="edge12" class="edge">
<title>LabaMap::PreTypeSpace&#45;&gt;LabaMap::PreType</title>
<path fill="none" stroke="black" d="M208.57,-1204.5C324.1,-1183.15 579.13,-1136.04 714.89,-1110.96"/>
<polygon fill="black" stroke="black" points="715.66,-1114.38 724.85,-1109.12 714.38,-1107.5 715.66,-1114.38"/>
<text text-anchor="start" x="496" y="-1168.8" font-family="Times,serif" font-size="14.00">char()/</text>
<text text-anchor="start" x="496" y="-1153.8" font-family="Times,serif" font-size="14.00">addC();</text>
</g>
<!-- LabaMap::PreTypeSpace&#45;&gt;LabaMap::Error -->
<g id="edge13" class="edge">
<title>LabaMap::PreTypeSpace&#45;&gt;LabaMap::Error</title>
<path fill="none" stroke="black" d="M115.43,-1198.45C81.48,-1178.54 34,-1142.17 34,-1094.5 34,-1094.5 34,-1094.5 34,-732.5 34,-608.27 17,-577.73 17,-453.5 17,-453.5 17,-453.5 17,-281.5 17,-251.64 9.85,-236.04 32,-216 90.79,-162.81 636.75,-123.86 825.87,-111.87"/>
<polygon fill="black" stroke="black" points="826.18,-115.36 835.94,-111.24 825.74,-108.37 826.18,-115.36"/>
<text text-anchor="start" x="34" y="-685.8" font-family="Times,serif" font-size="14.00">num()/</text>
<text text-anchor="start" x="34" y="-670.8" font-family="Times,serif" font-size="14.00">stop();</text>
</g>
<!-- LabaMap::PreTypeSpace&#45;&gt;LabaMap::Error -->
<g id="edge14" class="edge">
<title>LabaMap::PreTypeSpace&#45;&gt;LabaMap::Error</title>
<path fill="none" stroke="black" d="M138.11,-1198.21C124.79,-1175.38 104,-1133.5 104,-1094.5 104,-1094.5 104,-1094.5 104,-732.5 104,-701.79 92.07,-696.01 82,-667 69.47,-630.87 61.79,-623.21 53,-586 39.36,-528.27 37,-512.82 37,-453.5 37,-453.5 37,-453.5 37,-281.5 37,-251.64 29.88,-236.07 52,-216 165.23,-113.25 649.77,-106.23 825.78,-107.16"/>
<polygon fill="black" stroke="black" points="825.9,-110.66 835.93,-107.22 825.95,-103.66 825.9,-110.66"/>
<text text-anchor="start" x="95" y="-685.8" font-family="Times,serif" font-size="14.00">end()/</text>
<text text-anchor="start" x="95" y="-670.8" font-family="Times,serif" font-size="14.00">stop();</text>
</g>
<!-- LabaMap::PreTypeSpace&#45;&gt;LabaMap::Error -->
<g id="edge15" class="edge">
<title>LabaMap::PreTypeSpace&#45;&gt;LabaMap::Error</title>
<path fill="none" stroke="black" d="M149,-1198.27C149,-1174.8 149,-1131.47 149,-1094.5 149,-1094.5 149,-1094.5 149,-895 149,-793.65 179.46,-762.31 145,-667 129.31,-623.59 99.28,-627.94 80,-586 73.65,-572.18 57,-473.06 57,-453.5 57,-453.5 57,-453.5 57,-281.5 57,-251.53 50.7,-236.01 73,-216 183.62,-116.74 652.78,-107.46 825.68,-107.49"/>
<polygon fill="black" stroke="black" points="825.89,-110.99 835.9,-107.5 825.9,-103.99 825.89,-110.99"/>
<text text-anchor="start" x="154" y="-685.8" font-family="Times,serif" font-size="14.00">asg()/</text>
<text text-anchor="start" x="154" y="-670.8" font-family="Times,serif" font-size="14.00">stop();</text>
</g>
<!-- LabaMap::PreNameSpace -->
<g id="node5" class="node">
<title>LabaMap::PreNameSpace</title>
<path fill="none" stroke="black" d="M180,-933.5C180,-933.5 282,-933.5 282,-933.5 288,-933.5 294,-939.5 294,-945.5 294,-945.5 294,-957.5 294,-957.5 294,-963.5 288,-969.5 282,-969.5 282,-969.5 180,-969.5 180,-969.5 174,-969.5 168,-963.5 168,-957.5 168,-957.5 168,-945.5 168,-945.5 168,-939.5 174,-933.5 180,-933.5"/>
<text text-anchor="middle" x="231" y="-947.8" font-family="Times,serif" font-size="14.00">PreNameSpace</text>
</g>
<!-- LabaMap::PreType&#45;&gt;LabaMap::PreNameSpace -->
<g id="edge17" class="edge">
<title>LabaMap::PreType&#45;&gt;LabaMap::PreNameSpace</title>
<path fill="none" stroke="black" d="M724.73,-1089.73C579.55,-1083.93 282.6,-1068.34 248,-1037 232.35,-1022.83 228.79,-998.61 228.74,-979.72"/>
<polygon fill="black" stroke="black" points="232.24,-979.71 229.04,-969.61 225.25,-979.5 232.24,-979.71"/>
<text text-anchor="start" x="248" y="-1025.8" font-family="Times,serif" font-size="14.00">space()</text>
<text text-anchor="start" x="248" y="-1010.8" font-family="Times,serif" font-size="14.00">[ctxt.typeGuard()]/</text>
<text text-anchor="start" x="248" y="-995.8" font-family="Times,serif" font-size="14.00">saveType();</text>
</g>
<!-- LabaMap::PreName -->
<g id="node6" class="node">
<title>LabaMap::PreName</title>
<path fill="none" stroke="black" d="M346,-822.5C346,-822.5 430,-822.5 430,-822.5 436,-822.5 442,-828.5 442,-834.5 442,-834.5 442,-846.5 442,-846.5 442,-852.5 436,-858.5 430,-858.5 430,-858.5 346,-858.5 346,-858.5 340,-858.5 334,-852.5 334,-846.5 334,-846.5 334,-834.5 334,-834.5 334,-828.5 340,-822.5 346,-822.5"/>
<text text-anchor="middle" x="388" y="-836.8" font-family="Times,serif" font-size="14.00">PreName</text>
</g>
<!-- LabaMap::PreType&#45;&gt;LabaMap::PreName -->
<g id="edge16" class="edge">
<title>LabaMap::PreType&#45;&gt;LabaMap::PreName</title>
<path fill="none" stroke="black" d="M742.62,-1055.46C655.05,-1002.63 496.96,-907.24 425.21,-863.95"/>
<polygon fill="black" stroke="black" points="426.86,-860.86 416.49,-858.69 423.25,-866.85 426.86,-860.86"/>
<text text-anchor="start" x="602" y="-962.8" font-family="Times,serif" font-size="14.00">num()</text>
<text text-anchor="start" x="602" y="-947.8" font-family="Times,serif" font-size="14.00">[ctxt.nameGuard()]/</text>
<text text-anchor="start" x="602" y="-932.8" font-family="Times,serif" font-size="14.00">addC();</text>
</g>
<!-- LabaMap::PreAsgSpace -->
<g id="node7" class="node">
<title>LabaMap::PreAsgSpace</title>
<path fill="none" stroke="black" d="M720,-715.5C720,-715.5 806,-715.5 806,-715.5 812,-715.5 818,-721.5 818,-727.5 818,-727.5 818,-739.5 818,-739.5 818,-745.5 812,-751.5 806,-751.5 806,-751.5 720,-751.5 720,-751.5 714,-751.5 708,-745.5 708,-739.5 708,-739.5 708,-727.5 708,-727.5 708,-721.5 714,-715.5 720,-715.5"/>
<text text-anchor="middle" x="763" y="-729.8" font-family="Times,serif" font-size="14.00">PreAsgSpace</text>
</g>
<!-- LabaMap::PreType&#45;&gt;LabaMap::PreAsgSpace -->
<g id="edge18" class="edge">
<title>LabaMap::PreType&#45;&gt;LabaMap::PreAsgSpace</title>
<path fill="none" stroke="black" d="M805.69,-1055.38C809.04,-976.02 815.21,-795.04 803,-770 801.02,-765.95 798.36,-762.15 795.34,-758.67"/>
<polygon fill="black" stroke="black" points="797.8,-756.19 788.28,-751.55 792.83,-761.11 797.8,-756.19"/>
<text text-anchor="start" x="810" y="-899.8" font-family="Times,serif" font-size="14.00">space()/</text>
<text text-anchor="start" x="810" y="-884.8" font-family="Times,serif" font-size="14.00">saveName();</text>
</g>
<!-- LabaMap::ASG -->
<g id="node8" class="node">
<title>LabaMap::ASG</title>
<path fill="none" stroke="black" d="M362,-608.5C362,-608.5 446,-608.5 446,-608.5 452,-608.5 458,-614.5 458,-620.5 458,-620.5 458,-632.5 458,-632.5 458,-638.5 452,-644.5 446,-644.5 446,-644.5 362,-644.5 362,-644.5 356,-644.5 350,-638.5 350,-632.5 350,-632.5 350,-620.5 350,-620.5 350,-614.5 356,-608.5 362,-608.5"/>
<text text-anchor="middle" x="404" y="-622.8" font-family="Times,serif" font-size="14.00">ASG</text>
</g>
<!-- LabaMap::PreType&#45;&gt;LabaMap::ASG -->
<g id="edge20" class="edge">
<title>LabaMap::PreType&#45;&gt;LabaMap::ASG</title>
<path fill="none" stroke="black" d="M724.81,-1066.83C697.78,-1057.77 667.45,-1047.27 640,-1037 521.65,-992.72 497.35,-967.5 377,-929 343.53,-918.29 331.9,-925.74 300,-911 267.4,-895.94 251.18,-895.06 235,-863 192.21,-778.21 304.35,-690.45 366.25,-650.18"/>
<polygon fill="black" stroke="black" points="368.45,-652.93 374.99,-644.59 364.68,-647.03 368.45,-652.93"/>
<text text-anchor="start" x="235" y="-844.3" font-family="Times,serif" font-size="14.00">asg()/</text>
<text text-anchor="start" x="235" y="-829.3" font-family="Times,serif" font-size="14.00">saveName();</text>
</g>
<!-- LabaMap::OK -->
<g id="node13" class="node">
<title>LabaMap::OK</title>
<path fill="none" stroke="black" d="M716,-264.5C716,-264.5 800,-264.5 800,-264.5 806,-264.5 812,-270.5 812,-276.5 812,-276.5 812,-288.5 812,-288.5 812,-294.5 806,-300.5 800,-300.5 800,-300.5 716,-300.5 716,-300.5 710,-300.5 704,-294.5 704,-288.5 704,-288.5 704,-276.5 704,-276.5 704,-270.5 710,-264.5 716,-264.5"/>
<text text-anchor="middle" x="758" y="-278.8" font-family="Times,serif" font-size="14.00">OK</text>
</g>
<!-- LabaMap::PreType&#45;&gt;LabaMap::OK -->
<g id="edge22" class="edge">
<title>LabaMap::PreType&#45;&gt;LabaMap::OK</title>
<path fill="none" stroke="black" d="M802.65,-1055.48C802.43,-1049.31 802.21,-1042.97 802,-1037 801.48,-1022.17 802.65,-781.28 793,-770 765.35,-737.68 730.21,-780.9 699,-752 670.85,-725.94 667.57,-701.67 684,-667 702.94,-627.04 720.66,-622.1 761,-604 807.4,-583.18 834.45,-617.97 874,-586 908.47,-558.14 887.52,-531.2 910,-493 915.28,-484.03 921.45,-484.79 925,-475 941.52,-429.37 934.09,-408.54 909,-367 902.82,-356.76 897.87,-357.02 889,-349 874.3,-335.7 872.97,-329.24 856,-319 845.36,-312.58 833.38,-307.06 821.55,-302.4"/>
<polygon fill="black" stroke="black" points="822.7,-299.1 812.11,-298.86 820.24,-305.65 822.7,-299.1"/>
<text text-anchor="start" x="684" y="-685.8" font-family="Times,serif" font-size="14.00">end()/</text>
<text text-anchor="start" x="684" y="-670.8" font-family="Times,serif" font-size="14.00">saveName();</text>
</g>
<!-- LabaMap::PreType&#45;&gt;LabaMap::Error -->
<g id="edge19" class="edge">
<title>LabaMap::PreType&#45;&gt;LabaMap::Error</title>
<path fill="none" stroke="black" d="M883.16,-1070.35C937.55,-1049.74 1000,-1012.93 1000,-952.5 1000,-952.5 1000,-952.5 1000,-681 1000,-646.22 992.08,-631.01 1014,-604 1063,-543.64 1120.35,-592.29 1176,-538 1233.14,-482.25 1273.69,-434.46 1231,-367 1221.01,-351.21 1204.14,-364 1193,-349 1157.36,-301.01 1210.48,-262.56 1173,-216 1119.48,-149.51 1020.06,-123.92 954.46,-114.09"/>
<polygon fill="black" stroke="black" points="954.62,-110.58 944.23,-112.64 953.64,-117.51 954.62,-110.58"/>
<text text-anchor="start" x="1014" y="-637.8" font-family="Times,serif" font-size="14.00">asg()</text>
<text text-anchor="start" x="1014" y="-622.8" font-family="Times,serif" font-size="14.00">[ctxt.nullGuard()]/</text>
<text text-anchor="start" x="1014" y="-607.8" font-family="Times,serif" font-size="14.00">stop();</text>
</g>
<!-- LabaMap::PreType&#45;&gt;LabaMap::Error -->
<g id="edge21" class="edge">
<title>LabaMap::PreType&#45;&gt;LabaMap::Error</title>
<path fill="none" stroke="black" d="M883.08,-1089.23C973.15,-1080.78 1108,-1051.57 1108,-952.5 1108,-952.5 1108,-952.5 1108,-784 1108,-752.62 1112.52,-744.58 1123,-715 1127.99,-700.93 1240.55,-489.53 1244,-475 1255.11,-428.3 1270.59,-406.96 1244,-367 1232.52,-349.75 1213.55,-365.48 1201,-349 1182.95,-325.29 1202.57,-239.3 1184,-216 1128.23,-146.03 1022.68,-121.39 954.39,-112.71"/>
<polygon fill="black" stroke="black" points="954.53,-109.2 944.18,-111.5 953.7,-116.15 954.53,-109.2"/>
<text text-anchor="start" x="1178" y="-637.8" font-family="Times,serif" font-size="14.00">end()</text>
<text text-anchor="start" x="1178" y="-622.8" font-family="Times,serif" font-size="14.00">[ctxt.nullGuard()]/</text>
<text text-anchor="start" x="1178" y="-607.8" font-family="Times,serif" font-size="14.00">stop();</text>
</g>
<!-- LabaMap::PreType&#45;&gt;LabaMap::Error -->
<g id="edge23" class="edge">
<title>LabaMap::PreType&#45;&gt;LabaMap::Error</title>
<path fill="none" stroke="black" d="M831.93,-1055.26C856.38,-1020.15 890.11,-965.01 904,-911 909.53,-889.52 929.47,-793.64 901,-715 888.19,-679.63 860.49,-684.49 848,-649 841.36,-630.13 835.77,-619.83 848,-604 867.38,-578.92 893.86,-607.65 917,-586 927.26,-576.4 916.45,-565.29 927,-556 957.94,-528.75 978.83,-550.87 1018,-538 1080.52,-517.46 1113.29,-528.22 1152,-475 1168.6,-452.17 1158.22,-440.17 1160,-412 1166.05,-316.34 1143.55,-277.47 1070,-216 1034.17,-186.05 989.11,-159.03 953.04,-139.5"/>
<polygon fill="black" stroke="black" points="954.54,-136.33 944.07,-134.7 951.24,-142.5 954.54,-136.33"/>
<text text-anchor="start" x="848" y="-630.3" font-family="Times,serif" font-size="14.00">char()/</text>
<text text-anchor="start" x="848" y="-615.3" font-family="Times,serif" font-size="14.00">stop();</text>
</g>
<!-- LabaMap::PreType&#45;&gt;LabaMap::Error -->
<g id="edge24" class="edge">
<title>LabaMap::PreType&#45;&gt;LabaMap::Error</title>
<path fill="none" stroke="black" d="M865.64,-1055.43C898,-1030.87 931,-995.33 931,-952.5 931,-952.5 931,-952.5 931,-784 931,-703.68 904.18,-671.95 947,-604 969.31,-568.6 989.93,-573.38 1028,-556 1051.01,-545.49 1059.77,-550.07 1082,-538 1121.47,-516.57 1140.24,-514.82 1161,-475 1183.2,-432.41 1167.49,-414.97 1165,-367 1161.12,-292.36 1150.5,-261.22 1091,-216 1048.34,-183.58 994.64,-155.26 953.48,-135.77"/>
<polygon fill="black" stroke="black" points="954.91,-132.57 944.37,-131.5 951.94,-138.91 954.91,-132.57"/>
<text text-anchor="start" x="947" y="-630.3" font-family="Times,serif" font-size="14.00">num()/</text>
<text text-anchor="start" x="947" y="-615.3" font-family="Times,serif" font-size="14.00">stop();</text>
</g>
<!-- LabaMap::PreNameSpace&#45;&gt;LabaMap::PreNameSpace -->
<g id="edge25" class="edge">
<title>LabaMap::PreNameSpace&#45;&gt;LabaMap::PreNameSpace</title>
<path fill="none" stroke="black" d="M294.17,-960.91C304.72,-959.59 312,-956.46 312,-951.5 312,-948.32 309.01,-945.9 304.09,-944.21"/>
<polygon fill="black" stroke="black" points="304.68,-940.76 294.17,-942.09 303.21,-947.61 304.68,-940.76"/>
<text text-anchor="start" x="312" y="-947.8" font-family="Times,serif" font-size="14.00">space()/</text>
</g>
<!-- LabaMap::PreNameSpace&#45;&gt;LabaMap::PreName -->
<g id="edge26" class="edge">
<title>LabaMap::PreNameSpace&#45;&gt;LabaMap::PreName</title>
<path fill="none" stroke="black" d="M255.53,-933.47C282.3,-914.89 325.29,-885.04 355,-864.41"/>
<polygon fill="black" stroke="black" points="357.16,-867.17 363.38,-858.59 353.17,-861.42 357.16,-867.17"/>
<text text-anchor="start" x="328" y="-899.8" font-family="Times,serif" font-size="14.00">char()/</text>
<text text-anchor="start" x="328" y="-884.8" font-family="Times,serif" font-size="14.00">addC();</text>
</g>
<!-- LabaMap::PreNameSpace&#45;&gt;LabaMap::ASG -->
<g id="edge27" class="edge">
<title>LabaMap::PreNameSpace&#45;&gt;LabaMap::ASG</title>
<path fill="none" stroke="black" d="M294.07,-944.84C429.89,-932.02 740.32,-899.05 771,-863 783.96,-847.77 778.65,-836.48 771,-818 766.67,-807.55 760.79,-808.21 753,-800 740.65,-786.99 740.58,-780.44 726,-770 709.49,-758.18 702.61,-760.13 684,-752 601.96,-716.18 506.8,-673.66 451.21,-648.73"/>
<polygon fill="black" stroke="black" points="452.53,-645.48 441.97,-644.58 449.66,-651.87 452.53,-645.48"/>
<text text-anchor="start" x="753" y="-781.3" font-family="Times,serif" font-size="14.00">asg()/</text>
</g>
<!-- LabaMap::PreNameSpace&#45;&gt;LabaMap::Error -->
<g id="edge28" class="edge">
<title>LabaMap::PreNameSpace&#45;&gt;LabaMap::Error</title>
<path fill="none" stroke="black" d="M228.47,-933.45C225.99,-915.85 222.4,-887.58 221,-863 219.86,-843.03 220.5,-837.99 221,-818 221.42,-801.21 231.87,-683.07 227,-667 209.82,-610.25 194.56,-598.29 153,-556 143.15,-545.98 135.54,-549.16 127,-538 102.78,-506.35 97,-493.35 97,-453.5 97,-453.5 97,-453.5 97,-281.5 97,-250.34 97.63,-235.42 122,-216 230.31,-129.67 660.54,-112.35 825.32,-108.87"/>
<polygon fill="black" stroke="black" points="825.86,-112.36 835.79,-108.66 825.72,-105.36 825.86,-112.36"/>
<text text-anchor="start" x="182" y="-574.8" font-family="Times,serif" font-size="14.00">num()/</text>
<text text-anchor="start" x="182" y="-559.8" font-family="Times,serif" font-size="14.00">stop();</text>
</g>
<!-- LabaMap::PreNameSpace&#45;&gt;LabaMap::Error -->
<g id="edge29" class="edge">
<title>LabaMap::PreNameSpace&#45;&gt;LabaMap::Error</title>
<path fill="none" stroke="black" d="M224.25,-933.46C221.83,-926.6 219.37,-918.53 218,-911 214.18,-889.99 216.44,-884.35 216,-863 214.46,-789.22 218.78,-770.79 220,-697 220.22,-683.67 226.29,-678.76 220,-667 213.19,-654.28 204.48,-657.74 193,-649 168.68,-630.49 166.6,-620.69 141,-604 125.35,-593.79 114.47,-600.75 103,-586 66.15,-538.63 77,-513.51 77,-453.5 77,-453.5 77,-453.5 77,-281.5 77,-251.31 72.28,-235.88 95,-216 203.51,-121.06 656.41,-109.04 825.75,-107.92"/>
<polygon fill="black" stroke="black" points="825.78,-111.42 835.77,-107.87 825.75,-104.42 825.78,-111.42"/>
<text text-anchor="start" x="103" y="-574.8" font-family="Times,serif" font-size="14.00">end()/</text>
<text text-anchor="start" x="103" y="-559.8" font-family="Times,serif" font-size="14.00">stop();</text>
</g>
<!-- LabaMap::PreName&#45;&gt;LabaMap::PreName -->
<g id="edge32" class="edge">
<title>LabaMap::PreName&#45;&gt;LabaMap::PreName</title>
<path fill="none" stroke="black" d="M442.01,-845.34C452.53,-844.78 460,-843.16 460,-840.5 460,-838.79 456.93,-837.52 451.96,-836.68"/>
<polygon fill="black" stroke="black" points="452.31,-833.19 442.01,-835.66 451.6,-840.16 452.31,-833.19"/>
<text text-anchor="start" x="460" y="-851.8" font-family="Times,serif" font-size="14.00">char()</text>
<text text-anchor="start" x="460" y="-836.8" font-family="Times,serif" font-size="14.00">[ctxt.nameGuard()]/</text>
<text text-anchor="start" x="460" y="-821.8" font-family="Times,serif" font-size="14.00">addC();</text>
</g>
<!-- LabaMap::PreName&#45;&gt;LabaMap::PreName -->
<g id="edge33" class="edge">
<title>LabaMap::PreName&#45;&gt;LabaMap::PreName</title>
<path fill="none" stroke="black" d="M442.07,-848.67C506.69,-852.94 602,-850.22 602,-840.5 602,-831.28 516.12,-828.36 452.14,-831.73"/>
<polygon fill="black" stroke="black" points="451.85,-828.24 442.07,-832.33 452.26,-835.23 451.85,-828.24"/>
<text text-anchor="start" x="602" y="-851.8" font-family="Times,serif" font-size="14.00">num()</text>
<text text-anchor="start" x="602" y="-836.8" font-family="Times,serif" font-size="14.00">[ctxt.nameGuard()]/</text>
<text text-anchor="start" x="602" y="-821.8" font-family="Times,serif" font-size="14.00">addC();</text>
</g>
<!-- LabaMap::PreName&#45;&gt;LabaMap::PreAsgSpace -->
<g id="edge34" class="edge">
<title>LabaMap::PreName&#45;&gt;LabaMap::PreAsgSpace</title>
<path fill="none" stroke="black" d="M442.07,-838.32C487.75,-835.36 553.74,-826.33 605,-800 622.05,-791.24 619.37,-779.54 636,-770 654.86,-759.18 677.2,-751.51 697.85,-746.13"/>
<polygon fill="black" stroke="black" points="698.95,-749.46 707.82,-743.67 697.28,-742.66 698.95,-749.46"/>
<text text-anchor="start" x="636" y="-788.8" font-family="Times,serif" font-size="14.00">space()/</text>
<text text-anchor="start" x="636" y="-773.8" font-family="Times,serif" font-size="14.00">saveName();</text>
</g>
<!-- LabaMap::PreName&#45;&gt;LabaMap::ASG -->
<g id="edge31" class="edge">
<title>LabaMap::PreName&#45;&gt;LabaMap::ASG</title>
<path fill="none" stroke="black" d="M389.31,-822.15C392.09,-785.33 398.59,-699.14 401.94,-654.84"/>
<polygon fill="black" stroke="black" points="405.43,-655.03 402.7,-644.79 398.45,-654.5 405.43,-655.03"/>
<text text-anchor="start" x="397" y="-737.3" font-family="Times,serif" font-size="14.00">asg()/</text>
<text text-anchor="start" x="397" y="-722.3" font-family="Times,serif" font-size="14.00">saveName();</text>
</g>
<!-- LabaMap::PreName&#45;&gt;LabaMap::OK -->
<g id="edge30" class="edge">
<title>LabaMap::PreName&#45;&gt;LabaMap::OK</title>
<path fill="none" stroke="black" d="M408.12,-822.4C445.84,-790.6 530.11,-720.72 605,-667 615.74,-659.29 798.67,-549.61 805,-538 814.57,-520.44 818.09,-508.12 805,-493 768.56,-450.89 717.44,-517.11 681,-475 667.91,-459.88 667.45,-444.71 681,-430 714.08,-394.09 866.92,-447.91 900,-412 913.55,-397.29 909.93,-384.36 900,-367 894.29,-357.01 839.62,-326.57 799.82,-305.35"/>
<polygon fill="black" stroke="black" points="801.29,-302.17 790.82,-300.57 798.01,-308.35 801.29,-302.17"/>
<text text-anchor="start" x="780" y="-574.8" font-family="Times,serif" font-size="14.00">end()/</text>
<text text-anchor="start" x="780" y="-559.8" font-family="Times,serif" font-size="14.00">saveName();</text>
</g>
<!-- LabaMap::PreName&#45;&gt;LabaMap::Error -->
<g id="edge35" class="edge">
<title>LabaMap::PreName&#45;&gt;LabaMap::Error</title>
<path fill="none" stroke="black" d="M342.4,-822.42C337.89,-820.87 333.37,-819.37 329,-818 299.17,-808.64 281.4,-823.69 261,-800 225.39,-758.67 270.68,-596.38 234,-556 207.75,-527.09 174.49,-566.7 148,-538 109.66,-496.46 122.69,-226.73 132,-216 177.37,-163.7 650.97,-124.99 825.71,-112.4"/>
<polygon fill="black" stroke="black" points="826.06,-115.88 835.79,-111.67 825.56,-108.9 826.06,-115.88"/>
<text text-anchor="start" x="148" y="-519.3" font-family="Times,serif" font-size="14.00">char()/</text>
<text text-anchor="start" x="148" y="-504.3" font-family="Times,serif" font-size="14.00">stop();</text>
</g>
<!-- LabaMap::PreName&#45;&gt;LabaMap::Error -->
<g id="edge36" class="edge">
<title>LabaMap::PreName&#45;&gt;LabaMap::Error</title>
<path fill="none" stroke="black" d="M382.9,-822.32C368.18,-775.1 321.75,-641.19 245,-556 235.1,-545.01 226.24,-549.55 217,-538 198.38,-514.72 203,-503.42 194,-475 185.24,-447.35 180.81,-440.75 177,-412 165.2,-322.99 151.22,-265.71 226,-216 323.95,-150.88 678.8,-121.38 825.67,-111.75"/>
<polygon fill="black" stroke="black" points="826.13,-115.23 835.88,-111.1 825.68,-108.25 826.13,-115.23"/>
<text text-anchor="start" x="217" y="-519.3" font-family="Times,serif" font-size="14.00">num()/</text>
<text text-anchor="start" x="217" y="-504.3" font-family="Times,serif" font-size="14.00">stop();</text>
</g>
<!-- LabaMap::PreAsgSpace&#45;&gt;LabaMap::PreAsgSpace -->
<g id="edge37" class="edge">
<title>LabaMap::PreAsgSpace&#45;&gt;LabaMap::PreAsgSpace</title>
<path fill="none" stroke="black" d="M818.07,-742.43C828.57,-741.36 836,-738.38 836,-733.5 836,-730.37 832.95,-728.03 828,-726.46"/>
<polygon fill="black" stroke="black" points="828.55,-723.01 818.07,-724.57 827.24,-729.88 828.55,-723.01"/>
<text text-anchor="start" x="836" y="-729.8" font-family="Times,serif" font-size="14.00">space()/</text>
</g>
<!-- LabaMap::PreAsgSpace&#45;&gt;LabaMap::ASG -->
<g id="edge38" class="edge">
<title>LabaMap::PreAsgSpace&#45;&gt;LabaMap::ASG</title>
<path fill="none" stroke="black" d="M707.87,-723.48C681.89,-717.95 650.98,-709.47 625,-697 604.97,-687.38 605.21,-676.25 585,-667 548.27,-650.19 504.01,-640.37 468.45,-634.72"/>
<polygon fill="black" stroke="black" points="468.6,-631.2 458.19,-633.17 467.55,-638.12 468.6,-631.2"/>
<text text-anchor="start" x="625" y="-678.3" font-family="Times,serif" font-size="14.00">asg()/</text>
</g>
<!-- LabaMap::PreAsgSpace&#45;&gt;LabaMap::Error -->
<g id="edge39" class="edge">
<title>LabaMap::PreAsgSpace&#45;&gt;LabaMap::Error</title>
<path fill="none" stroke="black" d="M771.92,-715.25C774.4,-709.59 776.75,-703.16 778,-697 780.65,-683.93 780.14,-680.16 778,-667 776.65,-658.68 773.35,-657.32 772,-649 768.8,-629.26 758.91,-619.12 772,-604 808.44,-561.89 853.29,-621.73 896,-586 906.78,-576.98 900.83,-569.07 906,-556 917.34,-527.34 938.95,-447.96 964,-430 995.24,-407.61 1110.28,-440.55 1136,-412 1149.39,-397.14 1144.36,-385.17 1136,-367 1130.86,-355.83 1123.13,-358.22 1115,-349 1085.09,-315.06 1088.28,-298.49 1059,-264 1026.7,-225.96 985.66,-187.88 952.11,-158.87"/>
<polygon fill="black" stroke="black" points="954.06,-155.93 944.19,-152.07 949.5,-161.24 954.06,-155.93"/>
<text text-anchor="start" x="964" y="-456.3" font-family="Times,serif" font-size="14.00">char()/</text>
<text text-anchor="start" x="964" y="-441.3" font-family="Times,serif" font-size="14.00">stop();</text>
</g>
<!-- LabaMap::PreAsgSpace&#45;&gt;LabaMap::Error -->
<g id="edge40" class="edge">
<title>LabaMap::PreAsgSpace&#45;&gt;LabaMap::Error</title>
<path fill="none" stroke="black" d="M774.49,-715.46C777.78,-709.81 781,-703.34 783,-697 795.46,-657.39 763.6,-634.29 792,-604 826.19,-567.54 864.93,-618.38 903,-586 913.7,-576.89 905.05,-567.59 913,-556 944.95,-509.39 975.25,-518.76 1011,-475 1025.34,-457.45 1016.57,-443.2 1035,-430 1075.28,-401.15 1112.92,-449.75 1145,-412 1157.95,-396.76 1150.82,-386.14 1145,-367 1144,-363.71 1078.11,-266.72 1076,-264 1058.43,-241.38 1054.08,-235.39 1033,-216 1008,-193.01 978.31,-169.98 952.48,-151.13"/>
<polygon fill="black" stroke="black" points="954.39,-148.2 944.24,-145.17 950.29,-153.87 954.39,-148.2"/>
<text text-anchor="start" x="1035" y="-456.3" font-family="Times,serif" font-size="14.00">num()/</text>
<text text-anchor="start" x="1035" y="-441.3" font-family="Times,serif" font-size="14.00">stop();</text>
</g>
<!-- LabaMap::PreAsgSpace&#45;&gt;LabaMap::Error -->
<g id="edge41" class="edge">
<title>LabaMap::PreAsgSpace&#45;&gt;LabaMap::Error</title>
<path fill="none" stroke="black" d="M777.68,-715.3C781.83,-709.74 786.02,-703.37 789,-697 807.03,-658.43 780.99,-633.18 812,-604 844.25,-573.65 876.57,-615.05 910,-586 920.61,-576.78 910.36,-566.23 920,-556 934.78,-540.33 945.49,-547.12 965,-538 1018.5,-512.99 1040.32,-516.84 1082,-475 1098,-458.94 1089.01,-445 1106,-430 1122.77,-415.2 1140.32,-430.43 1153,-412 1180.77,-371.63 1088.64,-248.53 1052,-216 1021.61,-189.03 984.05,-163.58 952.74,-144.16"/>
<polygon fill="black" stroke="black" points="954.44,-141.1 944.09,-138.85 950.78,-147.06 954.44,-141.1"/>
<text text-anchor="start" x="1106" y="-456.3" font-family="Times,serif" font-size="14.00">end()/</text>
<text text-anchor="start" x="1106" y="-441.3" font-family="Times,serif" font-size="14.00">stop();</text>
</g>
<!-- LabaMap::PreVarSpace -->
<g id="node9" class="node">
<title>LabaMap::PreVarSpace</title>
<path fill="none" stroke="black" d="M372,-497.5C372,-497.5 456,-497.5 456,-497.5 462,-497.5 468,-503.5 468,-509.5 468,-509.5 468,-521.5 468,-521.5 468,-527.5 462,-533.5 456,-533.5 456,-533.5 372,-533.5 372,-533.5 366,-533.5 360,-527.5 360,-521.5 360,-521.5 360,-509.5 360,-509.5 360,-503.5 366,-497.5 372,-497.5"/>
<text text-anchor="middle" x="414" y="-511.8" font-family="Times,serif" font-size="14.00">PreVarSpace</text>
</g>
<!-- LabaMap::ASG&#45;&gt;LabaMap::PreVarSpace -->
<g id="edge42" class="edge">
<title>LabaMap::ASG&#45;&gt;LabaMap::PreVarSpace</title>
<path fill="none" stroke="black" d="M405.56,-608.47C407.15,-591.21 409.62,-564.24 411.48,-543.96"/>
<polygon fill="black" stroke="black" points="414.99,-544.05 412.42,-533.77 408.02,-543.41 414.99,-544.05"/>
<text text-anchor="start" x="410" y="-567.3" font-family="Times,serif" font-size="14.00">space()/</text>
</g>
<!-- LabaMap::VarNum -->
<g id="node11" class="node">
<title>LabaMap::VarNum</title>
<path fill="none" stroke="black" d="M961,-371.5C961,-371.5 1045,-371.5 1045,-371.5 1051,-371.5 1057,-377.5 1057,-383.5 1057,-383.5 1057,-395.5 1057,-395.5 1057,-401.5 1051,-407.5 1045,-407.5 1045,-407.5 961,-407.5 961,-407.5 955,-407.5 949,-401.5 949,-395.5 949,-395.5 949,-383.5 949,-383.5 949,-377.5 955,-371.5 961,-371.5"/>
<text text-anchor="middle" x="1003" y="-385.8" font-family="Times,serif" font-size="14.00">VarNum</text>
</g>
<!-- LabaMap::ASG&#45;&gt;LabaMap::VarNum -->
<g id="edge43" class="edge">
<title>LabaMap::ASG&#45;&gt;LabaMap::VarNum</title>
<path fill="none" stroke="black" d="M458.32,-617.62C541.47,-604.52 694.8,-575.9 734,-538 755.03,-517.67 745.6,-503.29 753,-475 758.18,-455.18 747.89,-443.84 763,-430 785.65,-409.26 869.73,-417.14 900,-412 912.58,-409.86 925.96,-407.29 938.76,-404.69"/>
<polygon fill="black" stroke="black" points="939.8,-408.04 948.89,-402.59 938.39,-401.19 939.8,-408.04"/>
<text text-anchor="start" x="749" y="-519.3" font-family="Times,serif" font-size="14.00">num()/</text>
<text text-anchor="start" x="749" y="-504.3" font-family="Times,serif" font-size="14.00">addC();</text>
</g>
<!-- LabaMap::VarName -->
<g id="node12" class="node">
<title>LabaMap::VarName</title>
<path fill="none" stroke="black" d="M475,-371.5C475,-371.5 559,-371.5 559,-371.5 565,-371.5 571,-377.5 571,-383.5 571,-383.5 571,-395.5 571,-395.5 571,-401.5 565,-407.5 559,-407.5 559,-407.5 475,-407.5 475,-407.5 469,-407.5 463,-401.5 463,-395.5 463,-395.5 463,-383.5 463,-383.5 463,-377.5 469,-371.5 475,-371.5"/>
<text text-anchor="middle" x="517" y="-385.8" font-family="Times,serif" font-size="14.00">VarName</text>
</g>
<!-- LabaMap::ASG&#45;&gt;LabaMap::VarName -->
<g id="edge44" class="edge">
<title>LabaMap::ASG&#45;&gt;LabaMap::VarName</title>
<path fill="none" stroke="black" d="M449.01,-608.47C498.94,-586.54 575.44,-542.97 598,-475 604.3,-456.02 608.6,-446.96 598,-430 593.41,-422.66 587.02,-416.64 579.82,-411.73"/>
<polygon fill="black" stroke="black" points="581.43,-408.61 571.06,-406.44 577.82,-414.6 581.43,-408.61"/>
<text text-anchor="start" x="589" y="-526.8" font-family="Times,serif" font-size="14.00">char()</text>
<text text-anchor="start" x="589" y="-511.8" font-family="Times,serif" font-size="14.00">[ctxt.nameGuard()]/</text>
<text text-anchor="start" x="589" y="-496.8" font-family="Times,serif" font-size="14.00">addC();</text>
</g>
<!-- LabaMap::ASG&#45;&gt;LabaMap::Error -->
<g id="edge45" class="edge">
<title>LabaMap::ASG&#45;&gt;LabaMap::Error</title>
<path fill="none" stroke="black" d="M349.83,-615.45C331.29,-609.6 311.78,-600.41 298,-586 267.98,-554.61 290.54,-530.12 268,-493 241.74,-449.75 207.22,-458.81 188,-412 159.24,-341.94 240.3,-225.24 252,-216 340.44,-146.11 682.29,-119.43 825.9,-111.16"/>
<polygon fill="black" stroke="black" points="826.1,-114.65 835.89,-110.59 825.71,-107.66 826.1,-114.65"/>
<text text-anchor="start" x="188" y="-393.3" font-family="Times,serif" font-size="14.00">char()/</text>
<text text-anchor="start" x="188" y="-378.3" font-family="Times,serif" font-size="14.00">stop();</text>
</g>
<!-- LabaMap::ASG&#45;&gt;LabaMap::Error -->
<g id="edge46" class="edge">
<title>LabaMap::ASG&#45;&gt;LabaMap::Error</title>
<path fill="none" stroke="black" d="M391.43,-608.22C379.52,-591.13 361.88,-563.87 351,-538 320.57,-465.67 338.99,-438.66 307,-367 303.08,-358.22 297.88,-358.17 295,-349 288.6,-328.64 294.22,-322.34 294,-301 293.61,-263.1 274.69,-243.29 301,-216 372.64,-141.69 687.54,-117.68 825.2,-110.65"/>
<polygon fill="black" stroke="black" points="825.78,-114.12 835.59,-110.13 825.43,-107.13 825.78,-114.12"/>
<text text-anchor="start" x="322" y="-393.3" font-family="Times,serif" font-size="14.00">end()/</text>
<text text-anchor="start" x="322" y="-378.3" font-family="Times,serif" font-size="14.00">stop();</text>
</g>
<!-- LabaMap::ASG&#45;&gt;LabaMap::Error -->
<g id="edge47" class="edge">
<title>LabaMap::ASG&#45;&gt;LabaMap::Error</title>
<path fill="none" stroke="black" d="M379.2,-608.47C370.9,-602.03 361.99,-594.26 355,-586 297.64,-518.27 279.51,-497.85 257,-412 241.56,-353.11 268.48,-230.61 283,-216 358.29,-140.29 684.89,-116.99 825.37,-110.4"/>
<polygon fill="black" stroke="black" points="825.73,-113.88 835.56,-109.93 825.41,-106.89 825.73,-113.88"/>
<text text-anchor="start" x="257" y="-393.3" font-family="Times,serif" font-size="14.00">asg()/</text>
<text text-anchor="start" x="257" y="-378.3" font-family="Times,serif" font-size="14.00">stop();</text>
</g>
<!-- LabaMap::PreVarSpace&#45;&gt;LabaMap::PreVarSpace -->
<g id="edge48" class="edge">
<title>LabaMap::PreVarSpace&#45;&gt;LabaMap::PreVarSpace</title>
<path fill="none" stroke="black" d="M468.01,-525.17C478.53,-524.05 486,-520.83 486,-515.5 486,-512.09 482.93,-509.54 477.96,-507.85"/>
<polygon fill="black" stroke="black" points="478.5,-504.39 468.01,-505.83 477.11,-511.25 478.5,-504.39"/>
<text text-anchor="start" x="486" y="-511.8" font-family="Times,serif" font-size="14.00">space()/</text>
</g>
<!-- LabaMap::PreVarSpace&#45;&gt;LabaMap::VarNum -->
<g id="edge50" class="edge">
<title>LabaMap::PreVarSpace&#45;&gt;LabaMap::VarNum</title>
<path fill="none" stroke="black" d="M468.31,-506.34C506.31,-499.85 557.95,-489.44 602,-475 647.93,-459.94 654.27,-442.35 701,-430 786.86,-407.31 812.17,-425.09 900,-412 912.62,-410.12 926.01,-407.66 938.83,-405.09"/>
<polygon fill="black" stroke="black" points="939.86,-408.45 948.95,-403.01 938.45,-401.59 939.86,-408.45"/>
<text text-anchor="start" x="701" y="-456.3" font-family="Times,serif" font-size="14.00">num()/</text>
<text text-anchor="start" x="701" y="-441.3" font-family="Times,serif" font-size="14.00">addC();</text>
</g>
<!-- LabaMap::PreVarSpace&#45;&gt;LabaMap::VarName -->
<g id="edge49" class="edge">
<title>LabaMap::PreVarSpace&#45;&gt;LabaMap::VarName</title>
<path fill="none" stroke="black" d="M422.26,-497.31C433.78,-473.41 453.55,-432.75 456,-430 461.49,-423.85 468.16,-418.26 475.04,-413.35"/>
<polygon fill="black" stroke="black" points="477.43,-415.96 483.81,-407.5 473.54,-410.14 477.43,-415.96"/>
<text text-anchor="start" x="456" y="-463.8" font-family="Times,serif" font-size="14.00">char()</text>
<text text-anchor="start" x="456" y="-448.8" font-family="Times,serif" font-size="14.00">[ctxt.nameGuard()]/</text>
<text text-anchor="start" x="456" y="-433.8" font-family="Times,serif" font-size="14.00">addC();</text>
</g>
<!-- LabaMap::PreVarSpace&#45;&gt;LabaMap::Error -->
<g id="edge51" class="edge">
<title>LabaMap::PreVarSpace&#45;&gt;LabaMap::Error</title>
<path fill="none" stroke="black" d="M416.67,-497.26C420.35,-466.65 423.09,-402.68 389,-367 362.93,-339.71 329.69,-378.38 306,-349 295.32,-335.76 293.24,-244.19 320,-216 388.59,-143.73 691.61,-118.66 825.74,-111"/>
<polygon fill="black" stroke="black" points="826.08,-114.49 835.87,-110.44 825.69,-107.5 826.08,-114.49"/>
<text text-anchor="start" x="306" y="-337.8" font-family="Times,serif" font-size="14.00">char()/</text>
<text text-anchor="start" x="306" y="-322.8" font-family="Times,serif" font-size="14.00">stop();</text>
</g>
<!-- LabaMap::PreVarSpace&#45;&gt;LabaMap::Error -->
<g id="edge52" class="edge">
<title>LabaMap::PreVarSpace&#45;&gt;LabaMap::Error</title>
<path fill="none" stroke="black" d="M416.71,-497.3C419,-480.2 421.55,-453.23 419,-430 415.87,-401.49 421.6,-390.39 405,-367 396.22,-354.63 387.19,-359.24 376,-349 374.77,-347.87 340.53,-302.58 340,-301 328.05,-265.16 316,-245.17 340,-216 400.87,-142.01 693.52,-117.95 825.36,-110.78"/>
<polygon fill="black" stroke="black" points="825.91,-114.26 835.71,-110.23 825.54,-107.27 825.91,-114.26"/>
<text text-anchor="start" x="376" y="-337.8" font-family="Times,serif" font-size="14.00">end()/</text>
<text text-anchor="start" x="376" y="-322.8" font-family="Times,serif" font-size="14.00">stop();</text>
</g>
<!-- LabaMap::PreVarSpace&#45;&gt;LabaMap::Error -->
<g id="edge53" class="edge">
<title>LabaMap::PreVarSpace&#45;&gt;LabaMap::Error</title>
<path fill="none" stroke="black" d="M419.32,-497.37C421.2,-490.49 423.07,-482.44 424,-475 426.47,-455.15 424.18,-450 424,-430 423.56,-380.66 434.81,-366.65 422,-319 419.62,-310.16 414.3,-309.86 412,-301 407.88,-285.08 408.63,-280.1 412,-264 416.77,-241.21 415.12,-230.92 433,-216 492.34,-166.5 714.42,-131.08 825.66,-116.04"/>
<polygon fill="black" stroke="black" points="826.3,-119.49 835.75,-114.69 825.37,-112.55 826.3,-119.49"/>
<text text-anchor="start" x="427" y="-337.8" font-family="Times,serif" font-size="14.00">asg()/</text>
<text text-anchor="start" x="427" y="-322.8" font-family="Times,serif" font-size="14.00">stop();</text>
</g>
<!-- LabaMap::PreVar -->
<g id="node10" class="node">
<title>LabaMap::PreVar</title>
<path fill="none" stroke="black" d="M1437,-497.5C1437,-497.5 1521,-497.5 1521,-497.5 1527,-497.5 1533,-503.5 1533,-509.5 1533,-509.5 1533,-521.5 1533,-521.5 1533,-527.5 1527,-533.5 1521,-533.5 1521,-533.5 1437,-533.5 1437,-533.5 1431,-533.5 1425,-527.5 1425,-521.5 1425,-521.5 1425,-509.5 1425,-509.5 1425,-503.5 1431,-497.5 1437,-497.5"/>
<text text-anchor="middle" x="1479" y="-511.8" font-family="Times,serif" font-size="14.00">PreVar</text>
</g>
<!-- LabaMap::PreVar&#45;&gt;LabaMap::VarNum -->
<g id="edge54" class="edge">
<title>LabaMap::PreVar&#45;&gt;LabaMap::VarNum</title>
<path fill="none" stroke="black" d="M1424.86,-500.4C1336.37,-477.34 1161.18,-431.71 1066.8,-407.12"/>
<polygon fill="black" stroke="black" points="1067.65,-403.72 1057.09,-404.59 1065.88,-410.5 1067.65,-403.72"/>
<text text-anchor="start" x="1325" y="-456.3" font-family="Times,serif" font-size="14.00">num()/</text>
<text text-anchor="start" x="1325" y="-441.3" font-family="Times,serif" font-size="14.00">addC();</text>
</g>
<!-- LabaMap::PreVar&#45;&gt;LabaMap::VarName -->
<g id="edge55" class="edge">
<title>LabaMap::PreVar&#45;&gt;LabaMap::VarName</title>
<path fill="none" stroke="black" d="M1424.84,-513.78C1273.19,-511.42 851.78,-502.45 796,-475 772.25,-463.32 780.1,-442.92 757,-430 727.65,-413.58 641.91,-402.3 581.31,-396.12"/>
<polygon fill="black" stroke="black" points="581.36,-392.61 571.06,-395.1 580.67,-399.58 581.36,-392.61"/>
<text text-anchor="start" x="796" y="-463.8" font-family="Times,serif" font-size="14.00">char()</text>
<text text-anchor="start" x="796" y="-448.8" font-family="Times,serif" font-size="14.00">[ctxt.nameGuard()]/</text>
<text text-anchor="start" x="796" y="-433.8" font-family="Times,serif" font-size="14.00">addC();</text>
</g>
<!-- LabaMap::PreVar&#45;&gt;LabaMap::Error -->
<g id="edge56" class="edge">
<title>LabaMap::PreVar&#45;&gt;LabaMap::Error</title>
<path fill="none" stroke="black" d="M1471.88,-497.38C1469.18,-490.5 1466.23,-482.45 1464,-475 1449.61,-426.92 1468.79,-400.04 1431,-367 1402.91,-342.44 1372.38,-378.07 1349,-349 1340.64,-338.61 1343.04,-330.93 1349,-319 1354.96,-307.07 1367.04,-312.93 1373,-301 1389.89,-267.21 1396.62,-245.48 1373,-216 1321.19,-151.33 1073.27,-122.8 954.16,-112.66"/>
<polygon fill="black" stroke="black" points="954.34,-109.17 944.09,-111.82 953.76,-116.14 954.34,-109.17"/>
<text text-anchor="start" x="1349" y="-337.8" font-family="Times,serif" font-size="14.00">char()/</text>
<text text-anchor="start" x="1349" y="-322.8" font-family="Times,serif" font-size="14.00">stop();</text>
</g>
<!-- LabaMap::PreVar&#45;&gt;LabaMap::Error -->
<g id="edge57" class="edge">
<title>LabaMap::PreVar&#45;&gt;LabaMap::Error</title>
<path fill="none" stroke="black" d="M1479.58,-497.34C1479.72,-467.95 1476.23,-407.29 1448,-367 1439.29,-354.58 1427.97,-361.23 1419,-349 1382.92,-299.8 1428.9,-258.37 1385,-216 1323.96,-157.09 1073.91,-125.64 954.31,-113.72"/>
<polygon fill="black" stroke="black" points="954.49,-110.22 944.19,-112.72 953.8,-117.18 954.49,-110.22"/>
<text text-anchor="start" x="1419" y="-337.8" font-family="Times,serif" font-size="14.00">end()/</text>
<text text-anchor="start" x="1419" y="-322.8" font-family="Times,serif" font-size="14.00">stop();</text>
</g>
<!-- LabaMap::PreVar&#45;&gt;LabaMap::Error -->
<g id="edge58" class="edge">
<title>LabaMap::PreVar&#45;&gt;LabaMap::Error</title>
<path fill="none" stroke="black" d="M1480.98,-497.19C1485.99,-443.71 1492.77,-280.85 1399,-216 1327.34,-166.45 1074.73,-130.26 954.51,-115.42"/>
<polygon fill="black" stroke="black" points="954.69,-111.92 944.34,-114.18 953.84,-118.87 954.69,-111.92"/>
<text text-anchor="start" x="1474" y="-337.8" font-family="Times,serif" font-size="14.00">asg()/</text>
<text text-anchor="start" x="1474" y="-322.8" font-family="Times,serif" font-size="14.00">stop();</text>
</g>
<!-- LabaMap::PreVar&#45;&gt;LabaMap::Error -->
<g id="edge59" class="edge">
<title>LabaMap::PreVar&#45;&gt;LabaMap::Error</title>
<path fill="none" stroke="black" d="M1468.01,-497.33C1464.08,-490.58 1459.9,-482.63 1457,-475 1449.72,-455.85 1456.33,-448.24 1447,-430 1442.13,-420.47 1436.8,-421 1431,-412 1419.14,-393.6 1428.47,-380.18 1411,-367 1365.13,-332.41 1320.69,-392.36 1283,-349 1234.78,-293.53 1343.08,-313.79 1353,-301 1376.15,-271.15 1376.48,-245.59 1353,-216 1303.94,-154.18 1069.83,-124.46 954.5,-113.37"/>
<polygon fill="black" stroke="black" points="954.67,-109.87 944.39,-112.42 954.02,-116.84 954.67,-109.87"/>
<text text-anchor="start" x="1283" y="-337.8" font-family="Times,serif" font-size="14.00">space()/</text>
<text text-anchor="start" x="1283" y="-322.8" font-family="Times,serif" font-size="14.00">stop();</text>
</g>
<!-- LabaMap::VarNum&#45;&gt;LabaMap::VarNum -->
<g id="edge60" class="edge">
<title>LabaMap::VarNum&#45;&gt;LabaMap::VarNum</title>
<path fill="none" stroke="black" d="M1057.01,-399.17C1067.53,-398.05 1075,-394.83 1075,-389.5 1075,-386.09 1071.93,-383.54 1066.96,-381.85"/>
<polygon fill="black" stroke="black" points="1067.5,-378.39 1057.01,-379.83 1066.11,-385.25 1067.5,-378.39"/>
<text text-anchor="start" x="1075" y="-393.3" font-family="Times,serif" font-size="14.00">num()/</text>
<text text-anchor="start" x="1075" y="-378.3" font-family="Times,serif" font-size="14.00">addC();</text>
</g>
<!-- LabaMap::VarNum&#45;&gt;LabaMap::OK -->
<g id="edge61" class="edge">
<title>LabaMap::VarNum&#45;&gt;LabaMap::OK</title>
<path fill="none" stroke="black" d="M949.15,-371.48C935.28,-365.64 920.91,-358.19 909,-349 895.7,-338.74 899.93,-328.4 886,-319 883.01,-316.98 852.44,-308.48 821.92,-300.3"/>
<polygon fill="black" stroke="black" points="822.62,-296.86 812.05,-297.66 820.81,-303.62 822.62,-296.86"/>
<text text-anchor="start" x="909" y="-330.3" font-family="Times,serif" font-size="14.00">end()/</text>
</g>
<!-- LabaMap::VarNum&#45;&gt;LabaMap::Error -->
<g id="edge62" class="edge">
<title>LabaMap::VarNum&#45;&gt;LabaMap::Error</title>
<path fill="none" stroke="black" d="M980.79,-371.38C973.68,-364.99 966.28,-357.26 961,-349 953.43,-337.16 961.53,-328.31 951,-319 920.77,-292.26 887.55,-332.24 862,-301 851.59,-288.27 851.86,-276.95 862,-264 882.61,-237.69 914.39,-272.31 935,-246 943.94,-234.59 946.59,-221.33 945.32,-207.64"/>
<polygon fill="black" stroke="black" points="948.76,-206.95 943.74,-197.62 941.84,-208.04 948.76,-206.95"/>
<text text-anchor="start" x="862" y="-286.3" font-family="Times,serif" font-size="14.00">char()/</text>
<text text-anchor="start" x="862" y="-271.3" font-family="Times,serif" font-size="14.00">stop();</text>
</g>
<!-- LabaMap::VarNum&#45;&gt;LabaMap::Error -->
<g id="edge63" class="edge">
<title>LabaMap::VarNum&#45;&gt;LabaMap::Error</title>
<path fill="none" stroke="black" d="M992.33,-371.49C983.35,-357.32 970.09,-336.68 958,-319 952.43,-310.86 948.04,-310.39 945,-301 933.38,-265.05 953.82,-252.73 945,-216 944.29,-213.03 943.48,-210.04 942.58,-207.06"/>
<polygon fill="black" stroke="black" points="945.91,-205.96 939.47,-197.55 939.25,-208.14 945.91,-205.96"/>
<text text-anchor="start" x="945" y="-286.3" font-family="Times,serif" font-size="14.00">asg()/</text>
<text text-anchor="start" x="945" y="-271.3" font-family="Times,serif" font-size="14.00">stop();</text>
</g>
<!-- LabaMap::VarNum&#45;&gt;LabaMap::Error -->
<g id="edge64" class="edge">
<title>LabaMap::VarNum&#45;&gt;LabaMap::Error</title>
<path fill="none" stroke="black" d="M1003.87,-371.45C1004.56,-346.95 1003.79,-300.7 991,-264 981.36,-236.34 965.85,-208.67 949.85,-184.49"/>
<polygon fill="black" stroke="black" points="952.68,-182.42 944.18,-176.09 946.88,-186.33 952.68,-182.42"/>
<text text-anchor="start" x="999" y="-286.3" font-family="Times,serif" font-size="14.00">space()/</text>
<text text-anchor="start" x="999" y="-271.3" font-family="Times,serif" font-size="14.00">stop();</text>
</g>
<!-- LabaMap::VarName&#45;&gt;LabaMap::VarName -->
<g id="edge65" class="edge">
<title>LabaMap::VarName&#45;&gt;LabaMap::VarName</title>
<path fill="none" stroke="black" d="M571.01,-394.34C581.53,-393.78 589,-392.16 589,-389.5 589,-387.79 585.93,-386.52 580.96,-385.68"/>
<polygon fill="black" stroke="black" points="581.31,-382.19 571.01,-384.66 580.6,-389.16 581.31,-382.19"/>
<text text-anchor="start" x="589" y="-400.8" font-family="Times,serif" font-size="14.00">num()</text>
<text text-anchor="start" x="589" y="-385.8" font-family="Times,serif" font-size="14.00">[ctxt.nameGuard()]/</text>
<text text-anchor="start" x="589" y="-370.8" font-family="Times,serif" font-size="14.00">addC();</text>
</g>
<!-- LabaMap::VarName&#45;&gt;LabaMap::VarName -->
<g id="edge66" class="edge">
<title>LabaMap::VarName&#45;&gt;LabaMap::VarName</title>
<path fill="none" stroke="black" d="M571.07,-397.67C635.69,-401.94 731,-399.22 731,-389.5 731,-380.28 645.12,-377.36 581.14,-380.73"/>
<polygon fill="black" stroke="black" points="580.85,-377.24 571.07,-381.33 581.26,-384.23 580.85,-377.24"/>
<text text-anchor="start" x="731" y="-400.8" font-family="Times,serif" font-size="14.00">char()</text>
<text text-anchor="start" x="731" y="-385.8" font-family="Times,serif" font-size="14.00">[ctxt.nameGuard()]/</text>
<text text-anchor="start" x="731" y="-370.8" font-family="Times,serif" font-size="14.00">addC();</text>
</g>
<!-- LabaMap::VarName&#45;&gt;LabaMap::OK -->
<g id="edge67" class="edge">
<title>LabaMap::VarName&#45;&gt;LabaMap::OK</title>
<path fill="none" stroke="black" d="M571.23,-374.7C594.39,-368.07 621.46,-359.3 645,-349 672.57,-336.94 701.93,-319.78 723.8,-306.05"/>
<polygon fill="black" stroke="black" points="725.83,-308.91 732.4,-300.59 722.08,-303 725.83,-308.91"/>
<text text-anchor="start" x="701" y="-330.3" font-family="Times,serif" font-size="14.00">end()/</text>
</g>
<!-- LabaMap::VarName&#45;&gt;LabaMap::Error -->
<g id="edge68" class="edge">
<title>LabaMap::VarName&#45;&gt;LabaMap::Error</title>
<path fill="none" stroke="black" d="M513.5,-371.27C510.32,-356.97 505.03,-336.26 498,-319 494.55,-310.53 490.3,-309.86 488,-301 483.88,-285.08 480.65,-278.71 488,-264 503.9,-232.2 520.4,-232.3 552,-216 642.01,-169.55 755.82,-138.22 825.73,-121.74"/>
<polygon fill="black" stroke="black" points="826.77,-125.1 835.72,-119.42 825.19,-118.28 826.77,-125.1"/>
<text text-anchor="start" x="488" y="-286.3" font-family="Times,serif" font-size="14.00">char()/</text>
<text text-anchor="start" x="488" y="-271.3" font-family="Times,serif" font-size="14.00">stop();</text>
</g>
<!-- LabaMap::VarName&#45;&gt;LabaMap::Error -->
<g id="edge69" class="edge">
<title>LabaMap::VarName&#45;&gt;LabaMap::Error</title>
<path fill="none" stroke="black" d="M520.61,-371.45C529.17,-332.49 551.64,-238.58 574,-216 641.84,-147.47 754.91,-122.4 825.81,-113.25"/>
<polygon fill="black" stroke="black" points="826.45,-116.69 835.95,-112.01 825.6,-109.74 826.45,-116.69"/>
<text text-anchor="start" x="549" y="-286.3" font-family="Times,serif" font-size="14.00">num()/</text>
<text text-anchor="start" x="549" y="-271.3" font-family="Times,serif" font-size="14.00">stop();</text>
</g>
<!-- LabaMap::VarName&#45;&gt;LabaMap::Error -->
<g id="edge70" class="edge">
<title>LabaMap::VarName&#45;&gt;LabaMap::Error</title>
<path fill="none" stroke="black" d="M541.52,-371.24C561.51,-355.53 588.29,-330.37 600,-301 606.09,-285.73 602.63,-280.23 600,-264 598.65,-255.68 595.35,-254.32 594,-246 591.86,-232.84 586.36,-226.93 594,-216 646.16,-141.45 755.48,-118.18 825.68,-111.03"/>
<polygon fill="black" stroke="black" points="826.11,-114.5 835.74,-110.09 825.46,-107.54 826.11,-114.5"/>
<text text-anchor="start" x="603" y="-286.3" font-family="Times,serif" font-size="14.00">asg()/</text>
<text text-anchor="start" x="603" y="-271.3" font-family="Times,serif" font-size="14.00">stop();</text>
</g>
<!-- LabaMap::VarName&#45;&gt;LabaMap::Error -->
<g id="edge71" class="edge">
<title>LabaMap::VarName&#45;&gt;LabaMap::Error</title>
<path fill="none" stroke="black" d="M509.75,-371.29C506.92,-364.4 503.71,-356.36 501,-349 496.14,-335.81 501.25,-328.62 491,-319 468.21,-297.6 442.07,-325.77 423,-301 412.97,-287.97 415.24,-278.5 423,-264 461.9,-191.32 707.28,-139.6 825.92,-118.52"/>
<polygon fill="black" stroke="black" points="826.72,-121.93 835.96,-116.75 825.51,-115.04 826.72,-121.93"/>
<text text-anchor="start" x="423" y="-286.3" font-family="Times,serif" font-size="14.00">space()/</text>
<text text-anchor="start" x="423" y="-271.3" font-family="Times,serif" font-size="14.00">stop();</text>
</g>
<!-- LabaMap::OK&#45;&gt;LabaMap::Error -->
<g id="edge72" class="edge">
<title>LabaMap::OK&#45;&gt;LabaMap::Error</title>
<path fill="none" stroke="black" d="M812.04,-266.78C837.81,-259.27 863.94,-250.74 868,-246 877.43,-235 883.65,-221.62 887.66,-207.57"/>
<polygon fill="black" stroke="black" points="891.08,-208.31 890.09,-197.76 884.28,-206.62 891.08,-208.31"/>
<text text-anchor="start" x="884" y="-234.8" font-family="Times,serif" font-size="14.00">char()/</text>
<text text-anchor="start" x="884" y="-219.8" font-family="Times,serif" font-size="14.00">stop();</text>
</g>
<!-- LabaMap::OK&#45;&gt;LabaMap::Error -->
<g id="edge73" class="edge">
<title>LabaMap::OK&#45;&gt;LabaMap::Error</title>
<path fill="none" stroke="black" d="M703.86,-267.33C699.18,-266.18 694.51,-265.05 690,-264 651.97,-255.13 628.62,-276.31 604,-246 595.59,-235.65 596.42,-226.97 604,-216 653.66,-144.16 757.65,-120.05 825.6,-112"/>
<polygon fill="black" stroke="black" points="826.21,-115.45 835.77,-110.88 825.45,-108.49 826.21,-115.45"/>
<text text-anchor="start" x="604" y="-234.8" font-family="Times,serif" font-size="14.00">num()/</text>
<text text-anchor="start" x="604" y="-219.8" font-family="Times,serif" font-size="14.00">stop();</text>
</g>
<!-- LabaMap::OK&#45;&gt;LabaMap::Error -->
<g id="edge74" class="edge">
<title>LabaMap::OK&#45;&gt;LabaMap::Error</title>
<path fill="none" stroke="black" d="M703.84,-269.4C692.1,-264.17 681.09,-256.69 674,-246 666.63,-234.89 666.99,-227.34 674,-216 706.86,-162.84 774.68,-134.97 825.62,-120.96"/>
<polygon fill="black" stroke="black" points="826.78,-124.27 835.56,-118.34 825,-117.5 826.78,-124.27"/>
<text text-anchor="start" x="674" y="-234.8" font-family="Times,serif" font-size="14.00">end()/</text>
<text text-anchor="start" x="674" y="-219.8" font-family="Times,serif" font-size="14.00">stop();</text>
</g>
<!-- LabaMap::OK&#45;&gt;LabaMap::Error -->
<g id="edge75" class="edge">
<title>LabaMap::OK&#45;&gt;LabaMap::Error</title>
<path fill="none" stroke="black" d="M747.95,-264.31C741.35,-250.63 735.26,-231.3 743,-216 760.64,-181.15 795.4,-154.82 826.69,-136.88"/>
<polygon fill="black" stroke="black" points="828.78,-139.72 835.83,-131.81 825.39,-133.6 828.78,-139.72"/>
<text text-anchor="start" x="743" y="-234.8" font-family="Times,serif" font-size="14.00">asg()/</text>
<text text-anchor="start" x="743" y="-219.8" font-family="Times,serif" font-size="14.00">stop();</text>
</g>
<!-- LabaMap::OK&#45;&gt;LabaMap::Error -->
<g id="edge76" class="edge">
<title>LabaMap::OK&#45;&gt;LabaMap::Error</title>
<path fill="none" stroke="black" d="M774,-264.25C779,-258.59 784.4,-252.16 789,-246 798.44,-233.35 799,-228.96 808,-216 814.94,-206.01 822.42,-195.65 829.94,-185.47"/>
<polygon fill="black" stroke="black" points="832.81,-187.48 835.97,-177.37 827.19,-183.3 832.81,-187.48"/>
<text text-anchor="start" x="808" y="-234.8" font-family="Times,serif" font-size="14.00">space()/</text>
<text text-anchor="start" x="808" y="-219.8" font-family="Times,serif" font-size="14.00">stop();</text>
</g>
<!-- %3 -->
<g id="node15" class="node">
<title>%3</title>
<ellipse fill="black" stroke="black" cx="1339" cy="-1487" rx="9" ry="9"/>
</g>
<!-- %3&#45;&gt;LabaMap::Start -->
<g id="edge77" class="edge">
<title>%3&#45;&gt;LabaMap::Start</title>
<path fill="none" stroke="black" d="M1339,-1477.83C1339,-1470.93 1339,-1460.63 1339,-1450.86"/>
<polygon fill="black" stroke="black" points="1342.5,-1450.64 1339,-1440.64 1335.5,-1450.64 1342.5,-1450.64"/>
</g>
</g>
</svg>
